<?xml version="1.0" encoding="utf-8"?>
<!-- Generator: Adobe Illustrator 16.0.0, SVG Export Plug-In . SVG Version: 6.00 Build 0)  -->
<!DOCTYPE svg PUBLIC "-//W3C//DTD SVG 1.1//EN" "http://www.w3.org/Graphics/SVG/1.1/DTD/svg11.dtd">
<svg version="1.1" id="Layer_1" xmlns="http://www.w3.org/2000/svg" xmlns:xlink="http://www.w3.org/1999/xlink" x="0px" y="0px"
	 width="120px" height="120px" viewBox="0 0 120 120" enable-background="new 0 0 120 120" xml:space="preserve">
<g>
	<circle fill-rule="evenodd" clip-rule="evenodd" fill="#BF1F3A" cx="60" cy="59.833" r="50.499"/>
	<g>
		<path fill-rule="evenodd" clip-rule="evenodd" fill="#FFFFFF" d="M49.799,36.443c-0.636,0-1.233,0.003-1.832-0.003
			c-1.049-0.009-1.656-0.522-1.654-1.385c0.001-0.864,0.616-1.379,1.662-1.383c6.514-0.003,13.031-0.003,19.547-0.003
			c1.568,0,3.14,0,4.708,0c0.679,0,1.228,0.222,1.501,0.891c0.369,0.9-0.271,1.818-1.316,1.881c-0.342,0.021-0.687,0.006-1.03,0.006
			c-0.34,0-0.679,0-1.078,0c0.639,2.531,1.257,4.984,1.878,7.438c0.515,2.04,1.061,4.073,1.523,6.125
			c0.099,0.429,0.035,1.026-0.2,1.385c-3.912,6.043-7.864,12.06-11.808,18.083c-0.044,0.065-0.102,0.126-0.227,0.275
			c-0.019-0.255-0.039-0.414-0.039-0.569c-0.002-7.504,0.002-15.011-0.01-22.515c0-0.456,0.095-0.708,0.542-0.936
			c1.72-0.861,2.57-2.792,2.104-4.616c-0.467-1.829-2.069-3.098-3.942-3.12c-1.924-0.023-3.547,1.2-4.054,3.057
			c-0.494,1.818,0.313,3.755,2.03,4.643c0.492,0.255,0.604,0.537,0.602,1.035c-0.013,7.462-0.009,14.924-0.009,22.386
			c0,0.165,0,0.333,0,0.651c-0.186-0.226-0.297-0.336-0.381-0.463c-3.885-5.932-7.767-11.864-11.659-17.793
			c-0.333-0.507-0.393-1.002-0.244-1.587c1.116-4.367,2.212-8.74,3.314-13.113C49.754,36.713,49.767,36.611,49.799,36.443z"/>
		<path fill-rule="evenodd" clip-rule="evenodd" fill="#FFFFFF" d="M75.444,77.738c1.696,0,3.392,0.019,5.088-0.023
			c0.207-0.003,0.476-0.288,0.599-0.51c0.842-1.532,2.474-2.418,4.122-2.196c1.828,0.251,3.178,1.479,3.564,3.253
			c0.433,1.987-0.671,3.991-2.595,4.708c-1.92,0.714-4.083-0.069-5.018-1.893c-0.251-0.489-0.524-0.608-1.029-0.605
			c-4.084,0.018-8.172,0.009-12.258,0.009c-0.296,0-0.592,0-0.959,0c0,1.295,0,2.514,0,3.734c-0.002,1.304-0.483,1.781-1.797,1.783
			c-3.396,0.004-6.796,0.004-10.192,0c-1.31-0.002-1.79-0.477-1.794-1.781c-0.005-1.205-0.002-2.408-0.002-3.694
			c-0.248-0.015-0.472-0.039-0.697-0.039c-4.28-0.003-8.56,0.003-12.84-0.009c-0.365,0-0.557,0.096-0.732,0.44
			c-0.953,1.893-2.984,2.747-4.938,2.126c-1.855-0.59-3.083-2.486-2.849-4.402c0.249-2.027,1.892-3.59,3.962-3.653
			c1.724-0.051,3.015,0.757,3.812,2.283c0.188,0.362,0.379,0.485,0.78,0.482c1.673-0.024,3.346-0.013,5.161-0.013
			c-0.21-0.161-0.306-0.257-0.42-0.326c-7.299-4.408-11.503-10.845-12.63-19.291c-0.122-0.912-0.139-1.844-0.161-2.765
			c-0.023-0.912,0.559-1.548,1.364-1.551c0.777-0.006,1.351,0.588,1.367,1.479c0.079,4.307,1.147,8.335,3.455,11.988
			c3.518,5.569,8.522,9.033,14.977,10.388c0.104,0.025,0.209,0.037,0.391,0.061c0-1.248,0-2.469,0-3.688
			c0-1.354,0.461-1.812,1.823-1.812c3.291,0,6.581,0,9.872,0c1.728,0,2.089,0.36,2.089,2.063c0.002,1.137,0,2.271,0,3.452
			c3.171-0.576,6.039-1.694,8.614-3.479c6.49-4.489,9.857-10.713,10.189-18.592c0.052-1.241,0.52-1.869,1.395-1.859
			c0.908,0.009,1.414,0.675,1.355,1.943c-0.425,9.372-4.62,16.556-12.576,21.534c-0.176,0.11-0.354,0.222-0.532,0.33
			C75.419,77.658,75.431,77.697,75.444,77.738z"/>
		<path fill-rule="evenodd" clip-rule="evenodd" fill="#FFFFFF" d="M60.093,43.32c-0.935-0.009-1.41-0.438-1.395-1.245
			c0.017-0.744,0.637-1.35,1.374-1.344c0.764,0.006,1.383,0.65,1.36,1.418C61.407,42.921,60.939,43.332,60.093,43.32z"/>
	</g>
</g>
</svg>
