<?xml version="1.0" encoding="utf-8"?>
<!-- Generator: Adobe Illustrator 16.0.0, SVG Export Plug-In . SVG Version: 6.00 Build 0)  -->
<!DOCTYPE svg PUBLIC "-//W3C//DTD SVG 1.1//EN" "http://www.w3.org/Graphics/SVG/1.1/DTD/svg11.dtd">
<svg version="1.1" id="Layer_1" xmlns="http://www.w3.org/2000/svg" xmlns:xlink="http://www.w3.org/1999/xlink" x="0px" y="0px"
	 width="120px" height="120px" viewBox="0 0 120 120" enable-background="new 0 0 120 120" xml:space="preserve">
<g>
	<linearGradient id="SVGID_1_" gradientUnits="userSpaceOnUse" x1="60" y1="8.6753" x2="60" y2="110.253">
		<stop  offset="0" style="stop-color:#CCCCCC"/>
		<stop  offset="0.9129" style="stop-color:#FBFCFC"/>
	</linearGradient>
	
		<circle fill-rule="evenodd" clip-rule="evenodd" fill="url(#SVGID_1_)" stroke="#CCCCCC" stroke-width="0.6891" stroke-miterlimit="10" cx="60" cy="59.834" r="50.501"/>
	<g>
		<path fill-rule="evenodd" clip-rule="evenodd" fill="#BF1F3A" d="M49.799,36.442c-0.636,0-1.233,0.002-1.832-0.002
			c-1.05-0.009-1.657-0.522-1.655-1.386c0.003-0.862,0.615-1.382,1.663-1.384c6.516-0.002,13.03-0.002,19.547-0.002
			c1.569,0,3.14,0,4.709,0c0.678,0,1.227,0.221,1.5,0.89c0.37,0.902-0.271,1.817-1.315,1.883c-0.342,0.021-0.687,0.004-1.031,0.007
			c-0.34,0-0.679,0-1.079,0c0.639,2.53,1.258,4.981,1.88,7.435c0.514,2.041,1.06,4.073,1.522,6.125
			c0.097,0.431,0.034,1.027-0.199,1.386c-3.915,6.043-7.865,12.06-11.809,18.083c-0.044,0.067-0.103,0.126-0.227,0.275
			c-0.019-0.255-0.04-0.413-0.04-0.569c-0.001-7.505,0.002-15.012-0.01-22.515c0-0.457,0.097-0.71,0.544-0.937
			c1.72-0.862,2.57-2.793,2.104-4.616c-0.467-1.831-2.069-3.101-3.943-3.122c-1.923-0.023-3.546,1.202-4.054,3.057
			c-0.493,1.82,0.314,3.758,2.031,4.644c0.491,0.256,0.604,0.536,0.602,1.035c-0.014,7.463-0.009,14.923-0.009,22.386
			c0,0.168,0,0.336,0,0.652c-0.185-0.224-0.298-0.335-0.38-0.461c-3.886-5.933-7.768-11.867-11.66-17.794
			c-0.333-0.508-0.393-1.002-0.243-1.586c1.116-4.369,2.212-8.742,3.314-13.113C49.754,36.712,49.768,36.61,49.799,36.442z"/>
		<path fill-rule="evenodd" clip-rule="evenodd" fill="#BF1F3A" d="M75.445,77.74c1.696,0,3.391,0.017,5.088-0.025
			c0.207-0.004,0.475-0.288,0.601-0.51c0.84-1.531,2.472-2.419,4.12-2.194c1.828,0.249,3.178,1.479,3.563,3.251
			c0.433,1.985-0.671,3.992-2.594,4.707c-1.92,0.716-4.083-0.067-5.018-1.892c-0.25-0.489-0.524-0.608-1.029-0.605
			c-4.085,0.019-8.172,0.009-12.258,0.009c-0.296,0-0.592,0-0.959,0c0,1.295,0,2.514,0,3.732c-0.002,1.305-0.483,1.785-1.798,1.787
			c-3.396,0.002-6.794,0.002-10.192,0c-1.31-0.002-1.789-0.479-1.794-1.785c-0.005-1.203-0.001-2.406-0.001-3.692
			c-0.249-0.014-0.473-0.04-0.7-0.04c-4.28-0.002-8.559,0.003-12.839-0.007c-0.365-0.002-0.557,0.093-0.733,0.441
			c-0.952,1.889-2.983,2.747-4.939,2.124c-1.854-0.59-3.081-2.486-2.848-4.403c0.248-2.027,1.892-3.59,3.961-3.65
			c1.725-0.052,3.016,0.754,3.813,2.283c0.189,0.36,0.379,0.484,0.78,0.479c1.672-0.023,3.347-0.01,5.162-0.01
			c-0.211-0.165-0.307-0.261-0.419-0.328c-7.299-4.408-11.504-10.846-12.63-19.29c-0.123-0.913-0.138-1.845-0.162-2.768
			c-0.022-0.911,0.56-1.547,1.364-1.549c0.779-0.004,1.351,0.587,1.368,1.479c0.08,4.306,1.147,8.334,3.455,11.986
			c3.519,5.57,8.523,9.035,14.978,10.392c0.103,0.023,0.208,0.035,0.391,0.061c0-1.25,0-2.469,0-3.689
			c0-1.353,0.461-1.813,1.823-1.813c3.291,0,6.581,0,9.872,0c1.728,0,2.089,0.359,2.089,2.064c0.001,1.135,0,2.27,0,3.451
			c3.171-0.576,6.039-1.694,8.615-3.479c6.49-4.49,9.857-10.715,10.19-18.594c0.05-1.241,0.52-1.868,1.394-1.859
			c0.907,0.009,1.414,0.673,1.356,1.943c-0.427,9.373-4.621,16.554-12.576,21.536c-0.177,0.111-0.355,0.221-0.533,0.331
			C75.417,77.656,75.432,77.699,75.445,77.74z"/>
		<path fill-rule="evenodd" clip-rule="evenodd" fill="#BF1F3A" d="M60.091,43.32c-0.934-0.01-1.409-0.438-1.393-1.247
			c0.019-0.741,0.636-1.347,1.372-1.342c0.766,0.005,1.385,0.65,1.362,1.417C61.407,42.921,60.939,43.329,60.091,43.32z"/>
	</g>
</g>
</svg>
