<?xml version="1.0" encoding="utf-8"?>
<!-- Generator: Adobe Illustrator 16.0.0, SVG Export Plug-In . SVG Version: 6.00 Build 0)  -->
<!DOCTYPE svg PUBLIC "-//W3C//DTD SVG 1.1//EN" "http://www.w3.org/Graphics/SVG/1.1/DTD/svg11.dtd">
<svg version="1.1" id="Layer_1" xmlns="http://www.w3.org/2000/svg" xmlns:xlink="http://www.w3.org/1999/xlink" x="0px" y="0px"
	 width="120px" height="120px" viewBox="0 0 120 120" enable-background="new 0 0 120 120" xml:space="preserve">
<g>
	<linearGradient id="SVGID_1_" gradientUnits="userSpaceOnUse" x1="-1703.2588" y1="1675.0679" x2="-1703.2588" y2="1577.5614">
		<stop  offset="0.0871" style="stop-color:#FBFCFC"/>
		<stop  offset="1" style="stop-color:#CCCCCC"/>
	</linearGradient>
	
		<circle fill-rule="evenodd" clip-rule="evenodd" fill="url(#SVGID_1_)" stroke="#CCCCCC" stroke-width="0.6891" stroke-miterlimit="10" cx="-1703.259" cy="1618.886" r="42.333"/>
	<g>
		<path fill-rule="evenodd" clip-rule="evenodd" fill="#BF1F3A" d="M-1727.252,1616.455c1.09-0.188,2.184-0.377,3.275-0.561
			c0.978-0.16,1.955-0.303,2.928-0.482c0.121-0.021,0.27-0.205,0.306-0.34c0.351-1.279,0.819-2.508,1.499-3.65
			c0.154-0.26,0.203-0.441-0.029-0.762c-1.199-1.645-2.337-3.332-3.522-5.045c0.789-0.789,1.588-1.586,2.386-2.385
			c0.439-0.438,0.893-0.863,1.311-1.32c0.199-0.215,0.376-0.186,0.563-0.051c1.57,1.125,3.14,2.252,4.703,3.387
			c0.195,0.145,0.353,0.248,0.605,0.111c1.242-0.684,2.525-1.264,3.916-1.582c0.092-0.021,0.193-0.186,0.212-0.295
			c0.319-1.857,0.679-3.711,0.903-5.582c0.072-0.611,0.29-0.643,0.764-0.637c1.627,0.02,3.257,0.008,4.939,0.008
			c0.385,2.172,0.766,4.334,1.12,6.34c1.526,0.637,2.948,1.23,4.442,1.854c1.594-1.152,3.292-2.385,5.007-3.596
			c0.116-0.082,0.433-0.055,0.536,0.045c1.169,1.133,2.32,2.285,3.456,3.455c0.097,0.102,0.115,0.414,0.032,0.535
			c-1.133,1.656-2.283,3.301-3.444,4.936c-0.142,0.199-0.11,0.297-0.017,0.514c0.541,1.236,1.027,2.494,1.552,3.736
			c0.06,0.143,0.239,0.303,0.386,0.328c1.449,0.268,2.904,0.51,4.359,0.75c0.48,0.078,0.965,0.135,1.449,0.193
			c0.228,0.027,0.42,0.055,0.414,0.363c-0.011,0.854-0.004,1.705-0.004,2.586c-4.936,0-9.846,0-14.795,0
			c0.032-2.051-0.758-3.789-2.164-5.213c-1.424-1.443-3.242-2.186-5.248-2.086c-4.178,0.211-6.622,3.209-7.031,6.355
			c-0.559,4.279,2.78,8.139,7.236,8.186c0,4.896,0,9.795,0,14.764c-0.898,0-1.806,0.01-2.715-0.014
			c-0.082-0.002-0.21-0.207-0.231-0.33c-0.323-1.936-0.624-3.875-0.954-5.809c-0.024-0.148-0.198-0.33-0.346-0.389
			c-0.871-0.35-1.762-0.648-2.633-1.002c-0.489-0.199-0.949-0.471-1.432-0.713c-1.695,1.191-3.396,2.393-5.111,3.574
			c-0.115,0.08-0.412,0.072-0.506-0.02c-1.188-1.158-2.363-2.332-3.52-3.521c-0.087-0.086-0.1-0.365-0.025-0.471
			c1.115-1.578,2.25-3.143,3.384-4.705c0.183-0.252,0.233-0.459,0.06-0.766c-0.662-1.18-1.213-2.408-1.52-3.736
			c-0.023-0.105-0.194-0.225-0.314-0.25c-1.162-0.229-2.326-0.443-3.491-0.656c-0.896-0.16-1.795-0.311-2.69-0.467
			C-1727.252,1620.179-1727.252,1618.316-1727.252,1616.455z"/>
		<path fill-rule="evenodd" clip-rule="evenodd" fill="#BF1F3A" d="M-1679.572,1644.931c-7.371,0-14.691,0-22.07,0
			c0-0.176,0-0.34,0-0.506c0-6.486-0.002-12.973,0-19.461c0-1.277,0.813-2.084,2.096-2.084c5.991-0.002,11.981,0.01,17.973-0.012
			c1.15-0.004,2.026,0.871,2.021,1.992c-0.038,6.486-0.02,12.973-0.02,19.461
			C-1679.572,1644.507-1679.572,1644.693-1679.572,1644.931z M-1697.793,1628.488c0,4.26,0,8.486,0,12.701c4.848,0,9.664,0,14.473,0
			c0-4.252,0-8.467,0-12.701C-1688.149,1628.488-1692.954,1628.488-1697.793,1628.488z"/>
		<path fill-rule="evenodd" clip-rule="evenodd" fill="#BF1F3A" d="M-1692.445,1632.078c0.699-0.703,1.349-1.346,1.988-1.994
			c0.445-0.453,0.976-0.654,1.58-0.436c0.959,0.346,1.175,1.451,0.42,2.244c-0.963,1.012-1.957,1.992-2.961,2.965
			c-0.551,0.533-1.215,0.596-1.813,0.088c-0.648-0.551-1.26-1.172-1.786-1.842c-0.442-0.564-0.276-1.256,0.252-1.691
			c0.567-0.467,1.177-0.426,1.765,0.07C-1692.811,1631.64-1692.662,1631.843-1692.445,1632.078z"/>
		<path fill-rule="evenodd" clip-rule="evenodd" fill="#BF1F3A" d="M-1692.456,1637.605c0.73-0.74,1.366-1.396,2.017-2.039
			c0.4-0.396,0.869-0.588,1.451-0.455c1.039,0.238,1.279,1.5,0.553,2.256c-1.01,1.049-2.025,2.096-3.098,3.08
			c-0.482,0.439-1.078,0.557-1.863-0.094c-0.576-0.479-1.094-1.045-1.563-1.631c-0.487-0.613-0.366-1.314,0.21-1.832
			c0.471-0.422,1.224-0.4,1.768,0.102C-1692.803,1637.158-1692.662,1637.365-1692.456,1637.605z"/>
	</g>
</g>
<g>
	<linearGradient id="SVGID_2_" gradientUnits="userSpaceOnUse" x1="60" y1="126.856" x2="60" y2="10.5389">
		<stop  offset="0.0871" style="stop-color:#FBFCFC"/>
		<stop  offset="1" style="stop-color:#CCCCCC"/>
	</linearGradient>
	
		<circle fill-rule="evenodd" clip-rule="evenodd" fill="url(#SVGID_2_)" stroke="#CCCCCC" stroke-width="0.6891" stroke-miterlimit="10" cx="60" cy="59.834" r="50.499"/>
	<g>
		<path fill-rule="evenodd" clip-rule="evenodd" fill="#BF1F3A" d="M31.378,56.933c1.3-0.224,2.605-0.449,3.907-0.667
			c1.166-0.192,2.332-0.361,3.492-0.575c0.145-0.027,0.322-0.246,0.365-0.407c0.417-1.526,0.977-2.991,1.788-4.354
			c0.184-0.31,0.242-0.525-0.035-0.908c-1.431-1.961-2.788-3.976-4.202-6.019c0.941-0.94,1.895-1.892,2.846-2.843
			c0.524-0.523,1.065-1.032,1.563-1.577c0.237-0.255,0.448-0.22,0.67-0.061c1.874,1.342,3.746,2.687,5.611,4.042
			c0.233,0.172,0.421,0.296,0.722,0.131c1.482-0.814,3.013-1.506,4.671-1.887c0.109-0.025,0.231-0.22,0.253-0.351
			c0.381-2.217,0.81-4.428,1.078-6.659c0.086-0.729,0.346-0.767,0.911-0.76c1.941,0.022,3.885,0.008,5.893,0.008
			c0.459,2.591,0.913,5.17,1.336,7.563c1.821,0.759,3.517,1.468,5.299,2.21c1.902-1.373,3.927-2.844,5.973-4.288
			c0.139-0.098,0.516-0.066,0.64,0.052c1.394,1.353,2.768,2.727,4.123,4.122c0.116,0.121,0.137,0.495,0.039,0.64
			c-1.352,1.976-2.724,3.936-4.108,5.888c-0.169,0.237-0.132,0.354-0.021,0.612c0.646,1.474,1.226,2.976,1.852,4.456
			c0.071,0.17,0.285,0.361,0.46,0.393c1.729,0.318,3.464,0.606,5.2,0.894c0.573,0.093,1.151,0.161,1.729,0.23
			c0.271,0.032,0.5,0.066,0.494,0.434c-0.013,1.018-0.004,2.034-0.004,3.084c-5.888,0-11.745,0-17.649,0
			c0.038-2.446-0.904-4.521-2.582-6.219c-1.699-1.72-3.868-2.607-6.261-2.488c-4.983,0.252-7.899,3.828-8.387,7.582
			c-0.667,5.105,3.316,9.709,8.632,9.765c0,5.843,0,11.685,0,17.612c-1.072,0-2.154,0.012-3.238-0.016
			c-0.098-0.003-0.25-0.247-0.276-0.395c-0.386-2.309-0.744-4.622-1.138-6.929c-0.029-0.177-0.236-0.394-0.413-0.464
			c-1.039-0.416-2.102-0.773-3.14-1.195c-0.584-0.237-1.133-0.562-1.708-0.851c-2.022,1.422-4.051,2.854-6.097,4.264
			c-0.138,0.096-0.492,0.086-0.604-0.023c-1.418-1.382-2.819-2.781-4.198-4.2c-0.104-0.103-0.12-0.437-0.031-0.562
			c1.331-1.883,2.684-3.749,4.037-5.613c0.217-0.301,0.278-0.548,0.071-0.913c-0.79-1.408-1.447-2.874-1.813-4.458
			c-0.028-0.125-0.232-0.268-0.375-0.298c-1.386-0.272-2.775-0.529-4.165-0.783c-1.068-0.191-2.142-0.37-3.209-0.557
			C31.378,61.377,31.378,59.154,31.378,56.933z"/>
		<path fill-rule="evenodd" clip-rule="evenodd" fill="#BF1F3A" d="M88.256,90.905c-8.793,0-17.525,0-26.328,0
			c0-0.21,0-0.406,0-0.604c0-7.737-0.003-15.476,0-23.216c0-1.523,0.969-2.486,2.5-2.486c7.147-0.002,14.293,0.012,21.44-0.014
			c1.373-0.005,2.417,1.039,2.411,2.376c-0.045,7.739-0.023,15.476-0.023,23.216C88.256,90.399,88.256,90.621,88.256,90.905z
			 M66.521,71.29c0,5.081,0,10.123,0,15.15c5.783,0,11.528,0,17.264,0c0-5.071,0-10.1,0-15.15
			C78.024,71.29,72.292,71.29,66.521,71.29z"/>
		<path fill-rule="evenodd" clip-rule="evenodd" fill="#BF1F3A" d="M72.899,75.572c0.834-0.84,1.609-1.605,2.372-2.379
			c0.531-0.541,1.164-0.781,1.885-0.521c1.144,0.413,1.401,1.731,0.501,2.677c-1.148,1.207-2.334,2.377-3.532,3.537
			c-0.657,0.637-1.449,0.711-2.162,0.105c-0.773-0.656-1.502-1.398-2.131-2.197c-0.528-0.673-0.329-1.498,0.301-2.018
			c0.676-0.557,1.403-0.508,2.105,0.084C72.464,75.049,72.641,75.292,72.899,75.572z"/>
		<path fill-rule="evenodd" clip-rule="evenodd" fill="#BF1F3A" d="M72.887,82.165c0.872-0.882,1.63-1.666,2.406-2.432
			c0.478-0.473,1.037-0.702,1.73-0.543c1.24,0.284,1.526,1.789,0.66,2.69c-1.205,1.252-2.416,2.5-3.695,3.675
			c-0.576,0.524-1.287,0.664-2.223-0.112c-0.687-0.57-1.304-1.246-1.865-1.945c-0.581-0.731-0.437-1.568,0.25-2.186
			c0.562-0.503,1.459-0.478,2.108,0.121C72.473,81.631,72.641,81.878,72.887,82.165z"/>
	</g>
</g>
</svg>
