<?xml version="1.0" encoding="utf-8"?>
<!-- Generator: Adobe Illustrator 16.0.0, SVG Export Plug-In . SVG Version: 6.00 Build 0)  -->
<!DOCTYPE svg PUBLIC "-//W3C//DTD SVG 1.1//EN" "http://www.w3.org/Graphics/SVG/1.1/DTD/svg11.dtd">
<svg version="1.1" id="Layer_1" xmlns="http://www.w3.org/2000/svg" xmlns:xlink="http://www.w3.org/1999/xlink" x="0px" y="0px"
	 width="120px" height="120px" viewBox="0 0 120 120" enable-background="new 0 0 120 120" xml:space="preserve">
<path fill-rule="evenodd" clip-rule="evenodd" fill="#FFFFFF" d="M38.012,44.167c17.464-3.31,30.819-12.212,40.063-26.824
	c1.257-2.394,3.088-4.453,5.596-5.82c6.963-3.995,15.863-1.708,19.857,5.252c3.998,6.96,1.712,15.863-5.249,19.972
	c-2.514,1.371-5.251,2.059-7.99,1.825v0.12c-16.438,0.91-29.907,7.416-40.751,18.602c-1.595-1.825-3.08-3.881-4.563-5.937
	C43.38,48.39,40.98,45.88,38.012,44.167L38.012,44.167z M16.441,52.612c3.993-6.96,12.895-9.357,19.858-5.362
	c2.514,1.371,4.453,3.534,5.707,5.821C54.335,70.873,70.429,80.233,90.29,81.03c2.739-0.114,5.477,0.46,7.99,1.944
	c6.96,3.995,9.247,12.897,5.249,19.861c-3.994,6.961-12.894,9.357-19.857,5.365c-2.508-1.49-4.339-3.543-5.596-5.938l0,0
	c-11.3-17.122-27.734-26.025-48.394-27.851l0,0c-2.622,0.117-5.363-0.568-7.874-1.941C14.847,68.362,12.443,59.459,16.441,52.612
	L16.441,52.612z M23.974,56.952c1.598-2.854,5.249-3.771,7.99-2.173c2.741,1.602,3.768,5.136,2.167,7.99
	c-1.598,2.741-5.249,3.654-7.986,2.059C23.402,63.224,22.379,59.687,23.974,56.952L23.974,56.952z M85.954,27.048
	c-1.601-2.855-0.691-6.396,2.053-7.993c2.855-1.592,6.395-0.683,7.99,2.169c1.595,2.739,0.679,6.282-2.169,7.874
	C91.089,30.702,87.549,29.783,85.954,27.048L85.954,27.048z M85.954,92.676c1.595-2.855,5.135-3.769,7.874-2.167
	c2.849,1.596,3.765,5.136,2.169,7.99c-1.595,2.734-5.135,3.764-7.99,2.166C85.263,98.954,84.353,95.417,85.954,92.676L85.954,92.676
	z M26.257,58.208c0.916-1.598,2.852-2.169,4.452-1.257c1.599,0.913,2.053,2.963,1.14,4.566c-0.913,1.481-2.854,2.053-4.45,1.137
	C25.805,61.746,25.345,59.801,26.257,58.208L26.257,58.208z M88.118,25.674c-0.91-1.481-0.341-3.537,1.143-4.45
	c1.602-0.913,3.651-0.344,4.567,1.26c0.916,1.592,0.338,3.538-1.257,4.45C90.972,27.844,89.03,27.276,88.118,25.674L88.118,25.674z
	 M88.118,93.929c0.913-1.594,2.854-2.056,4.452-1.141c1.595,0.797,2.173,2.856,1.257,4.454c-0.916,1.483-2.965,2.053-4.567,1.143
	C87.776,97.47,87.208,95.531,88.118,93.929L88.118,93.929z"/>
</svg>
