<?xml version="1.0" encoding="utf-8"?>
<!-- Generator: Adobe Illustrator 16.0.0, SVG Export Plug-In . SVG Version: 6.00 Build 0)  -->
<!DOCTYPE svg PUBLIC "-//W3C//DTD SVG 1.1//EN" "http://www.w3.org/Graphics/SVG/1.1/DTD/svg11.dtd">
<svg version="1.1" id="Layer_1" xmlns="http://www.w3.org/2000/svg" xmlns:xlink="http://www.w3.org/1999/xlink" x="0px" y="0px"
	 width="120px" height="120px" viewBox="0 0 120 120" enable-background="new 0 0 120 120" xml:space="preserve">
<g>
	<path fill="#BF1F3A" d="M110.501,94.232c0,8.896-7.209,16.102-16.103,16.102h-68.8c-8.891,0-16.1-7.205-16.1-16.102V25.434
		c0-8.891,7.209-16.101,16.1-16.101h68.8c8.894,0,16.103,7.21,16.103,16.101V94.232z"/>
	<path fill="#FFFFFF" d="M60,22.133c-8.424,0-38.403,4.405-38.403,42.308l4.815-6.813l7.015,10.229v19.643l7.021,6.016V66.848
		l8.524-8.52l7.922,7.917v31.287H60h3.111V66.245l7.922-7.917l8.519,8.52v26.666l7.023-6.016V67.855l7.021-10.229L98.4,64.44
		C98.4,26.538,68.424,22.133,60,22.133z"/>
</g>
</svg>
