<?xml version="1.0" encoding="utf-8"?>
<!-- Generator: Adobe Illustrator 16.0.0, SVG Export Plug-In . SVG Version: 6.00 Build 0)  -->
<!DOCTYPE svg PUBLIC "-//W3C//DTD SVG 1.1//EN" "http://www.w3.org/Graphics/SVG/1.1/DTD/svg11.dtd">
<svg version="1.1" id="Layer_1" xmlns="http://www.w3.org/2000/svg" xmlns:xlink="http://www.w3.org/1999/xlink" x="0px" y="0px"
	 width="120px" height="120px" viewBox="0 0 120 120" enable-background="new 0 0 120 120" xml:space="preserve">
<g>
	<g>
		<circle fill="#BF1F3A" cx="60" cy="59.834" r="50.501"/>
	</g>
	<g>
		<path fill-rule="evenodd" clip-rule="evenodd" fill="#FFFFFF" d="M75.795,62.997c0.269,3.861,0.53,7.72,0.811,11.578
			c0.301,4.133,0.594,8.268,0.954,12.395c0.113,1.3-0.44,1.872-1.647,1.88c-4.582,0.02-9.166,0.02-13.748,0.004
			c-1.16-0.002-1.752-0.48-1.747-1.813c0.044-11.889,0.02-23.78,0.037-35.67c0.002-2.132,0.933-3.231,3.08-2.962
			c2.476,0.313,4.997,0.878,7.3,1.819c6.947,2.835,13.07,6.979,18.358,12.326c0.175,0.177,0.35,0.354,0.516,0.538
			c1.878,2.072,1.878,2.46-0.002,4.56c-0.165,0.187-0.338,0.364-0.506,0.545c-2.952,3.194-2.966,3.213-6.39,0.405
			c-2.247-1.842-4.445-3.746-6.669-5.615C76.106,62.955,76.022,62.987,75.795,62.997z"/>
		<path fill-rule="evenodd" clip-rule="evenodd" fill="#FFFFFF" d="M42.892,62.521c-3.104,2.653-5.864,5.02-8.633,7.374
			c-1.837,1.566-1.848,1.564-3.444-0.301c-1.193-1.394-2.368-2.803-3.577-4.238c3.941-5.174,8.788-8.916,14.197-11.809
			c3.777-2.019,7.825-3.642,11.913-4.925c3.458-1.086,4.847,0.264,4.849,3.82c0.003,11.33-0.041,22.662,0.044,33.992
			c0.015,1.816-0.602,2.435-2.31,2.419c-4.148-0.039-8.297,0.014-12.445-0.023c-2.266-0.021-2.419-0.275-2.249-2.492
			c0.566-7.343,1.107-14.69,1.65-22.034C42.919,63.877,42.892,63.445,42.892,62.521z"/>
		<path fill-rule="evenodd" clip-rule="evenodd" fill="#FFFFFF" d="M67.828,31.216c4.104,0,7.488,3.388,7.427,7.43
			c-0.061,4.065-3.495,7.549-7.438,7.542c-4.002-0.005-7.354-3.436-7.371-7.542C60.432,34.493,63.689,31.214,67.828,31.216z"/>
		<path fill-rule="evenodd" clip-rule="evenodd" fill="#FFFFFF" d="M50.847,31.226c3.966,0.004,7.313,3.343,7.339,7.329
			c0.028,4.055-3.379,7.572-7.338,7.58c-3.979,0.007-7.355-3.496-7.313-7.584C43.577,34.498,46.849,31.221,50.847,31.226z"/>
	</g>
</g>
</svg>
