<?xml version="1.0" encoding="utf-8"?>
<!-- Generator: Adobe Illustrator 16.0.0, SVG Export Plug-In . SVG Version: 6.00 Build 0)  -->
<!DOCTYPE svg PUBLIC "-//W3C//DTD SVG 1.1//EN" "http://www.w3.org/Graphics/SVG/1.1/DTD/svg11.dtd">
<svg version="1.1" id="Layer_1" xmlns="http://www.w3.org/2000/svg" xmlns:xlink="http://www.w3.org/1999/xlink" x="0px" y="0px"
	 width="120px" height="120px" viewBox="0 0 120 120" enable-background="new 0 0 120 120" xml:space="preserve">
<g>
	<path fill-rule="evenodd" clip-rule="evenodd" fill="#CCCCCC" d="M10.199,12.911c2.252-2.861,5.238-4.079,8.832-4.079
		c17.218,0.009,34.438,0.009,51.655,0.009c10.1,0,20.195,0,30.289-0.009c2.799,0,5.313,0.72,7.45,2.613
		c1.702,1.501,2.72,3.385,3.235,5.58c0.052,0.222,0.138,0.444,0.204,0.666c0,21.611,0,43.22,0,64.822
		c-0.619,1.546-1.031,3.226-1.91,4.593c-1.77,2.746-4.492,4.07-7.848,4.354c0,1.13,0.019,2.23,0,3.334
		c-0.043,2.398,0.005,4.808-0.181,7.188c-0.352,4.461-4.519,8.371-8.98,8.716c-2.527,0.198-4.771-0.437-6.892-1.767
		c-9.064-5.662-18.122-11.313-27.213-16.938c-0.533-0.328-1.244-0.523-1.866-0.533c-12.796-0.025-25.592-0.009-38.384-0.025
		c-4.31,0-7.482-1.947-9.432-5.794c-0.454-0.915-0.689-1.946-1.023-2.924c0-21.673,0-43.353,0-65.026
		C8.607,16.002,9.092,14.332,10.199,12.911z M18.826,16.43c-1.919-0.009-3.154,1.217-3.154,3.19
		c0.031,20.357,0.018,40.716,0.027,61.072c0,2.202,1.026,3.226,3.216,3.226c13.241,0,26.472,0,39.704-0.019
		c1.127,0,2.096,0.277,3.047,0.871c9.451,5.927,18.928,11.827,28.392,17.727c1.768,1.103,3.247,0.881,4.078-0.657
		c0.223-0.427,0.302-0.96,0.311-1.448c0.036-4.326,0.076-8.646,0.027-12.964c-0.027-2.069,0.884-3.715,3.58-3.528
		c1.139,0.081,2.292,0.037,3.439,0.01c1.653-0.045,2.692-1.059,2.809-2.712c0.018-0.267,0.009-0.541,0.009-0.808
		c0-20.151,0-40.314-0.009-60.468c0-0.667-0.045-1.386-0.298-1.972c-0.48-1.084-1.417-1.502-2.625-1.502
		c-13.81,0.018-27.618,0.018-41.428,0.018C46.24,16.465,32.529,16.483,18.826,16.43z"/>
	<path fill-rule="evenodd" clip-rule="evenodd" fill="#CCCCCC" d="M48.888,51.867c-0.018-6.06,4.99-11.072,11.063-11.082
		c6.154-0.008,11.188,4.995,11.161,11.09c-0.022,6.087-5.017,11.035-11.117,11.035C53.9,62.911,48.907,57.945,48.888,51.867z
		 M60.023,55.369c1.896-0.009,3.438-1.564,3.447-3.483c0.013-1.963-1.563-3.572-3.483-3.555c-1.893,0.018-3.448,1.582-3.461,3.492
		C56.521,53.796,58.085,55.386,60.023,55.369z"/>
	<path fill-rule="evenodd" clip-rule="evenodd" fill="#CCCCCC" d="M22.101,51.858c-0.005-6.176,4.922-11.081,11.125-11.073
		c6.105,0.009,11.006,4.968,10.988,11.108c-0.027,6.14-4.941,11.026-11.077,11.017C26.994,62.901,22.105,57.999,22.101,51.858z
		 M33.062,55.369c1.893,0.063,3.582-1.564,3.622-3.475c0.03-1.875-1.649-3.581-3.538-3.572c-1.853,0.009-3.487,1.625-3.519,3.492
		C29.597,53.671,31.178,55.306,33.062,55.369z"/>
	<path fill-rule="evenodd" clip-rule="evenodd" fill="#CCCCCC" d="M75.795,51.876c-0.018-6.14,4.883-11.081,11.001-11.09
		c6.194-0.008,11.125,4.914,11.108,11.09c-0.014,6.14-4.918,11.044-11.059,11.035C80.709,62.911,75.804,58.016,75.795,51.876z
		 M86.774,55.369c1.892,0.053,3.586-1.591,3.604-3.493c0.018-1.883-1.672-3.572-3.556-3.554c-1.866,0.026-3.483,1.652-3.505,3.509
		C83.304,53.689,84.896,55.324,86.774,55.369z"/>
</g>
</svg>
