<?xml version="1.0" encoding="utf-8"?>
<!-- Generator: Adobe Illustrator 16.0.0, SVG Export Plug-In . SVG Version: 6.00 Build 0)  -->
<!DOCTYPE svg PUBLIC "-//W3C//DTD SVG 1.1//EN" "http://www.w3.org/Graphics/SVG/1.1/DTD/svg11.dtd">
<svg version="1.1" id="Layer_1" xmlns="http://www.w3.org/2000/svg" xmlns:xlink="http://www.w3.org/1999/xlink" x="0px" y="0px"
	 width="120px" height="120px" viewBox="0 0 120 120" enable-background="new 0 0 120 120" xml:space="preserve">
<g>
	<linearGradient id="SVGID_1_" gradientUnits="userSpaceOnUse" x1="-1703.2588" y1="1675.0679" x2="-1703.2588" y2="1577.5614">
		<stop  offset="0.0871" style="stop-color:#FBFCFC"/>
		<stop  offset="1" style="stop-color:#CCCCCC"/>
	</linearGradient>
	
		<circle fill-rule="evenodd" clip-rule="evenodd" fill="url(#SVGID_1_)" stroke="#CCCCCC" stroke-width="0.6891" stroke-miterlimit="10" cx="-1703.259" cy="1618.886" r="42.333"/>
	<g>
		<path fill-rule="evenodd" clip-rule="evenodd" fill="#BF1F3A" d="M-1727.252,1616.455c1.09-0.188,2.184-0.377,3.275-0.561
			c0.978-0.16,1.955-0.303,2.928-0.482c0.121-0.021,0.27-0.205,0.306-0.34c0.351-1.279,0.819-2.508,1.499-3.65
			c0.154-0.26,0.203-0.441-0.029-0.762c-1.199-1.645-2.337-3.332-3.522-5.045c0.789-0.789,1.588-1.586,2.386-2.385
			c0.439-0.438,0.893-0.863,1.311-1.32c0.199-0.215,0.376-0.186,0.563-0.051c1.57,1.125,3.14,2.252,4.703,3.387
			c0.195,0.145,0.353,0.248,0.605,0.111c1.242-0.684,2.525-1.264,3.916-1.582c0.092-0.021,0.193-0.186,0.212-0.295
			c0.319-1.857,0.679-3.711,0.903-5.582c0.072-0.611,0.29-0.643,0.764-0.637c1.627,0.02,3.257,0.008,4.939,0.008
			c0.385,2.172,0.766,4.334,1.12,6.34c1.526,0.637,2.948,1.23,4.442,1.854c1.594-1.152,3.292-2.385,5.007-3.596
			c0.116-0.082,0.433-0.055,0.536,0.045c1.169,1.133,2.32,2.285,3.456,3.455c0.097,0.102,0.115,0.414,0.032,0.535
			c-1.133,1.656-2.283,3.301-3.444,4.936c-0.142,0.199-0.11,0.297-0.017,0.514c0.541,1.236,1.027,2.494,1.552,3.736
			c0.06,0.143,0.239,0.303,0.386,0.328c1.449,0.268,2.904,0.51,4.359,0.75c0.48,0.078,0.965,0.135,1.449,0.193
			c0.228,0.027,0.42,0.055,0.414,0.363c-0.011,0.854-0.004,1.705-0.004,2.586c-4.936,0-9.846,0-14.795,0
			c0.032-2.051-0.758-3.789-2.164-5.213c-1.424-1.443-3.242-2.186-5.248-2.086c-4.178,0.211-6.622,3.209-7.031,6.355
			c-0.559,4.279,2.78,8.139,7.236,8.186c0,4.896,0,9.795,0,14.764c-0.898,0-1.806,0.01-2.715-0.014
			c-0.082-0.002-0.21-0.207-0.231-0.33c-0.323-1.936-0.624-3.875-0.954-5.809c-0.024-0.148-0.198-0.33-0.346-0.389
			c-0.871-0.35-1.762-0.648-2.633-1.002c-0.489-0.199-0.949-0.471-1.432-0.713c-1.695,1.191-3.396,2.393-5.111,3.574
			c-0.115,0.08-0.412,0.072-0.506-0.02c-1.188-1.158-2.363-2.332-3.52-3.521c-0.087-0.086-0.1-0.365-0.025-0.471
			c1.115-1.578,2.25-3.143,3.384-4.705c0.183-0.252,0.233-0.459,0.06-0.766c-0.662-1.18-1.213-2.408-1.52-3.736
			c-0.023-0.105-0.194-0.225-0.314-0.25c-1.162-0.229-2.326-0.443-3.491-0.656c-0.896-0.16-1.795-0.311-2.69-0.467
			C-1727.252,1620.179-1727.252,1618.316-1727.252,1616.455z"/>
		<path fill-rule="evenodd" clip-rule="evenodd" fill="#BF1F3A" d="M-1679.572,1644.931c-7.371,0-14.691,0-22.07,0
			c0-0.176,0-0.34,0-0.506c0-6.486-0.002-12.973,0-19.461c0-1.277,0.813-2.084,2.096-2.084c5.991-0.002,11.981,0.01,17.973-0.012
			c1.15-0.004,2.026,0.871,2.021,1.992c-0.038,6.486-0.02,12.973-0.02,19.461
			C-1679.572,1644.507-1679.572,1644.693-1679.572,1644.931z M-1697.793,1628.488c0,4.26,0,8.486,0,12.701c4.848,0,9.664,0,14.473,0
			c0-4.252,0-8.467,0-12.701C-1688.149,1628.488-1692.954,1628.488-1697.793,1628.488z"/>
		<path fill-rule="evenodd" clip-rule="evenodd" fill="#BF1F3A" d="M-1692.445,1632.078c0.699-0.703,1.349-1.346,1.988-1.994
			c0.445-0.453,0.976-0.654,1.58-0.436c0.959,0.346,1.175,1.451,0.42,2.244c-0.963,1.012-1.957,1.992-2.961,2.965
			c-0.551,0.533-1.215,0.596-1.813,0.088c-0.648-0.551-1.26-1.172-1.786-1.842c-0.442-0.564-0.276-1.256,0.252-1.691
			c0.567-0.467,1.177-0.426,1.765,0.07C-1692.811,1631.64-1692.662,1631.843-1692.445,1632.078z"/>
		<path fill-rule="evenodd" clip-rule="evenodd" fill="#BF1F3A" d="M-1692.456,1637.605c0.73-0.74,1.366-1.396,2.017-2.039
			c0.4-0.396,0.869-0.588,1.451-0.455c1.039,0.238,1.279,1.5,0.553,2.256c-1.01,1.049-2.025,2.096-3.098,3.08
			c-0.482,0.439-1.078,0.557-1.863-0.094c-0.576-0.479-1.094-1.045-1.563-1.631c-0.487-0.613-0.366-1.314,0.21-1.832
			c0.471-0.422,1.224-0.4,1.768,0.102C-1692.803,1637.158-1692.662,1637.365-1692.456,1637.605z"/>
	</g>
</g>
<g>
	<linearGradient id="SVGID_2_" gradientUnits="userSpaceOnUse" x1="60.0005" y1="121.5757" x2="60.0005" y2="5.2586">
		<stop  offset="0.0871" style="stop-color:#FBFCFC"/>
		<stop  offset="1" style="stop-color:#CCCCCC"/>
	</linearGradient>
	
		<circle fill-rule="evenodd" clip-rule="evenodd" fill="url(#SVGID_2_)" stroke="#CCCCCC" stroke-width="0.6891" stroke-miterlimit="10" cx="60" cy="59.834" r="50.501"/>
	<g>
		<path fill-rule="evenodd" clip-rule="evenodd" fill="#BF1F3A" d="M72.463,78.324c1.274-0.21,2.432-0.401,3.616-0.6
			c0.012,0.035,0.054,0.098,0.054,0.163c0.003,3.302,0.081,6.604-0.019,9.901c-0.107,3.521-3.253,6.49-6.917,6.51
			c-8.11,0.053-16.223,0.055-24.336,0.006c-4.026-0.025-7.064-3.157-7.066-7.172c-0.012-17.172-0.012-34.341,0-51.51
			c0.002-4.146,3.08-7.233,7.232-7.245c8.01-0.024,16.018-0.024,24.027,0c3.983,0.012,7.053,3.083,7.099,7.049
			c0.027,2.351,0.004,4.701,0.004,7.041c-1.219,0-2.379,0-3.679,0c0-0.718,0-1.368,0-2.021c-0.002-1.843-0.601-2.458-2.416-2.458
			c-8.751,0-17.502,0-26.253,0c-1.659,0-2.32,0.655-2.32,2.33c-0.005,12.947-0.001,25.894,0,38.842c0,1.103-0.007,2.201,0.005,3.301
			c0.015,1.583,0.682,2.252,2.239,2.252c8.855,0,17.707,0,26.563-0.005c1.465,0,2.169-0.703,2.169-2.148
			C72.463,81.156,72.463,79.753,72.463,78.324z M56.645,87.64c-1.1,0-2.199-0.019-3.299,0.007c-1.193,0.028-2.016,0.806-2.025,1.864
			c-0.009,1.051,0.821,1.879,1.997,1.893c2.174,0.029,4.348,0.029,6.521,0.002c1.256-0.016,2.062-0.8,2.055-1.906
			c-0.007-1.09-0.836-1.836-2.104-1.856C58.742,87.628,57.694,87.64,56.645,87.64z"/>
		<path fill-rule="evenodd" clip-rule="evenodd" fill="#BF1F3A" d="M61.65,55.366c-0.513-0.473-1.025-0.899-1.482-1.377
			c-0.763-0.796-0.664-1.598,0.266-2.521c0.895-0.892,1.665-0.972,2.46-0.203c0.474,0.457,0.89,0.979,1.353,1.494
			c1.802-1.295,3.649-2.06,5.67-2.397c0.649-0.11,0.362-0.648,0.354-0.996c-0.002-0.154-0.316-0.324-0.517-0.442
			c-0.093-0.053-0.249-0.007-0.377-0.007c-1.652,0.003-2.141-0.503-2.095-2.164c0.03-1.118,0.592-1.673,1.733-1.678
			c1.892-0.007,3.786-0.007,5.681,0c1.291,0.005,1.752,0.55,1.75,2.032c-0.003,1.249-0.534,1.798-1.746,1.808
			c-0.379,0.002-0.757,0.002-1.195,0.002c0,0.471,0,0.869,0,1.368c2.09,0.371,4.095,1.072,5.966,2.479
			c0.457-0.505,0.86-1,1.31-1.444c0.834-0.823,1.602-0.767,2.52,0.145c0.98,0.974,1.052,1.712,0.226,2.57
			c-0.441,0.459-0.914,0.893-1.231,1.197c0.667,1.662,1.293,3.183,1.882,4.721c0.142,0.375,0.189,0.794,0.242,1.197
			c0.107,0.813,0.352,1.657-0.764,2.079c-0.3,0.112-0.468,0.578-0.722,0.916c-0.614-0.727-1.434-0.962-2.431-0.759
			c0.01-3.211-1.175-5.786-3.794-7.596c-1.987-1.377-4.212-1.808-6.578-1.323c-4.793,0.983-7.764,5.771-6.62,10.517
			c1.078,4.466,6.083,8.039,11.744,5.883c0.184,0.375,0.317,0.795,0.573,1.116c0.261,0.331,0.647,0.563,0.874,0.753
			c-0.229,0.622-0.417,1.265-0.71,1.858c-0.117,0.241-0.436,0.462-0.706,0.531c-4.746,1.197-8.939,0.141-12.418-3.306
			c-4.227-4.183-4.879-10.711-1.684-15.725C61.305,55.897,61.431,55.707,61.65,55.366z"/>
		<path fill-rule="evenodd" clip-rule="evenodd" fill="#BF1F3A" d="M86.938,65.722c-0.141,1.121,0.912,1.866,1.946,1.484
			c0.324-0.119,0.879-0.261,1.023-0.105c0.386,0.413,0.685,0.953,0.846,1.496c0.056,0.184-0.382,0.547-0.636,0.786
			c-0.673,0.638-0.476,1.93,0.368,2.297c0.943,0.408,1.228,1.473,0.534,2.281c-0.176,0.202-0.641,0.233-0.967,0.219
			c-1.123-0.049-1.857,0.958-1.462,2.021c0.115,0.31,0.275,0.836,0.138,0.965c-0.415,0.386-0.943,0.691-1.479,0.882
			c-0.167,0.062-0.543-0.296-0.752-0.528c-0.746-0.806-1.999-0.636-2.421,0.354c-0.373,0.873-1.709,1.148-2.33,0.421
			c-0.186-0.218-0.163-0.666-0.144-1.004c0.051-0.937-0.96-1.737-1.82-1.406c-1.044,0.403-1.871-0.028-2.043-1.152
			c-0.037-0.241,0.222-0.596,0.436-0.798c0.96-0.897,0.806-2.14-0.421-2.568c-1.044-0.363-0.6-1.03-0.518-1.678
			c0.089-0.72,0.503-0.836,1.132-0.774c1.168,0.119,1.917-0.923,1.484-2.008c-0.372-0.932-0.347-0.895,0.652-1.582
			c0.639-0.441,1.025-0.296,1.475,0.261c0.694,0.855,1.969,0.636,2.399-0.371c0.364-0.846,1.71-1.109,2.327-0.408
			C86.89,65.017,86.864,65.415,86.938,65.722z M84.266,75.059c1.955-0.012,3.569-1.643,3.537-3.572
			c-0.033-1.901-1.659-3.516-3.542-3.518c-1.986,0-3.564,1.622-3.543,3.637C80.736,73.542,82.309,75.069,84.266,75.059z"/>
		<path fill-rule="evenodd" clip-rule="evenodd" fill="#BF1F3A" d="M73.227,62.877c-0.03,0.676-0.361,1.142-0.983,1.328
			c-0.629,0.184-1.319,0.007-1.494-0.599c-0.37-1.284-1.456-1.922-2.244-2.824c-0.333-0.384-0.694-0.754-1.085-1.079
			c-0.543-0.452-0.262-0.757,0.108-1.111c0.346-0.333,0.612-0.685,1.108-0.149c0.815,0.878,1.673,1.724,2.544,2.547
			c0.282,0.265,0.648,0.475,1.011,0.61C72.817,61.832,73.15,62.244,73.227,62.877z"/>
	</g>
</g>
</svg>
