<?xml version="1.0" encoding="utf-8"?>
<!-- Generator: Adobe Illustrator 16.0.0, SVG Export Plug-In . SVG Version: 6.00 Build 0)  -->
<!DOCTYPE svg PUBLIC "-//W3C//DTD SVG 1.1//EN" "http://www.w3.org/Graphics/SVG/1.1/DTD/svg11.dtd">
<svg version="1.1" id="Layer_1" xmlns="http://www.w3.org/2000/svg" xmlns:xlink="http://www.w3.org/1999/xlink" x="0px" y="0px"
	 width="873.912px" height="191.826px" viewBox="0 0 873.912 191.826" enable-background="new 0 0 873.912 191.826"
	 xml:space="preserve">
<g>
	<g>
		<path fill="#FFFFFF" d="M196.388,164.132c0-1.995,0.34-4.008,1.051-5.998c0.708-1.998,1.735-3.762,3.096-5.367
			c1.335-1.547,3.003-2.844,4.969-3.822c1.957-0.996,4.193-1.494,6.703-1.494c2.989,0,5.536,0.703,7.624,2.061
			c2.112,1.357,3.682,3.122,4.722,5.255l-1.977,1.126c-0.598-1.158-1.295-2.136-2.102-2.922c-0.79-0.783-1.657-1.42-2.583-1.91
			c-0.925-0.477-1.893-0.838-2.905-1.052c-1.006-0.226-1.995-0.329-2.961-0.329c-2.14,0-4.016,0.438-5.651,1.297
			c-1.636,0.86-3.021,1.973-4.155,3.365c-1.134,1.385-1.973,2.944-2.567,4.684c-0.579,1.739-0.863,3.494-0.863,5.258
			c0,1.987,0.347,3.877,1.03,5.662c0.695,1.769,1.628,3.364,2.825,4.732c1.197,1.361,2.606,2.45,4.239,3.271
			c1.642,0.818,3.388,1.231,5.279,1.231c1.005,0,2.056-0.128,3.113-0.382c1.062-0.265,2.081-0.65,3.063-1.177
			c0.975-0.543,1.886-1.234,2.728-2.053c0.849-0.84,1.559-1.817,2.13-2.951l2.06,0.988c-0.554,1.253-1.323,2.377-2.297,3.354
			c-0.981,0.968-2.059,1.783-3.257,2.444c-1.187,0.668-2.45,1.155-3.793,1.486c-1.322,0.33-2.652,0.501-3.931,0.501
			c-2.293,0-4.385-0.509-6.299-1.507c-1.893-1.002-3.535-2.319-4.917-3.943c-1.381-1.61-2.459-3.462-3.225-5.515
			C196.764,168.378,196.388,166.277,196.388,164.132z"/>
		<path fill="#FFFFFF" d="M240.769,181.581c-1.747,0-3.333-0.343-4.788-1.023c-1.468-0.675-2.728-1.59-3.792-2.76
			c-1.079-1.154-1.907-2.506-2.499-4.048c-0.598-1.523-0.89-3.151-0.89-4.843c0-1.751,0.292-3.365,0.919-4.914
			c0.605-1.528,1.454-2.889,2.512-4.058c1.072-1.142,2.338-2.08,3.799-2.748c1.458-0.679,3.032-1.01,4.74-1.01
			c1.69,0,3.265,0.331,4.697,1.01c1.448,0.668,2.715,1.606,3.801,2.748c1.085,1.169,1.928,2.529,2.543,4.058
			c0.616,1.549,0.922,3.163,0.922,4.914c0,1.691-0.306,3.319-0.922,4.843c-0.616,1.542-1.458,2.894-2.52,4.048
			c-1.067,1.17-2.335,2.085-3.795,2.76C244.033,181.238,242.459,181.581,240.769,181.581z M231.147,168.999
			c0,1.426,0.253,2.803,0.749,4.07c0.514,1.267,1.197,2.38,2.066,3.316c0.849,0.959,1.865,1.688,3.03,2.244
			c1.166,0.549,2.405,0.814,3.72,0.814c1.322,0,2.568-0.266,3.727-0.814c1.167-0.557,2.182-1.308,3.059-2.286
			c0.877-0.968,1.566-2.105,2.081-3.365c0.494-1.266,0.737-2.659,0.737-4.12c0-1.459-0.244-2.804-0.737-4.093
			c-0.515-1.26-1.204-2.373-2.081-3.33c-0.877-0.963-1.893-1.722-3.041-2.272c-1.142-0.584-2.38-0.869-3.689-0.869
			c-1.328,0-2.575,0.285-3.724,0.869c-1.163,0.551-2.174,1.316-3.047,2.294c-0.867,0.979-1.545,2.099-2.071,3.413
			C231.401,166.173,231.147,167.555,231.147,168.999z"/>
		<path fill="#FFFFFF" d="M288.54,156.604h2.348l-10.582,24.49h-1.991l-5.512-12.935l-5.511,12.935h-1.969l-10.618-24.49h2.314
			l9.375,21.908l5.136-12.064l-4.148-9.804h2.026l3.396,8.115l3.341-8.115h2.074l-4.155,9.804l5.143,12.064L288.54,156.604z"/>
		<path fill="#FFFFFF" d="M304.846,181.581c-1.736,0-3.32-0.343-4.775-1.023c-1.482-0.675-2.741-1.59-3.807-2.76
			c-1.071-1.154-1.909-2.506-2.498-4.048c-0.6-1.523-0.892-3.151-0.892-4.843c0-1.751,0.3-3.365,0.919-4.914
			c0.605-1.528,1.454-2.889,2.512-4.058c1.083-1.142,2.339-2.08,3.8-2.748c1.458-0.679,3.041-1.01,4.74-1.01
			c1.687,0,3.257,0.331,4.71,1.01c1.435,0.668,2.707,1.606,3.787,2.748c1.079,1.169,1.931,2.529,2.541,4.058
			c0.62,1.549,0.925,3.163,0.925,4.914c0,1.691-0.306,3.319-0.925,4.843c-0.609,1.542-1.441,2.894-2.509,4.048
			c-1.075,1.17-2.342,2.085-3.807,2.76C308.116,181.238,306.533,181.581,304.846,181.581z M295.234,168.999
			c0,1.426,0.238,2.803,0.752,4.07c0.494,1.267,1.187,2.38,2.046,3.316c0.863,0.959,1.873,1.688,3.042,2.244
			c1.166,0.549,2.401,0.814,3.73,0.814c1.315,0,2.554-0.266,3.724-0.814c1.147-0.557,2.171-1.308,3.047-2.286
			c0.884-0.968,1.566-2.105,2.074-3.365c0.505-1.266,0.754-2.659,0.754-4.12c0-1.459-0.249-2.804-0.754-4.093
			c-0.508-1.26-1.19-2.373-2.074-3.33c-0.876-0.963-1.893-1.722-3.038-2.272c-1.138-0.584-2.376-0.869-3.691-0.869
			c-1.333,0-2.568,0.285-3.731,0.869c-1.155,0.551-2.175,1.316-3.034,2.294c-0.87,0.979-1.555,2.099-2.074,3.413
			C295.481,166.173,295.234,167.555,295.234,168.999z"/>
		<path fill="#FFFFFF" d="M334.054,158.726c-2.192,0.068-4.124,0.703-5.777,1.955c-1.652,1.246-2.797,2.93-3.461,5.109v15.304
			h-2.349v-24.49h2.258v6.032c0.846-1.743,1.97-3.148,3.372-4.229c1.392-1.079,2.892-1.685,4.504-1.847
			c0.305-0.033,0.58-0.051,0.841-0.051c0.248,0,0.446,0,0.613,0V158.726z"/>
		<path fill="#FFFFFF" d="M356.248,181.094l-9.566-13.088l-5.8,5.311v7.777h-2.353v-34.388h2.353v24.045l14.898-14.107h2.725
			l-10.225,9.939l10.555,14.511H356.248z"/>
		<path fill="#FFFFFF" d="M363.117,151.041v-4.335h2.363v4.335H363.117z M363.117,181.094v-24.49h2.363v24.49H363.117z"/>
		<path fill="#FFFFFF" d="M392.901,181.094h-2.363v-13.661c0-3.167-0.439-5.478-1.337-6.918c-0.901-1.448-2.317-2.172-4.266-2.172
			c-1.043,0-2.067,0.186-3.086,0.563c-1.017,0.383-1.97,0.925-2.846,1.608c-0.885,0.688-1.646,1.492-2.308,2.421
			c-0.661,0.919-1.155,1.92-1.468,3.003v15.155h-2.353v-24.49h2.212v5.845c0.509-0.942,1.134-1.799,1.865-2.575
			c0.732-0.754,1.574-1.433,2.499-1.976c0.923-0.55,1.904-0.988,2.944-1.273c1.033-0.292,2.109-0.446,3.198-0.446
			c2.662,0,4.555,0.927,5.659,2.794c1.096,1.88,1.649,4.552,1.649,8.049V181.094z"/>
		<path fill="#FFFFFF" d="M409.906,181.462c-1.698,0-3.253-0.341-4.66-1.051c-1.422-0.702-2.64-1.646-3.654-2.825
			c-1.026-1.177-1.823-2.509-2.404-4.036c-0.584-1.493-0.876-3.042-0.876-4.643c0-1.677,0.282-3.277,0.817-4.81
			c0.561-1.552,1.337-2.91,2.349-4.086c0.999-1.168,2.199-2.101,3.604-2.804c1.379-0.682,2.94-1.03,4.628-1.03
			c2.15,0,4.008,0.55,5.582,1.671c1.587,1.112,2.944,2.463,4.036,4.078v-5.323h2.172v24.978c0,1.666-0.327,3.131-0.947,4.369
			c-0.626,1.26-1.472,2.311-2.52,3.137c-1.058,0.838-2.283,1.454-3.679,1.883c-1.401,0.423-2.871,0.633-4.402,0.633
			c-1.419,0-2.686-0.137-3.813-0.394c-1.134-0.274-2.144-0.647-2.992-1.123c-0.87-0.502-1.643-1.083-2.311-1.782
			c-0.679-0.724-1.267-1.496-1.765-2.354l1.604-1.078c0.968,1.666,2.294,2.867,3.96,3.64c1.657,0.776,3.428,1.163,5.317,1.163
			c1.26,0,2.442-0.171,3.557-0.522c1.121-0.342,2.084-0.849,2.923-1.521c0.828-0.668,1.489-1.527,1.976-2.525
			c0.487-0.998,0.731-2.188,0.731-3.524v-5.373c-1.002,1.59-2.331,2.867-4.009,3.834
			C413.474,180.995,411.723,181.462,409.906,181.462z M410.47,179.444c1.043,0,2.061-0.192,3.041-0.585
			c0.988-0.39,1.879-0.901,2.69-1.515c0.79-0.637,1.458-1.354,1.965-2.139c0.536-0.786,0.845-1.56,0.975-2.355V164.8
			c-0.373-0.945-0.884-1.822-1.514-2.608c-0.619-0.808-1.339-1.499-2.146-2.067c-0.787-0.557-1.671-1.005-2.575-1.33
			c-0.937-0.332-1.858-0.5-2.812-0.5c-1.476,0-2.794,0.313-3.954,0.953c-1.166,0.626-2.154,1.434-2.951,2.443
			c-0.808,1.009-1.409,2.143-1.837,3.409c-0.424,1.284-0.634,2.564-0.634,3.843c0,1.438,0.251,2.763,0.759,4.001
			c0.49,1.268,1.179,2.384,2.066,3.361c0.884,0.96,1.914,1.727,3.108,2.3C407.843,179.179,409.123,179.444,410.47,179.444z"/>
		<path fill="#FFFFFF" d="M450.708,147.652h2.081l14.136,33.441h-2.541l-4.691-11.023h-15.965l-4.657,11.023h-2.592L450.708,147.652
			z M459.066,168.093l-7.321-17.531l-7.447,17.531H459.066z"/>
		<path fill="#FFFFFF" d="M478.789,181.581c-1.899,0-3.702-0.321-5.406-0.947c-1.733-0.626-3.258-1.583-4.53-2.836l1.168-1.59
			c1.328,1.187,2.672,2.081,4.105,2.631c1.399,0.563,2.966,0.849,4.663,0.849c2.116,0,3.87-0.445,5.172-1.337
			c1.272-0.905,1.941-2.143,1.941-3.757c0-0.746-0.145-1.372-0.486-1.903c-0.349-0.526-0.815-0.958-1.503-1.32
			c-0.641-0.354-1.463-0.686-2.443-0.974c-0.961-0.268-2.103-0.585-3.39-0.898c-1.386-0.298-2.597-0.621-3.606-0.925
			c-1.021-0.321-1.851-0.704-2.525-1.141c-0.647-0.437-1.136-0.953-1.481-1.603c-0.321-0.618-0.496-1.434-0.496-2.396
			c0-1.222,0.252-2.297,0.712-3.198c0.48-0.904,1.126-1.656,1.962-2.275c0.808-0.592,1.789-1.051,2.867-1.336
			c1.086-0.292,2.235-0.446,3.46-0.446c1.926,0,3.605,0.321,5.081,0.968c1.488,0.637,2.636,1.461,3.452,2.472l-1.311,1.275
			c-0.828-0.957-1.878-1.646-3.181-2.126c-1.3-0.473-2.699-0.709-4.175-0.709c-0.913,0-1.769,0.098-2.583,0.285
			c-0.78,0.186-1.487,0.49-2.093,0.904c-0.592,0.403-1.06,0.926-1.401,1.573c-0.354,0.647-0.521,1.401-0.521,2.283
			c0,0.709,0.125,1.293,0.355,1.752c0.229,0.436,0.618,0.809,1.126,1.122c0.522,0.322,1.184,0.585,2.019,0.816
			c0.793,0.234,1.783,0.499,2.901,0.802c1.532,0.368,2.916,0.734,4.113,1.06c1.191,0.35,2.172,0.788,3.002,1.289
			c0.778,0.48,1.392,1.104,1.83,1.769c0.409,0.701,0.618,1.596,0.618,2.653c0,2.202-0.862,3.943-2.567,5.248
			C483.947,180.919,481.643,181.581,478.789,181.581z"/>
		<path fill="#FFFFFF" d="M501.458,181.581c-1.895,0-3.695-0.321-5.438-0.947c-1.71-0.626-3.229-1.583-4.514-2.836l1.18-1.59
			c1.318,1.187,2.694,2.081,4.088,2.631c1.432,0.563,2.966,0.849,4.684,0.849c2.122,0,3.832-0.445,5.148-1.337
			c1.31-0.905,1.957-2.143,1.957-3.757c0-0.746-0.153-1.372-0.496-1.903c-0.324-0.526-0.826-0.958-1.481-1.32
			c-0.653-0.354-1.475-0.686-2.448-0.974c-0.969-0.268-2.096-0.585-3.383-0.898c-1.394-0.298-2.581-0.621-3.613-0.925
			c-1.036-0.321-1.886-0.704-2.518-1.141c-0.648-0.437-1.157-0.953-1.482-1.603c-0.35-0.618-0.495-1.434-0.495-2.396
			c0-1.222,0.217-2.297,0.703-3.198c0.465-0.904,1.12-1.656,1.962-2.275c0.821-0.592,1.789-1.051,2.868-1.336
			c1.072-0.292,2.233-0.446,3.465-0.446c1.906,0,3.605,0.321,5.082,0.968c1.481,0.637,2.637,1.461,3.443,2.472l-1.314,1.275
			c-0.814-0.957-1.88-1.646-3.194-2.126c-1.301-0.473-2.687-0.709-4.149-0.709c-0.917,0-1.779,0.098-2.581,0.285
			c-0.807,0.186-1.495,0.49-2.089,0.904c-0.598,0.403-1.063,0.926-1.419,1.573c-0.34,0.647-0.515,1.401-0.515,2.283
			c0,0.709,0.117,1.293,0.348,1.752c0.242,0.436,0.605,0.809,1.134,1.122c0.51,0.322,1.19,0.585,2.003,0.816
			c0.822,0.234,1.797,0.499,2.933,0.802c1.522,0.368,2.887,0.734,4.071,1.06c1.21,0.35,2.214,0.788,3.014,1.289
			c0.793,0.48,1.412,1.104,1.843,1.769c0.405,0.701,0.627,1.596,0.627,2.653c0,2.202-0.871,3.943-2.568,5.248
			C506.586,180.919,504.311,181.581,501.458,181.581z"/>
		<path fill="#FFFFFF" d="M526.608,181.581c-1.731,0-3.312-0.343-4.773-1.023c-1.469-0.675-2.714-1.59-3.787-2.76
			c-1.091-1.154-1.914-2.506-2.52-4.048c-0.592-1.523-0.89-3.151-0.89-4.843c0-1.751,0.313-3.365,0.925-4.914
			c0.607-1.528,1.455-2.889,2.514-4.058c1.086-1.142,2.337-2.08,3.786-2.748c1.467-0.679,3.054-1.01,4.745-1.01
			c1.697,0,3.271,0.331,4.721,1.01c1.424,0.668,2.7,1.606,3.784,2.748c1.072,1.169,1.936,2.529,2.541,4.058
			c0.618,1.549,0.916,3.163,0.916,4.914c0,1.691-0.298,3.319-0.916,4.843c-0.605,1.542-1.447,2.894-2.515,4.048
			c-1.078,1.17-2.315,2.085-3.79,2.76C529.894,181.238,528.306,181.581,526.608,181.581z M516.997,168.999
			c0,1.426,0.252,2.803,0.751,4.07c0.502,1.267,1.185,2.38,2.076,3.316c0.842,0.959,1.858,1.688,3.02,2.244
			c1.176,0.549,2.402,0.814,3.723,0.814c1.322,0,2.554-0.266,3.73-0.814c1.155-0.557,2.164-1.308,3.048-2.286
			c0.885-0.968,1.58-2.105,2.068-3.365c0.494-1.266,0.765-2.659,0.765-4.12c0-1.459-0.271-2.804-0.765-4.093
			c-0.488-1.26-1.184-2.373-2.068-3.33c-0.884-0.963-1.893-1.722-3.032-2.272c-1.144-0.584-2.368-0.869-3.704-0.869
			c-1.322,0-2.554,0.285-3.725,0.869c-1.153,0.551-2.162,1.316-3.038,2.294c-0.857,0.979-1.546,2.099-2.055,3.413
			C517.249,166.173,516.997,167.555,516.997,168.999z"/>
		<path fill="#FFFFFF" d="M542.539,168.765c0-1.736,0.313-3.358,0.893-4.91c0.604-1.541,1.432-2.874,2.498-4.002
			c1.063-1.127,2.337-2.029,3.819-2.686c1.474-0.658,3.098-0.989,4.845-0.989c2.241,0,4.195,0.502,5.9,1.511
			c1.678,0.999,2.986,2.398,3.808,4.189l-2.297,0.758c-0.736-1.349-1.755-2.414-3.089-3.173c-1.338-0.775-2.806-1.169-4.42-1.169
			c-1.33,0-2.61,0.285-3.752,0.807c-1.169,0.528-2.186,1.26-3.048,2.221c-0.883,0.943-1.544,2.032-2.061,3.31
			c-0.494,1.277-0.744,2.646-0.744,4.134c0,1.461,0.266,2.863,0.786,4.157c0.516,1.303,1.205,2.437,2.082,3.401
			c0.848,0.941,1.866,1.708,3.04,2.281c1.171,0.574,2.422,0.84,3.752,0.84c0.848,0,1.678-0.104,2.527-0.369
			c0.813-0.244,1.599-0.578,2.287-0.987c0.711-0.405,1.33-0.886,1.853-1.437c0.502-0.552,0.863-1.122,1.064-1.718l2.303,0.645
			c-0.313,0.863-0.794,1.656-1.426,2.392c-0.659,0.729-1.411,1.377-2.295,1.913c-0.886,0.528-1.853,0.942-2.91,1.238
			c-1.078,0.298-2.194,0.46-3.313,0.46c-1.726,0-3.319-0.343-4.795-1.023c-1.477-0.675-2.764-1.601-3.842-2.77
			c-1.084-1.191-1.92-2.548-2.539-4.076C542.853,172.164,542.539,170.521,542.539,168.765z"/>
		<path fill="#FFFFFF" d="M569.911,151.041v-4.335h2.374v4.335H569.911z M569.911,181.094v-24.49h2.374v24.49H569.911z"/>
		<path fill="#FFFFFF" d="M585.702,181.581c-1.134,0-2.192-0.216-3.157-0.596c-0.984-0.394-1.848-0.937-2.57-1.604
			c-0.751-0.683-1.316-1.474-1.72-2.407c-0.409-0.919-0.625-1.929-0.625-2.985c0-1.066,0.256-2.043,0.752-2.924
			c0.521-0.877,1.217-1.646,2.108-2.283c0.918-0.646,1.976-1.147,3.223-1.504c1.265-0.354,2.637-0.542,4.153-0.542
			c1.322,0,2.65,0.115,3.988,0.348c1.309,0.237,2.512,0.551,3.611,0.967v-2.399c0-2.325-0.681-4.176-2.005-5.534
			c-1.314-1.369-3.096-2.059-5.351-2.059c-1.219,0-2.478,0.243-3.808,0.752c-1.33,0.521-2.692,1.234-4.084,2.171l-0.884-1.595
			c3.139-2.143,6.131-3.208,8.948-3.208c2.944,0,5.283,0.863,6.982,2.569c1.689,1.712,2.539,4.08,2.539,7.083v11.968
			c0,0.783,0.34,1.18,1.03,1.18v2.116c-0.16,0.041-0.327,0.063-0.494,0.068c-0.167,0.025-0.321,0.043-0.444,0.043
			c-0.614,0-1.144-0.22-1.51-0.647c-0.377-0.421-0.587-0.943-0.65-1.524v-2.032c-1.14,1.477-2.581,2.603-4.328,3.39
			C589.643,181.188,587.733,181.581,585.702,181.581z M586.175,179.688c1.816,0,3.479-0.341,4.997-1.041
			c1.532-0.688,2.7-1.601,3.529-2.73c0.501-0.654,0.765-1.281,0.765-1.88V169.7c-1.147-0.424-2.331-0.765-3.548-0.985
			c-1.24-0.219-2.514-0.337-3.808-0.337c-1.245,0-2.353,0.126-3.354,0.403c-1.017,0.265-1.866,0.638-2.589,1.106
			c-0.719,0.492-1.288,1.039-1.678,1.72c-0.383,0.676-0.585,1.412-0.585,2.24c0,0.809,0.145,1.595,0.479,2.297
			c0.313,0.731,0.73,1.344,1.31,1.866c0.55,0.521,1.226,0.932,1.999,1.231C584.465,179.534,585.291,179.688,586.175,179.688z"/>
		<path fill="#FFFFFF" d="M615.698,179.939c-0.119,0.036-0.335,0.151-0.629,0.336c-0.29,0.177-0.673,0.349-1.147,0.494
			c-0.444,0.149-0.945,0.296-1.517,0.436c-0.57,0.107-1.176,0.185-1.845,0.185c-0.659,0-1.265-0.095-1.851-0.296
			c-0.569-0.188-1.094-0.46-1.522-0.843c-0.453-0.368-0.788-0.828-1.059-1.357c-0.224-0.543-0.369-1.162-0.369-1.893v-18.473h-3.431
			v-1.925h3.431v-8.4h2.345v8.4h5.714v1.925h-5.714v17.913c0,0.911,0.334,1.59,0.961,2.036c0.626,0.465,1.338,0.701,2.116,0.701
			c0.967,0,1.809-0.181,2.527-0.5c0.709-0.328,1.134-0.544,1.277-0.647L615.698,179.939z"/>
		<path fill="#FFFFFF" d="M619.858,151.041v-4.335h2.36v4.335H619.858z M619.858,181.094v-24.49h2.36v24.49H619.858z"/>
		<path fill="#FFFFFF" d="M639.874,181.581c-1.731,0-3.319-0.343-4.788-1.023c-1.458-0.675-2.706-1.59-3.778-2.76
			c-1.078-1.154-1.906-2.506-2.504-4.048c-0.592-1.523-0.899-3.151-0.899-4.843c0-1.751,0.32-3.365,0.921-4.914
			c0.604-1.528,1.468-2.889,2.525-4.058c1.064-1.142,2.323-2.08,3.791-2.748c1.455-0.679,3.043-1.01,4.732-1.01
			c1.693,0,3.278,0.331,4.699,1.01c1.453,0.668,2.727,1.606,3.813,2.748c1.073,1.169,1.92,2.529,2.535,4.058
			c0.619,1.549,0.909,3.163,0.909,4.914c0,1.691-0.29,3.319-0.909,4.843c-0.615,1.542-1.462,2.894-2.527,4.048
			c-1.064,1.17-2.331,2.085-3.772,2.76C643.152,181.238,641.567,181.581,639.874,181.581z M630.277,168.999
			c0,1.426,0.231,2.803,0.744,4.07c0.496,1.267,1.191,2.38,2.033,3.316c0.877,0.959,1.894,1.688,3.041,2.244
			c1.184,0.549,2.415,0.814,3.737,0.814c1.315,0,2.555-0.266,3.73-0.814c1.147-0.557,2.159-1.308,3.055-2.286
			c0.87-0.968,1.553-2.105,2.075-3.365c0.492-1.266,0.73-2.659,0.73-4.12c0-1.459-0.238-2.804-0.73-4.093
			c-0.522-1.26-1.205-2.373-2.075-3.33c-0.896-0.963-1.899-1.722-3.033-2.272c-1.155-0.584-2.381-0.869-3.711-0.869
			c-1.32,0-2.547,0.285-3.715,0.869c-1.177,0.551-2.193,1.316-3.035,2.294c-0.869,0.979-1.572,2.099-2.081,3.413
			C630.509,166.173,630.277,167.555,630.277,168.999z"/>
		<path fill="#FFFFFF" d="M677.526,181.094h-2.36v-13.661c0-3.167-0.443-5.478-1.356-6.918c-0.89-1.448-2.289-2.172-4.246-2.172
			c-1.035,0-2.058,0.186-3.096,0.563c-1.022,0.383-1.963,0.925-2.854,1.608c-0.884,0.688-1.654,1.492-2.296,2.421
			c-0.654,0.919-1.147,1.92-1.455,3.003v15.155h-2.358v-24.49h2.214v5.845c0.494-0.942,1.113-1.799,1.843-2.575
			c0.752-0.754,1.594-1.433,2.521-1.976c0.905-0.55,1.906-0.988,2.938-1.273c1.021-0.292,2.114-0.446,3.198-0.446
			c2.659,0,4.545,0.927,5.66,2.794c1.099,1.88,1.648,4.552,1.648,8.049V181.094z"/>
	</g>
	<g>
		<path fill="#FFFFFF" d="M10.249,111.968V27.42h1.84l56.278,64.821V27.42h8.331v84.548h-1.893L18.989,47.937v64.031H10.249z"/>
		<path fill="#BF1F3A" d="M217.02,111.968V27.42h13.303c7.701,0,13.348,0.487,16.918,1.485c5.063,1.351,9.096,3.825,12.086,7.479
			c2.995,3.633,4.492,7.934,4.492,12.868c0,3.23-0.68,6.152-2.046,8.777c-1.358,2.623-3.574,5.083-6.64,7.387
			c5.133,2.412,8.888,5.418,11.275,9.058c2.372,3.626,3.556,7.899,3.556,12.841c0,4.756-1.225,9.088-3.689,12.987
			c-2.456,3.906-5.608,6.842-9.489,8.769c-3.874,1.944-9.232,2.898-16.052,2.898H217.02z M233.113,42.751v17.844h3.522
			c3.925,0,6.841-0.832,8.741-2.484c1.907-1.649,2.86-3.888,2.86-6.737c0-2.631-0.904-4.733-2.721-6.285
			c-1.794-1.563-4.551-2.339-8.247-2.339H233.113z M233.113,74.939v21.679h4.037c6.685,0,11.198-0.843,13.519-2.519
			c2.321-1.691,3.491-4.135,3.491-7.364c0-3.64-1.372-6.514-4.093-8.623c-2.732-2.115-7.27-3.173-13.602-3.173H233.113z"/>
		<path fill="#BF1F3A" d="M316.409,25.291c11.971,0,22.257,4.329,30.848,12.993c8.623,8.651,12.931,19.222,12.931,31.68
			c0,12.325-4.241,22.771-12.743,31.315c-8.497,8.549-18.811,12.812-30.914,12.812c-12.708,0-23.249-4.381-31.645-13.152
			c-8.393-8.773-12.597-19.199-12.597-31.273c0-8.094,1.956-15.527,5.867-22.302c3.915-6.782,9.291-12.159,16.132-16.122
			C301.135,27.28,308.509,25.291,316.409,25.291z M316.238,41.043c-7.829,0-14.41,2.718-19.737,8.16
			c-5.324,5.435-7.996,12.36-7.996,20.76c0,9.347,3.355,16.731,10.07,22.166c5.213,4.273,11.194,6.396,17.956,6.396
			c7.635,0,14.135-2.763,19.5-8.282c5.37-5.526,8.067-12.319,8.067-20.413c0-8.035-2.714-14.866-8.129-20.419
			C330.568,43.816,323.983,41.043,316.238,41.043z"/>
		<path fill="#BF1F3A" d="M367.626,27.42h17.059c9.333,0,15.979,0.814,19.946,2.495c3.967,1.667,7.14,4.44,9.556,8.306
			c2.418,3.862,3.619,8.453,3.619,13.741c0,5.551-1.329,10.207-3.988,13.943c-2.665,3.738-6.675,6.556-12.047,8.47l20.03,37.592
			h-17.594l-19.014-35.81h-1.468v35.81h-16.098V27.42z M383.724,60.464h5.04c5.115,0,8.646-0.668,10.571-2.015
			c1.936-1.351,2.899-3.581,2.899-6.688c0-1.848-0.49-3.456-1.434-4.827c-0.956-1.357-2.237-2.332-3.838-2.93
			c-1.607-0.605-4.551-0.891-8.827-0.891h-4.41V60.464z"/>
		<path fill="#BF1F3A" d="M426.052,27.42h19.074c12.283,0,21.422,1.517,27.386,4.565c5.972,3.048,10.905,7.997,14.761,14.858
			c3.878,6.849,5.806,14.865,5.806,24.032c0,6.506-1.072,12.496-3.244,17.956c-2.156,5.47-5.135,9.993-8.964,13.603
			c-3.8,3.601-7.92,6.086-12.381,7.478c-4.434,1.371-12.129,2.057-23.084,2.057h-19.353V27.42z M442.038,42.936v53.338h7.466
			c7.355,0,12.7-0.838,16.007-2.516c3.313-1.698,6.042-4.538,8.143-8.518c2.103-4.002,3.173-8.909,3.173-14.748
			c0-8.963-2.525-15.944-7.551-20.886c-4.53-4.44-11.775-6.671-21.783-6.671H442.038z"/>
		<path fill="#BF1F3A" d="M499.653,27.42h46.157v15.746h-30.178v15.293h30.178v15.45h-30.178v22.256h30.178v15.802h-46.157V27.42z"
			/>
		<path fill="#BF1F3A" d="M553.081,27.42h17.06c9.339,0,15.994,0.814,19.953,2.495c3.961,1.667,7.146,4.44,9.562,8.306
			c2.424,3.862,3.613,8.453,3.613,13.741c0,5.551-1.33,10.207-3.988,13.943c-2.659,3.738-6.673,6.556-12.046,8.47l20.036,37.592
			h-17.596l-19.012-35.81h-1.481v35.81h-16.101V27.42z M569.182,60.464h5.051c5.116,0,8.637-0.668,10.572-2.015
			c1.922-1.351,2.887-3.581,2.887-6.688c0-1.848-0.473-3.456-1.432-4.827c-0.947-1.357-2.228-2.332-3.827-2.93
			c-1.61-0.605-4.559-0.891-8.833-0.891h-4.418V60.464z"/>
		<path fill="#FFFFFF" d="M690.846,43.113l-6.673,5.108c-3.681-4.792-8.096-8.432-13.25-10.895
			c-5.158-2.46-10.816-3.706-16.99-3.706c-6.744,0-12.984,1.614-18.729,4.861c-5.746,3.243-10.207,7.585-13.374,13.052
			c-3.16,5.449-4.732,11.595-4.732,18.429c0,10.297,3.527,18.899,10.613,25.799c7.058,6.904,15.986,10.345,26.759,10.345
			c11.832,0,21.735-4.63,29.704-13.916l6.673,5.074c-4.223,5.359-9.464,9.5-15.791,12.443c-6.29,2.931-13.34,4.381-21.122,4.381
			c-14.789,0-26.459-4.923-34.998-14.767c-7.161-8.308-10.752-18.35-10.752-30.115c0-12.384,4.342-22.803,13.02-31.244
			c8.686-8.453,19.542-12.673,32.635-12.673c7.878,0,15.004,1.559,21.372,4.676C681.57,33.088,686.774,37.477,690.846,43.113z"/>
		<path fill="#FFFFFF" d="M698.976,27.42h8.448v76.385h32.544v8.163h-40.992V27.42z"/>
		<path fill="#FFFFFF" d="M744.812,27.42h8.454v51.034c0,6.062,0.112,9.833,0.349,11.319c0.419,3.334,1.393,6.128,2.931,8.38
			c1.524,2.231,3.897,4.122,7.07,5.626c3.174,1.521,6.366,2.276,9.597,2.276c2.804,0,5.468-0.595,8.043-1.774
			c2.578-1.19,4.721-2.844,6.446-4.958c1.719-2.106,2.991-4.653,3.786-7.646c0.585-2.147,0.863-6.556,0.863-13.223V27.42h8.454
			v51.034c0,7.551-0.745,13.658-2.212,18.317c-1.468,4.653-4.428,8.713-8.847,12.158c-4.439,3.443-9.792,5.161-16.077,5.161
			c-6.809,0-12.663-1.621-17.535-4.881c-4.864-3.251-8.128-7.559-9.771-12.936c-1.028-3.288-1.551-9.228-1.551-17.819V27.42z"/>
		<path fill="#FFFFFF" d="M813.006,27.42h16.675c6.703,0,11.865,0.787,15.471,2.387c3.606,1.586,6.444,4.022,8.54,7.314
			c2.087,3.299,3.125,6.96,3.125,10.976c0,3.769-0.919,7.186-2.735,10.279c-1.824,3.083-4.517,5.575-8.08,7.496
			c4.397,1.496,7.774,3.239,10.154,5.268c2.365,1.993,4.211,4.44,5.531,7.297c1.316,2.844,1.978,5.943,1.978,9.277
			c0,6.789-2.483,12.523-7.445,17.215c-4.971,4.696-11.624,7.039-19.976,7.039h-23.237V27.42z M821.295,35.688v27.087h4.838
			c5.873,0,10.201-0.557,12.963-1.649c2.764-1.079,4.957-2.815,6.563-5.171c1.622-2.359,2.422-4.983,2.422-7.857
			c0-3.856-1.35-6.893-4.063-9.089c-2.708-2.22-7.015-3.32-12.923-3.32H821.295z M821.295,71.265v32.431h10.488
			c6.173,0,10.697-0.605,13.586-1.803c2.879-1.21,5.184-3.104,6.931-5.672c1.739-2.568,2.623-5.345,2.623-8.337
			c0-3.758-1.231-7.025-3.69-9.833c-2.44-2.794-5.823-4.691-10.116-5.742c-2.889-0.696-7.894-1.044-15.047-1.044H821.295z"/>
		<path fill="#FFFFFF" d="M146.078,1.391c-14.076,0-64.174,7.371-64.174,70.702l8.046-11.386L101.672,77.8v32.836l11.73,10.049
			V76.123l14.246-14.246l13.237,13.233v52.292h5.192h5.195V75.11l13.241-13.233l14.235,14.246v44.562l11.738-10.049V77.8
			l11.733-17.093l8.032,11.386C210.251,8.762,160.156,1.391,146.078,1.391z"/>
	</g>
</g>
</svg>
