<?xml version="1.0" encoding="utf-8"?>
<!-- Generator: Adobe Illustrator 16.0.0, SVG Export Plug-In . SVG Version: 6.00 Build 0)  -->
<!DOCTYPE svg PUBLIC "-//W3C//DTD SVG 1.1//EN" "http://www.w3.org/Graphics/SVG/1.1/DTD/svg11.dtd">
<svg version="1.1" id="Layer_1" xmlns="http://www.w3.org/2000/svg" xmlns:xlink="http://www.w3.org/1999/xlink" x="0px" y="0px"
	 width="873.912px" height="191.826px" viewBox="0 0 873.912 191.826" enable-background="new 0 0 873.912 191.826"
	 xml:space="preserve">
<g>
	<g>
		<path fill="#BF1F3A" d="M211.741,113.242V26.65h13.611c7.9,0,13.679,0.51,17.33,1.527c5.186,1.375,9.313,3.924,12.377,7.652
			c3.065,3.73,4.597,8.129,4.597,13.188c0,3.299-0.7,6.289-2.086,8.979c-1.395,2.687-3.661,5.21-6.802,7.563
			c5.256,2.474,9.104,5.562,11.535,9.274c2.436,3.706,3.652,8.094,3.652,13.154c0,4.869-1.259,9.301-3.773,13.306
			c-2.515,3.999-5.75,6.992-9.723,8.977c-3.969,1.981-9.448,2.972-16.441,2.972H211.741z M228.223,42.365v18.249h3.604
			c4.018,0,7.004-0.842,8.953-2.532c1.948-1.686,2.927-3.984,2.927-6.886c0-2.705-0.929-4.855-2.782-6.445
			c-1.85-1.589-4.666-2.386-8.448-2.386H228.223z M228.223,75.331v22.191h4.136c6.839,0,11.455-0.863,13.837-2.588
			c2.381-1.724,3.575-4.241,3.575-7.533c0-3.731-1.398-6.673-4.196-8.83c-2.795-2.161-7.438-3.24-13.927-3.24H228.223z"/>
		<path fill="#BF1F3A" d="M313.516,24.472c12.25,0,22.785,4.436,31.6,13.303c8.817,8.871,13.227,19.685,13.227,32.437
			c0,12.637-4.35,23.329-13.05,32.083c-8.694,8.751-19.251,13.128-31.66,13.128c-12.998,0-23.798-4.494-32.396-13.481
			c-8.601-8.987-12.902-19.661-12.902-32.024c0-8.28,2.002-15.896,6.009-22.837c4.009-6.949,9.513-12.451,16.525-16.516
			C297.876,26.5,305.425,24.472,313.516,24.472z M313.339,40.602c-8.015,0-14.752,2.788-20.214,8.359
			c-5.459,5.57-8.191,12.652-8.191,21.25c0,9.578,3.438,17.152,10.318,22.722c5.338,4.356,11.468,6.536,18.38,6.536
			c7.817,0,14.479-2.825,19.977-8.479c5.501-5.652,8.253-12.615,8.253-20.896c0-8.242-2.771-15.219-8.313-20.929
			C328.014,43.455,321.271,40.602,313.339,40.602z"/>
		<path fill="#BF1F3A" d="M365.961,26.65h17.463c9.565,0,16.376,0.852,20.428,2.559c4.061,1.709,7.321,4.543,9.794,8.509
			c2.472,3.964,3.706,8.653,3.706,14.066c0,5.69-1.366,10.45-4.09,14.28c-2.728,3.822-6.843,6.716-12.33,8.679l20.507,38.499
			h-18.018L383.95,76.565h-1.509v36.677h-16.48V26.65z M382.441,60.498h5.165c5.238,0,8.854-0.692,10.822-2.067
			c1.983-1.378,2.969-3.662,2.969-6.849c0-1.895-0.489-3.535-1.466-4.932c-0.98-1.398-2.291-2.404-3.932-3.015
			c-1.646-0.613-4.657-0.919-9.04-0.919h-4.519V60.498z"/>
		<path fill="#BF1F3A" d="M425.79,26.65h19.524c12.591,0,21.941,1.56,28.057,4.68c6.12,3.12,11.158,8.192,15.116,15.217
			c3.963,7.024,5.938,15.225,5.938,24.605c0,6.67-1.107,12.804-3.323,18.395c-2.208,5.591-5.267,10.237-9.17,13.923
			c-3.903,3.688-8.128,6.24-12.671,7.652c-4.55,1.412-12.432,2.12-23.645,2.12H425.79V26.65z M442.156,42.542v54.632h7.651
			c7.535,0,13-0.867,16.393-2.594c3.395-1.729,6.173-4.636,8.332-8.723c2.157-4.087,3.238-9.116,3.238-15.088
			c0-9.192-2.572-16.32-7.714-21.392c-4.628-4.555-12.062-6.836-22.31-6.836H442.156z"/>
		<path fill="#BF1F3A" d="M501.162,26.65h47.271v16.13h-30.903v15.656h30.903v15.836h-30.903v22.779h30.903v16.19h-47.271V26.65z"/>
		<path fill="#BF1F3A" d="M555.876,26.65h17.459c9.567,0,16.375,0.852,20.439,2.559c4.05,1.709,7.321,4.543,9.79,8.509
			c2.468,3.964,3.702,8.653,3.702,14.066c0,5.69-1.367,10.45-4.092,14.28c-2.729,3.822-6.836,6.716-12.329,8.679l20.515,38.499
			H593.34l-19.473-36.677h-1.507v36.677h-16.484V26.65z M572.36,60.498h5.157c5.242,0,8.857-0.692,10.832-2.067
			c1.976-1.378,2.961-3.662,2.961-6.849c0-1.895-0.485-3.535-1.465-4.932c-0.982-1.398-2.286-2.404-3.935-3.015
			c-1.636-0.613-4.657-0.919-9.036-0.919h-4.515V60.498z"/>
	</g>
	<g>
		<path fill="#002C47" d="M696.943,42.717l-6.827,5.242c-3.768-4.902-8.294-8.626-13.572-11.154
			c-5.278-2.531-11.074-3.799-17.396-3.799c-6.906,0-13.303,1.659-19.188,4.974c-5.887,3.318-10.446,7.77-13.687,13.365
			c-3.242,5.591-4.859,11.882-4.859,18.866c0,10.557,3.62,19.37,10.867,26.433c7.235,7.063,16.371,10.593,27.399,10.593
			c12.121,0,22.267-4.747,30.436-14.244l6.827,5.183c-4.32,5.491-9.703,9.742-16.159,12.739c-6.454,3.006-13.668,4.508-21.637,4.508
			c-15.148,0-27.096-5.047-35.848-15.131c-7.34-8.517-11.012-18.797-11.012-30.842c0-12.682,4.443-23.344,13.337-31.996
			c8.885-8.656,20.028-12.981,33.405-12.981c8.086,0,15.382,1.6,21.896,4.798C687.444,32.466,692.779,36.951,696.943,42.717z"/>
		<path fill="#002C47" d="M705.265,26.65h8.658v78.231h33.313v8.36h-41.971V26.65z"/>
		<path fill="#002C47" d="M752.207,26.65h8.653v52.271c0,6.203,0.11,10.067,0.348,11.595c0.438,3.415,1.435,6.272,3.007,8.567
			c1.57,2.298,3.985,4.221,7.242,5.769c3.257,1.554,6.531,2.326,9.828,2.326c2.865,0,5.615-0.607,8.243-1.824
			c2.628-1.215,4.82-2.903,6.596-5.063c1.766-2.158,3.058-4.767,3.883-7.83c0.585-2.196,0.882-6.708,0.882-13.539V26.65h8.653
			v52.271c0,7.732-0.757,13.982-2.257,18.749c-1.518,4.77-4.543,8.919-9.078,12.451c-4.532,3.533-10.014,5.3-16.449,5.3
			c-6.986,0-12.973-1.67-17.958-5.005c-4.978-3.335-8.321-7.752-10-13.243c-1.071-3.377-1.593-9.458-1.593-18.252V26.65z"/>
		<path fill="#002C47" d="M822.049,26.65h17.063c6.865,0,12.154,0.814,15.844,2.44c3.685,1.63,6.599,4.134,8.734,7.506
			c2.144,3.376,3.212,7.125,3.212,11.244c0,3.846-0.933,7.348-2.812,10.509c-1.878,3.161-4.632,5.72-8.258,7.681
			c4.501,1.529,7.961,3.324,10.387,5.386c2.421,2.059,4.314,4.554,5.667,7.477c1.348,2.924,2.025,6.094,2.025,9.507
			c0,6.944-2.547,12.822-7.628,17.632c-5.082,4.809-11.9,7.211-20.453,7.211h-23.782V26.65z M830.528,35.125v27.727h4.952
			c6.012,0,10.439-0.562,13.269-1.679c2.835-1.118,5.071-2.884,6.724-5.297c1.654-2.414,2.483-5.091,2.483-8.035
			c0-3.962-1.386-7.074-4.165-9.329c-2.771-2.256-7.186-3.387-13.242-3.387H830.528z M830.528,71.565v33.201h10.728
			c6.328,0,10.964-0.619,13.921-1.855c2.942-1.237,5.314-3.168,7.096-5.8c1.79-2.629,2.689-5.472,2.689-8.531
			c0-3.853-1.257-7.204-3.778-10.073c-2.514-2.861-5.972-4.819-10.368-5.883c-2.949-0.705-8.082-1.059-15.395-1.059H830.528z"/>
	</g>
	<g>
		<path fill="#002C47" d="M0,113.242V26.65h1.886l57.63,66.377V26.65h8.533v86.592h-1.938L8.948,47.672v65.57H0z"/>
		<path fill="#002C47" d="M139.091,0c-14.411,0-65.72,7.551-65.72,72.411l8.243-11.666l12.007,17.499v33.635l12.015,10.295V76.529
			l14.58-14.584l13.559,13.554v53.537h5.316h5.32V75.499l13.56-13.554l14.579,14.584v45.645l12.015-10.295V78.244l12.007-17.499
			l8.237,11.666C204.809,7.551,153.506,0,139.091,0z"/>
	</g>
	<g>
		<path fill="#002C47" d="M190.841,163.726c0-2.057,0.36-4.104,1.086-6.146c0.723-2.042,1.773-3.862,3.155-5.472
			c1.382-1.605,3.077-2.917,5.087-3.927c2.006-1.013,4.297-1.518,6.868-1.518c3.05,0,5.655,0.698,7.809,2.095
			c2.152,1.398,3.761,3.188,4.82,5.375l-2.023,1.158c-0.61-1.188-1.327-2.188-2.146-2.991c-0.819-0.802-1.702-1.452-2.651-1.952
			c-0.947-0.496-1.938-0.858-2.965-1.085c-1.028-0.224-2.041-0.335-3.035-0.335c-2.186,0-4.115,0.441-5.786,1.324
			c-1.672,0.886-3.084,2.035-4.239,3.447c-1.158,1.415-2.033,3.014-2.628,4.796s-0.892,3.572-0.892,5.375
			c0,2.024,0.353,3.953,1.061,5.783c0.706,1.83,1.67,3.448,2.891,4.845c1.221,1.397,2.667,2.516,4.34,3.353
			c1.67,0.832,3.471,1.25,5.398,1.25c1.026,0,2.087-0.128,3.183-0.386c1.09-0.255,2.137-0.658,3.13-1.205
			c0.998-0.545,1.928-1.244,2.796-2.099c0.869-0.851,1.589-1.854,2.17-3.011l2.121,1.013c-0.577,1.285-1.366,2.427-2.362,3.423
			c-0.994,0.993-2.104,1.834-3.323,2.507c-1.223,0.676-2.518,1.178-3.884,1.519c-1.364,0.338-2.707,0.506-4.023,0.506
			c-2.346,0-4.491-0.514-6.436-1.543c-1.942-1.028-3.623-2.37-5.037-4.024c-1.415-1.654-2.515-3.537-3.302-5.639
			C191.234,168.056,190.841,165.911,190.841,163.726z"/>
		<path fill="#002C47" d="M236.244,181.562c-1.765,0-3.396-0.347-4.89-1.04c-1.494-0.688-2.787-1.627-3.88-2.816
			c-1.095-1.19-1.944-2.57-2.557-4.146c-0.609-1.574-0.913-3.229-0.913-4.965c0-1.766,0.311-3.438,0.939-5.012
			c0.623-1.574,1.485-2.955,2.578-4.147c1.091-1.188,2.386-2.128,3.878-2.816c1.497-0.694,3.111-1.039,4.844-1.039
			c1.737,0,3.345,0.345,4.823,1.039c1.479,0.688,2.77,1.628,3.882,2.816c1.105,1.192,1.973,2.573,2.602,4.147
			c0.625,1.574,0.939,3.246,0.939,5.012c0,1.735-0.314,3.391-0.939,4.965c-0.629,1.576-1.485,2.956-2.578,4.146
			c-1.096,1.189-2.388,2.128-3.881,2.816C239.596,181.215,237.981,181.562,236.244,181.562z M226.414,168.691
			c0,1.478,0.259,2.867,0.771,4.168c0.513,1.303,1.213,2.434,2.095,3.396c0.884,0.967,1.922,1.731,3.111,2.291
			c1.189,0.563,2.459,0.844,3.809,0.844s2.618-0.281,3.808-0.844c1.188-0.56,2.231-1.341,3.132-2.337
			c0.901-0.997,1.606-2.145,2.121-3.446c0.513-1.301,0.771-2.705,0.771-4.216c0-1.479-0.259-2.868-0.771-4.17
			c-0.515-1.305-1.22-2.445-2.121-3.423c-0.9-0.98-1.936-1.76-3.109-2.34c-1.171-0.578-2.434-0.867-3.785-0.867
			c-1.349,0-2.618,0.289-3.808,0.867c-1.188,0.58-2.223,1.367-3.107,2.362c-0.886,0.999-1.59,2.161-2.121,3.496
			C226.68,165.807,226.414,167.214,226.414,168.691z"/>
		<path fill="#002C47" d="M285.123,156.012h2.41l-10.846,25.067h-2.024l-5.639-13.255l-5.64,13.255h-2.023l-10.847-25.067h2.363
			l9.592,22.416l5.252-12.339l-4.239-10.026h2.072l3.47,8.29l3.422-8.29h2.122l-4.243,10.026l5.255,12.339L285.123,156.012z"/>
		<path fill="#002C47" d="M301.8,181.562c-1.768,0-3.396-0.347-4.891-1.04c-1.493-0.688-2.788-1.627-3.88-2.816
			c-1.094-1.19-1.945-2.57-2.556-4.146c-0.611-1.574-0.914-3.229-0.914-4.965c0-1.766,0.313-3.438,0.938-5.012
			c0.625-1.574,1.485-2.955,2.581-4.147c1.091-1.188,2.384-2.128,3.878-2.816c1.496-0.694,3.11-1.039,4.843-1.039
			c1.739,0,3.345,0.345,4.819,1.039c1.482,0.688,2.773,1.628,3.884,2.816c1.107,1.192,1.978,2.573,2.601,4.147
			c0.627,1.574,0.942,3.246,0.942,5.012c0,1.735-0.315,3.391-0.942,4.965c-0.623,1.576-1.486,2.956-2.577,4.146
			c-1.093,1.189-2.386,2.128-3.881,2.816C305.153,181.215,303.539,181.562,301.8,181.562z M291.97,168.691
			c0,1.478,0.255,2.867,0.77,4.168c0.513,1.303,1.213,2.434,2.099,3.396c0.882,0.967,1.917,1.731,3.106,2.291
			c1.191,0.563,2.461,0.844,3.808,0.844c1.352,0,2.623-0.281,3.809-0.844c1.189-0.56,2.233-1.341,3.134-2.337
			c0.899-0.997,1.605-2.145,2.121-3.446c0.517-1.301,0.77-2.705,0.77-4.216c0-1.479-0.253-2.868-0.77-4.17
			c-0.516-1.305-1.222-2.445-2.121-3.423c-0.9-0.98-1.936-1.76-3.11-2.34c-1.172-0.578-2.435-0.867-3.784-0.867
			c-1.348,0-2.617,0.289-3.805,0.867c-1.19,0.58-2.226,1.367-3.111,2.362c-0.884,0.999-1.589,2.161-2.122,3.496
			C292.232,165.807,291.97,167.214,291.97,168.691z"/>
		<path fill="#002C47" d="M331.687,158.184c-2.251,0.063-4.22,0.728-5.906,1.999s-2.866,3.015-3.541,5.231v15.665h-2.411v-25.067
			h2.313v6.174c0.867-1.77,2.015-3.208,3.446-4.317c1.43-1.107,2.965-1.739,4.604-1.903c0.32-0.03,0.609-0.049,0.869-0.049
			c0.257,0,0.464,0,0.626,0V158.184z"/>
		<path fill="#002C47" d="M354.39,181.079l-9.787-13.401l-5.929,5.447v7.954h-2.408v-35.188h2.408v24.582l15.232-14.41h2.794
			l-10.456,10.168l10.796,14.849H354.39z"/>
		<path fill="#002C47" d="M361.426,150.326v-4.436h2.409v4.436H361.426z M361.426,181.079v-25.067h2.409v25.067H361.426z"/>
		<path fill="#002C47" d="M391.888,181.079h-2.409v-13.979c0-3.245-0.457-5.608-1.373-7.087c-0.916-1.478-2.373-2.216-4.362-2.216
			c-1.063,0-2.114,0.192-3.157,0.578c-1.045,0.384-2.018,0.933-2.918,1.638c-0.898,0.709-1.686,1.536-2.361,2.482
			c-0.675,0.947-1.173,1.967-1.494,3.061v15.522h-2.411v-25.067h2.267v5.979c0.515-0.966,1.146-1.841,1.903-2.63
			c0.756-0.785,1.607-1.46,2.554-2.025c0.948-0.559,1.956-0.992,3.015-1.298c1.061-0.306,2.153-0.459,3.276-0.459
			c2.731,0,4.659,0.958,5.785,2.866c1.125,1.915,1.687,4.654,1.687,8.221V181.079z"/>
		<path fill="#002C47" d="M409.289,181.465c-1.734,0-3.327-0.36-4.773-1.085c-1.444-0.724-2.689-1.688-3.733-2.892
			c-1.045-1.206-1.862-2.581-2.459-4.124c-0.595-1.54-0.894-3.131-0.894-4.771c0-1.701,0.284-3.342,0.847-4.916
			c0.561-1.572,1.355-2.964,2.384-4.17c1.03-1.205,2.259-2.161,3.688-2.867c1.433-0.706,3.015-1.062,4.748-1.062
			c2.187,0,4.091,0.572,5.713,1.712c1.621,1.141,2.996,2.529,4.121,4.169v-5.448h2.218v25.55c0,1.701-0.321,3.196-0.964,4.482
			c-0.643,1.284-1.506,2.355-2.579,3.205c-1.078,0.851-2.33,1.495-3.759,1.927c-1.433,0.435-2.934,0.65-4.509,0.65
			c-1.446,0-2.748-0.136-3.903-0.409c-1.159-0.271-2.179-0.66-3.061-1.155c-0.886-0.5-1.671-1.108-2.362-1.832
			s-1.295-1.521-1.81-2.386l1.64-1.109c0.996,1.702,2.347,2.948,4.05,3.737c1.704,0.786,3.52,1.178,5.446,1.178
			c1.286,0,2.5-0.175,3.64-0.529c1.14-0.356,2.138-0.875,2.987-1.563c0.85-0.694,1.528-1.554,2.024-2.58
			c0.5-1.029,0.747-2.237,0.747-3.615v-5.495c-1.028,1.639-2.395,2.947-4.097,3.926
			C412.934,180.976,411.151,181.465,409.289,181.465z M409.869,179.391c1.059,0,2.095-0.201,3.107-0.603
			c1.013-0.399,1.928-0.923,2.748-1.565c0.819-0.643,1.492-1.366,2.024-2.168c0.528-0.805,0.859-1.609,0.986-2.411V164.4
			c-0.385-0.964-0.896-1.854-1.539-2.674c-0.646-0.82-1.376-1.518-2.194-2.099c-0.82-0.579-1.706-1.036-2.652-1.375
			c-0.948-0.334-1.903-0.505-2.866-0.505c-1.513,0-2.86,0.321-4.05,0.963c-1.189,0.645-2.194,1.479-3.015,2.509
			c-0.819,1.029-1.444,2.191-1.878,3.495c-0.433,1.301-0.652,2.609-0.652,3.929c0,1.444,0.259,2.812,0.771,4.096
			c0.515,1.287,1.224,2.429,2.121,3.423c0.898,0.995,1.959,1.782,3.181,2.362C407.186,179.102,408.487,179.391,409.869,179.391z"/>
		<path fill="#002C47" d="M451.028,146.854h2.122l14.46,34.226h-2.601l-4.772-11.28h-16.342l-4.771,11.28h-2.652L451.028,146.854z
			 M459.561,167.773l-7.47-17.93l-7.615,17.93H459.561z"/>
		<path fill="#002C47" d="M479.759,181.562c-1.929,0-3.777-0.318-5.542-0.963c-1.769-0.644-3.31-1.608-4.627-2.894l1.203-1.639
			c1.35,1.221,2.748,2.117,4.195,2.7c1.444,0.577,3.035,0.867,4.771,0.867c2.185,0,3.944-0.46,5.278-1.375
			c1.333-0.917,1.997-2.192,1.997-3.833c0-0.769-0.164-1.421-0.505-1.952c-0.337-0.529-0.842-0.979-1.516-1.349
			c-0.675-0.37-1.51-0.7-2.506-0.989c-0.998-0.286-2.156-0.594-3.473-0.915c-1.414-0.318-2.643-0.643-3.689-0.965
			c-1.042-0.318-1.901-0.704-2.576-1.155c-0.677-0.449-1.182-0.996-1.52-1.642c-0.336-0.641-0.506-1.461-0.506-2.456
			c0-1.254,0.24-2.347,0.724-3.278c0.482-0.931,1.147-1.702,2-2.312c0.853-0.611,1.832-1.069,2.94-1.375
			c1.109-0.306,2.291-0.459,3.543-0.459c1.959,0,3.695,0.329,5.206,0.988c1.511,0.658,2.682,1.502,3.519,2.532l-1.349,1.301
			c-0.837-0.966-1.923-1.689-3.254-2.169c-1.334-0.483-2.756-0.725-4.266-0.725c-0.935,0-1.809,0.096-2.628,0.291
			c-0.821,0.192-1.537,0.499-2.146,0.913c-0.608,0.418-1.093,0.958-1.444,1.617c-0.354,0.659-0.53,1.437-0.53,2.337
			c0,0.739,0.12,1.333,0.361,1.783c0.241,0.451,0.628,0.837,1.156,1.157c0.532,0.32,1.213,0.603,2.048,0.844
			c0.837,0.239,1.833,0.505,2.992,0.795c1.571,0.387,2.972,0.757,4.192,1.106c1.221,0.356,2.242,0.791,3.062,1.304
			c0.819,0.515,1.444,1.127,1.878,1.83c0.436,0.71,0.651,1.607,0.651,2.7c0,2.249-0.878,4.043-2.627,5.374
			C485.021,180.896,482.684,181.562,479.759,181.562z"/>
		<path fill="#002C47" d="M502.94,181.562c-1.929,0-3.774-0.318-5.543-0.963c-1.767-0.644-3.309-1.608-4.623-2.894l1.202-1.639
			c1.352,1.221,2.748,2.117,4.196,2.7c1.442,0.577,3.032,0.867,4.768,0.867c2.188,0,3.943-0.46,5.278-1.375
			c1.337-0.917,2-2.192,2-3.833c0-0.769-0.163-1.421-0.504-1.952c-0.339-0.529-0.846-0.979-1.518-1.349
			c-0.672-0.37-1.507-0.7-2.507-0.989c-0.997-0.286-2.157-0.594-3.471-0.915c-1.415-0.318-2.644-0.643-3.687-0.965
			c-1.046-0.318-1.904-0.704-2.577-1.155c-0.679-0.449-1.184-0.996-1.521-1.642c-0.339-0.641-0.507-1.461-0.507-2.456
			c0-1.254,0.241-2.347,0.724-3.278c0.482-0.931,1.146-1.702,2-2.312c0.853-0.611,1.83-1.069,2.942-1.375
			c1.11-0.306,2.288-0.459,3.538-0.459c1.962,0,3.7,0.329,5.207,0.988c1.515,0.658,2.687,1.502,3.521,2.532l-1.35,1.301
			c-0.84-0.966-1.922-1.689-3.253-2.169c-1.337-0.483-2.757-0.725-4.268-0.725c-0.933,0-1.808,0.096-2.63,0.291
			c-0.817,0.192-1.531,0.499-2.143,0.913c-0.606,0.418-1.093,0.958-1.448,1.617c-0.35,0.659-0.526,1.437-0.526,2.337
			c0,0.739,0.118,1.333,0.36,1.783c0.242,0.451,0.625,0.837,1.157,1.157c0.529,0.32,1.216,0.603,2.051,0.844
			c0.835,0.239,1.827,0.505,2.984,0.795c1.572,0.387,2.973,0.757,4.194,1.106c1.221,0.356,2.242,0.791,3.064,1.304
			c0.82,0.515,1.441,1.127,1.878,1.83c0.436,0.71,0.65,1.607,0.65,2.7c0,2.249-0.88,4.043-2.626,5.374
			C508.204,180.896,505.866,181.562,502.94,181.562z"/>
		<path fill="#002C47" d="M528.682,181.562c-1.771,0-3.398-0.347-4.891-1.04c-1.494-0.688-2.793-1.627-3.88-2.816
			c-1.096-1.19-1.949-2.57-2.558-4.146c-0.61-1.574-0.917-3.229-0.917-4.965c0-1.766,0.319-3.438,0.942-5.012
			c0.625-1.574,1.483-2.955,2.576-4.147c1.092-1.188,2.389-2.128,3.881-2.816c1.497-0.694,3.112-1.039,4.846-1.039
			c1.737,0,3.341,0.345,4.818,1.039c1.479,0.688,2.771,1.628,3.883,2.816c1.107,1.192,1.979,2.573,2.6,4.147
			c0.629,1.574,0.942,3.246,0.942,5.012c0,1.735-0.313,3.391-0.942,4.965c-0.621,1.576-1.485,2.956-2.575,4.146
			c-1.097,1.189-2.39,2.128-3.882,2.816C532.033,181.215,530.419,181.562,528.682,181.562z M518.848,168.691
			c0,1.478,0.257,2.867,0.771,4.168c0.515,1.303,1.214,2.434,2.097,3.396c0.886,0.967,1.921,1.731,3.109,2.291
			c1.189,0.563,2.458,0.844,3.808,0.844s2.621-0.281,3.808-0.844c1.191-0.56,2.234-1.341,3.136-2.337
			c0.899-0.997,1.606-2.145,2.117-3.446c0.518-1.301,0.774-2.705,0.774-4.216c0-1.479-0.257-2.868-0.774-4.17
			c-0.511-1.305-1.218-2.445-2.117-3.423c-0.901-0.98-1.937-1.76-3.111-2.34c-1.171-0.578-2.432-0.867-3.783-0.867
			c-1.348,0-2.619,0.289-3.806,0.867c-1.193,0.58-2.229,1.367-3.11,2.362c-0.886,0.999-1.59,2.161-2.121,3.496
			C519.112,165.807,518.848,167.214,518.848,168.691z"/>
		<path fill="#002C47" d="M544.977,168.447c0-1.766,0.306-3.438,0.913-5.011c0.608-1.574,1.465-2.939,2.558-4.096
			c1.089-1.157,2.389-2.073,3.899-2.751c1.515-0.674,3.168-1.011,4.965-1.011c2.286,0,4.293,0.515,6.028,1.544
			s3.034,2.458,3.903,4.291l-2.361,0.771c-0.739-1.384-1.792-2.469-3.157-3.253c-1.367-0.79-2.867-1.185-4.507-1.185
			c-1.386,0-2.672,0.274-3.856,0.821c-1.187,0.546-2.229,1.299-3.108,2.265c-0.886,0.963-1.585,2.098-2.099,3.396
			c-0.515,1.304-0.771,2.708-0.771,4.217c0,1.513,0.264,2.935,0.8,4.269c0.525,1.333,1.235,2.489,2.113,3.471
			c0.886,0.979,1.93,1.758,3.136,2.338c1.208,0.577,2.483,0.866,3.836,0.866c0.864,0,1.726-0.127,2.576-0.385
			c0.852-0.258,1.64-0.595,2.362-1.012s1.352-0.907,1.88-1.473c0.531-0.559,0.893-1.147,1.082-1.756l2.363,0.674
			c-0.32,0.867-0.81,1.68-1.471,2.434c-0.657,0.757-1.437,1.406-2.335,1.952c-0.9,0.548-1.9,0.974-2.99,1.279
			c-1.093,0.303-2.218,0.457-3.375,0.457c-1.764,0-3.407-0.347-4.913-1.04c-1.515-0.688-2.821-1.637-3.928-2.843
			c-1.112-1.202-1.979-2.592-2.608-4.168C545.286,171.936,544.977,170.25,544.977,168.447z"/>
		<path fill="#002C47" d="M572.981,150.326v-4.436h2.407v4.436H572.981z M572.981,181.079v-25.067h2.407v25.067H572.981z"/>
		<path fill="#002C47" d="M589.124,181.562c-1.157,0-2.234-0.204-3.228-0.604c-1-0.4-1.871-0.946-2.63-1.639
			c-0.75-0.689-1.342-1.512-1.757-2.46c-0.413-0.947-0.629-1.966-0.629-3.059c0-1.091,0.258-2.09,0.771-2.99
			c0.516-0.898,1.232-1.678,2.152-2.336c0.909-0.661,2.009-1.175,3.298-1.543c1.282-0.37,2.701-0.555,4.243-0.555
			c1.351,0,2.704,0.12,4.071,0.361c1.364,0.24,2.594,0.569,3.687,0.99v-2.459c0-2.377-0.672-4.267-2.021-5.664
			c-1.352-1.399-3.183-2.099-5.496-2.099c-1.226,0-2.516,0.258-3.883,0.773c-1.364,0.514-2.753,1.25-4.168,2.217l-0.917-1.641
			c3.213-2.183,6.264-3.277,9.16-3.277c3.018,0,5.396,0.877,7.131,2.627c1.737,1.753,2.604,4.171,2.604,7.253v12.246
			c0,0.804,0.354,1.205,1.061,1.205v2.169c-0.164,0.03-0.328,0.055-0.508,0.072c-0.178,0.015-0.327,0.024-0.456,0.024
			c-0.643,0-1.158-0.218-1.544-0.654c-0.386-0.431-0.606-0.954-0.674-1.563v-2.073c-1.157,1.512-2.635,2.668-4.433,3.473
			C593.16,181.156,591.211,181.562,589.124,181.562z M589.61,179.634c1.86,0,3.571-0.354,5.133-1.059
			c1.56-0.71,2.753-1.642,3.589-2.8c0.514-0.674,0.771-1.318,0.771-1.927v-4.435c-1.157-0.45-2.362-0.788-3.614-1.013
			c-1.253-0.224-2.558-0.338-3.903-0.338c-1.255,0-2.396,0.138-3.425,0.411c-1.029,0.272-1.911,0.65-2.65,1.132
			s-1.308,1.067-1.706,1.761c-0.409,0.688-0.608,1.452-0.608,2.29c0,0.835,0.164,1.619,0.483,2.359
			c0.324,0.739,0.773,1.375,1.348,1.905c0.58,0.528,1.261,0.948,2.051,1.252C587.868,179.479,588.71,179.634,589.61,179.634z"/>
		<path fill="#002C47" d="M619.831,179.874c-0.129,0.063-0.343,0.186-0.649,0.363c-0.308,0.174-0.693,0.342-1.157,0.505
			c-0.465,0.16-0.989,0.304-1.568,0.434c-0.582,0.127-1.203,0.192-1.878,0.192c-0.676,0-1.311-0.096-1.904-0.289
			c-0.6-0.192-1.121-0.48-1.566-0.87c-0.455-0.384-0.805-0.85-1.062-1.396c-0.258-0.546-0.386-1.188-0.386-1.928V157.99h-3.519
			v-1.979h3.519v-8.578h2.407v8.578h5.836v1.979h-5.836v18.316c0,0.932,0.324,1.633,0.964,2.098
			c0.646,0.466,1.371,0.697,2.172,0.697c0.995,0,1.856-0.169,2.578-0.505c0.722-0.338,1.164-0.555,1.329-0.652L619.831,179.874z"/>
		<path fill="#002C47" d="M624.074,150.326v-4.436h2.407v4.436H624.074z M624.074,181.079v-25.067h2.407v25.067H624.074z"/>
		<path fill="#002C47" d="M644.56,181.562c-1.771,0-3.4-0.347-4.894-1.04c-1.495-0.688-2.793-1.627-3.881-2.816
			c-1.093-1.19-1.947-2.57-2.554-4.146c-0.614-1.574-0.923-3.229-0.923-4.965c0-1.766,0.319-3.438,0.944-5.012
			c0.628-1.574,1.484-2.955,2.577-4.147c1.094-1.188,2.386-2.128,3.88-2.816c1.499-0.694,3.113-1.039,4.85-1.039
			c1.731,0,3.339,0.345,4.817,1.039c1.477,0.688,2.775,1.628,3.878,2.816c1.111,1.192,1.979,2.573,2.604,4.147
			c0.63,1.574,0.943,3.246,0.943,5.012c0,1.735-0.313,3.391-0.943,4.965c-0.625,1.576-1.485,2.956-2.577,4.146
			c-1.093,1.189-2.386,2.128-3.879,2.816C647.908,181.215,646.291,181.562,644.56,181.562z M634.724,168.691
			c0,1.478,0.258,2.867,0.771,4.168c0.514,1.303,1.214,2.434,2.094,3.396c0.886,0.967,1.92,1.731,3.114,2.291
			c1.185,0.563,2.456,0.844,3.807,0.844c1.35,0,2.617-0.281,3.806-0.844c1.19-0.56,2.233-1.341,3.136-2.337
			c0.9-0.997,1.604-2.145,2.123-3.446c0.511-1.301,0.768-2.705,0.768-4.216c0-1.479-0.257-2.868-0.768-4.17
			c-0.519-1.305-1.223-2.445-2.123-3.423c-0.902-0.98-1.938-1.76-3.113-2.34c-1.172-0.578-2.432-0.867-3.778-0.867
			c-1.351,0-2.622,0.289-3.813,0.867c-1.187,0.58-2.223,1.367-3.108,2.362c-0.886,0.999-1.589,2.161-2.121,3.496
			C634.987,165.807,634.724,167.214,634.724,168.691z"/>
		<path fill="#002C47" d="M683.068,181.079h-2.409v-13.979c0-3.245-0.458-5.608-1.371-7.087c-0.919-1.478-2.373-2.216-4.365-2.216
			c-1.057,0-2.114,0.192-3.157,0.578c-1.042,0.384-2.018,0.933-2.914,1.638c-0.9,0.709-1.688,1.536-2.364,2.482
			c-0.672,0.947-1.172,1.967-1.492,3.061v15.522h-2.411v-25.067h2.264v5.979c0.519-0.966,1.15-1.841,1.904-2.63
			c0.757-0.785,1.606-1.46,2.558-2.025c0.941-0.559,1.949-0.992,3.01-1.298c1.062-0.306,2.154-0.459,3.279-0.459
			c2.731,0,4.66,0.958,5.785,2.866c1.125,1.915,1.685,4.654,1.685,8.221V181.079z"/>
	</g>
</g>
</svg>
