<?xml version="1.0" encoding="utf-8"?>
<!-- Generator: Adobe Illustrator 16.0.0, SVG Export Plug-In . SVG Version: 6.00 Build 0)  -->
<!DOCTYPE svg PUBLIC "-//W3C//DTD SVG 1.1//EN" "http://www.w3.org/Graphics/SVG/1.1/DTD/svg11.dtd">
<svg version="1.1" id="Layer_1" xmlns="http://www.w3.org/2000/svg" xmlns:xlink="http://www.w3.org/1999/xlink" x="0px" y="0px"
	 width="120px" height="120px" viewBox="0 0 120 120" enable-background="new 0 0 120 120" xml:space="preserve">
<g>
	<path fill-rule="evenodd" clip-rule="evenodd" fill="none" stroke="#CCCCCC" stroke-miterlimit="10" d="M6.481,46.462
		c0.146-0.987,0.296-1.983,0.437-2.979c1.071-7.555,4.032-14.312,8.89-20.175c5.704-6.87,12.893-11.596,21.623-13.588
		c15.59-3.552,29.046,0.526,39.965,12.188c7.752,8.279,11.202,18.371,10.534,29.657c-0.738,12.555-6.338,22.675-16.328,30.333
		c-0.375,0.291-0.939,0.461-1.414,0.461c-15.293,0.027-30.587,0.027-45.876,0.009c-0.451,0-0.978-0.15-1.325-0.413
		c-9.604-7.339-15.11-16.999-16.318-29.056c-0.033-0.263-0.126-0.526-0.188-0.789C6.481,50.221,6.481,48.341,6.481,46.462z
		 M47.213,60.68c6.348,0.019,11.521-5.122,11.512-11.455c0-6.296-5.103-11.408-11.422-11.474
		c-6.287-0.047-11.525,5.168-11.516,11.483C35.786,55.53,40.922,60.67,47.213,60.68z"/>
	<path fill-rule="evenodd" clip-rule="evenodd" fill="none" stroke="#CCCCCC" stroke-miterlimit="10" d="M113.519,52.946
		c-0.564,1.927-1.288,3.853-3.102,4.887c-1.344,0.761-1.645,1.842-1.912,3.167c-1.621,8.1-4.957,15.487-9.947,22.055
		c-2.143,2.81-4.68,5.318-7.047,7.969c-0.226,0.254-0.498,0.451-0.874,0.789c-0.028-0.441-0.066-0.742-0.066-1.033
		c-0.009-2.951-0.038-5.921,0.019-8.871c0.019-0.573,0.244-1.24,0.601-1.683c4.99-6.268,8.326-13.287,9.933-21.134
		c0.16-0.78,0.066-1.287-0.569-1.889c-2.302-2.17-2.937-5.676-1.677-8.457c1.362-3.017,4.285-4.783,7.536-4.567
		c3.177,0.197,5.816,2.358,6.771,5.488c0.104,0.329,0.226,0.648,0.334,0.977C113.519,51.415,113.519,52.175,113.519,52.946z"/>
	<path fill-rule="evenodd" clip-rule="evenodd" fill="none" stroke="#CCCCCC" stroke-miterlimit="10" d="M82.907,90.074
		c0,6.766,0,13.475,0,20.26c-23.751,0-47.459,0-71.262,0c0-6.709,0-13.447,0-20.26C35.363,90.074,59.072,90.074,82.907,90.074z"/>
	<path fill-rule="evenodd" clip-rule="evenodd" fill="none" stroke="#CCCCCC" stroke-miterlimit="10" d="M51.047,49.187
		c0.019,2.152-1.663,3.844-3.796,3.844c-2.095,0-3.768-1.664-3.787-3.759c-0.015-2.143,1.672-3.853,3.796-3.853
		C49.346,45.419,51.028,47.092,51.047,49.187z"/>
</g>
</svg>
