<?xml version="1.0" encoding="utf-8"?>
<!-- Generator: Adobe Illustrator 16.0.0, SVG Export Plug-In . SVG Version: 6.00 Build 0)  -->
<!DOCTYPE svg PUBLIC "-//W3C//DTD SVG 1.1//EN" "http://www.w3.org/Graphics/SVG/1.1/DTD/svg11.dtd">
<svg version="1.1" id="Layer_1" xmlns="http://www.w3.org/2000/svg" xmlns:xlink="http://www.w3.org/1999/xlink" x="0px" y="0px"
	 width="120px" height="120px" viewBox="0 0 120 120" enable-background="new 0 0 120 120" xml:space="preserve">
<g>
	<circle fill="#BF1F3A" cx="60" cy="59.833" r="50.5"/>
	<g>
		<path fill-rule="evenodd" clip-rule="evenodd" fill="#FFFFFF" d="M68.055,36.186c0.184,0.063,0.364,0.135,0.552,0.195
			c1.404,0.455,2.44,1.691,2.503,3.16c0.061,1.506,0.012,3.02,0.012,4.569c-1.035,0-2.054,0-3.133,0c0-1.552,0-3.118,0-4.718
			c-9.6,0-19.145,0-28.72,0c0,12.739,0,25.47,0,38.24c9.539,0,19.08,0,28.687,0c0-1.556,0-3.121,0-4.718c1.082,0,2.101,0,3.177,0
			c0,0.194,0,0.372,0,0.548c0,3.271,0.001,6.545-0.002,9.819c0,2.427-1.516,3.931-3.959,3.931c-9.054,0-18.106,0-27.16,0
			c-2.056,0-3.323-0.972-3.873-2.958c-0.012-0.042-0.055-0.08-0.083-0.119c0-14.918,0-29.837,0-44.76
			c0.042-0.139,0.083-0.282,0.124-0.424c0.34-1.187,1.061-2.042,2.222-2.496c0.274-0.108,0.563-0.181,0.843-0.268
			C48.848,36.186,58.451,36.186,68.055,36.186z M53.61,84.047c0.895-0.007,1.604-0.736,1.597-1.629
			c-0.007-0.867-0.722-1.58-1.59-1.587c-0.893-0.003-1.618,0.716-1.622,1.608C51.99,83.329,52.719,84.05,53.61,84.047z"/>
		<path fill-rule="evenodd" clip-rule="evenodd" fill="#FFFFFF" d="M87.096,68.583c-0.035,0.073-0.082,0.142-0.103,0.215
			c-0.418,1.542-1.611,2.462-3.212,2.462c-5.748,0.003-11.496,0.003-17.243,0.003c-5.832,0-11.661-0.003-17.492,0
			c-2.056,0-3.408-1.337-3.408-3.389c-0.003-3.989-0.002-7.975-0.002-11.961c0-0.167,0-0.33,0-0.576c0.228,0,0.436,0,0.643,0
			c13.256,0,26.514,0,39.77,0c0.349,0,0.698-0.011,1.047-0.014C87.096,59.743,87.096,64.163,87.096,68.583z M54.383,67.079
			c1.807,1.333,3.449,1.34,4.709,0.042c1.124-1.163,1.21-2.962,0.202-4.226c-0.508-0.638-1.172-1.031-1.968-1.163
			c-1.143-0.191-2.113,0.198-2.924,0.99c-1.745-1.632-3.748-1.097-4.748-0.007c-1.139,1.239-1.131,3.152,0.03,4.381
			C50.72,68.194,52.707,68.659,54.383,67.079z M77.526,61.715L77.526,61.715c1.741,0,3.484,0.003,5.227,0
			c0.737,0,1.145-0.402,1.158-1.125c0.005-0.351,0.014-0.698-0.004-1.045c-0.024-0.611-0.437-1.035-1.046-1.039
			c-3.567-0.007-7.135-0.007-10.701,0c-0.61,0.004-1.006,0.434-1.026,1.052c-0.01,0.333-0.007,0.664-0.001,0.997
			c0.012,0.774,0.394,1.156,1.168,1.16C74.042,61.719,75.785,61.715,77.526,61.715z"/>
		<path fill-rule="evenodd" clip-rule="evenodd" fill="#FFFFFF" d="M87.096,53.729c-4.851-0.003-9.699-0.01-14.548-0.014
			c-8.784,0-17.57,0-26.354,0.004c-0.164,0-0.328,0-0.524,0c0-1.059,0-2.08,0-3.17c0.189,0,0.38,0,0.575,0c13.4,0,26.802,0,40.204,0
			c0.215,0,0.43-0.007,0.647-0.01C87.096,51.602,87.096,52.667,87.096,53.729z"/>
		<path fill-rule="evenodd" clip-rule="evenodd" fill="#FFFFFF" d="M87.096,48.945c-5.249-0.003-10.496-0.01-15.744-0.01
			c-8.404-0.003-16.806,0-25.208-0.003c-0.149,0-0.297,0-0.495,0c0.005-0.923,0.34-1.667,0.967-2.278
			c0.609-0.59,1.349-0.892,2.204-0.892c11.691,0,23.383,0,35.073,0.003c1.469,0,2.689,0.948,3.083,2.365
			c0.031,0.107,0.078,0.211,0.12,0.315C87.096,48.612,87.096,48.779,87.096,48.945z"/>
	</g>
</g>
</svg>
