<?xml version="1.0" encoding="utf-8"?>
<!-- Generator: Adobe Illustrator 16.0.0, SVG Export Plug-In . SVG Version: 6.00 Build 0)  -->
<!DOCTYPE svg PUBLIC "-//W3C//DTD SVG 1.1//EN" "http://www.w3.org/Graphics/SVG/1.1/DTD/svg11.dtd">
<svg version="1.1" id="Layer_1" xmlns="http://www.w3.org/2000/svg" xmlns:xlink="http://www.w3.org/1999/xlink" x="0px" y="0px"
	 width="120px" height="120px" viewBox="0 0 120 120" enable-background="new 0 0 120 120" xml:space="preserve">
<g>
	<linearGradient id="SVGID_1_" gradientUnits="userSpaceOnUse" x1="59.9995" y1="11.9224" x2="59.9995" y2="123.0314">
		<stop  offset="0" style="stop-color:#CCCCCC"/>
		<stop  offset="0.9129" style="stop-color:#FBFCFC"/>
	</linearGradient>
	<circle fill="url(#SVGID_1_)" stroke="#CCCCCC" stroke-width="0.6891" stroke-miterlimit="10" cx="60" cy="59.685" r="50.647"/>
	<g>
		<path fill-rule="evenodd" clip-rule="evenodd" fill="#666666" d="M52.652,40.63c-0.551,2.089-0.276,4.001,0.765,5.794
			c0.805,1.39,1.956,2.41,3.412,3.082c2.837,1.309,6.239,0.686,8.484-1.532c1.968-1.943,3.303-5.585,1.063-9.475
			c3.565-0.557,7.108-1.107,10.702-1.668c0.218,1.142,0.427,2.246,0.644,3.35c1.724,8.792,3.436,17.589,5.796,26.242
			c0.438,1.602,1.006,3.172,1.568,4.739c0.183,0.505,0.542,0.943,0.879,1.511c-13.504,2.41-27.158,4.172-40.843,6.182
			c-1.879-12.08-3.748-24.094-5.628-36.173C43.884,41.999,48.214,41.324,52.652,40.63z"/>
		<path fill-rule="evenodd" clip-rule="evenodd" fill="#666666" d="M37.594,54.291c1.292,8.295,2.584,16.589,3.894,24.996
			c-3.365-0.954-6.64-1.884-9.982-2.835c1.993-7.406,3.975-14.778,5.957-22.146C37.506,54.298,37.55,54.294,37.594,54.291z"/>
		<path fill-rule="evenodd" clip-rule="evenodd" fill="#666666" d="M71.349,87.331c-7.091-1.627-14.064-3.678-21.076-5.693
			c7.196-1.049,14.39-2.093,21.654-3.148c-0.013,0.157-0.024,0.313-0.041,0.467c-0.245,2.357-0.504,4.708-0.723,7.068
			C71.126,86.411,71.27,86.815,71.349,87.331z"/>
		<path fill-rule="evenodd" clip-rule="evenodd" fill="#666666" d="M56.178,36.96c-0.083,2.702,1.451,4.502,3.824,4.488
			c2.352-0.014,3.872-1.828,3.764-4.492c1.598,1.072,2.386,3.715,1.745,5.857c-0.734,2.455-2.989,4.158-5.504,4.154
			c-2.559-0.003-4.809-1.661-5.553-4.092C53.791,40.71,54.566,38.054,56.178,36.96z"/>
		<path fill-rule="evenodd" clip-rule="evenodd" fill="#666666" d="M56.456,35.554c-0.003-1.971,1.546-3.514,3.528-3.517
			c1.96-0.003,3.512,1.56,3.512,3.534c0,1.912-1.595,3.507-3.504,3.503C58.024,39.07,56.457,37.507,56.456,35.554z"/>
	</g>
</g>
</svg>
