<?xml version="1.0" encoding="utf-8"?>
<!-- Generator: Adobe Illustrator 16.0.0, SVG Export Plug-In . SVG Version: 6.00 Build 0)  -->
<!DOCTYPE svg PUBLIC "-//W3C//DTD SVG 1.1//EN" "http://www.w3.org/Graphics/SVG/1.1/DTD/svg11.dtd">
<svg version="1.1" id="Layer_1" xmlns="http://www.w3.org/2000/svg" xmlns:xlink="http://www.w3.org/1999/xlink" x="0px" y="0px"
	 width="120px" height="120px" viewBox="0 0 120 120" enable-background="new 0 0 120 120" xml:space="preserve">
<g>
	<linearGradient id="SVGID_1_" gradientUnits="userSpaceOnUse" x1="-1703.2588" y1="1675.0679" x2="-1703.2588" y2="1577.5614">
		<stop  offset="0.0871" style="stop-color:#FBFCFC"/>
		<stop  offset="1" style="stop-color:#CCCCCC"/>
	</linearGradient>
	
		<circle fill-rule="evenodd" clip-rule="evenodd" fill="url(#SVGID_1_)" stroke="#CCCCCC" stroke-width="0.6891" stroke-miterlimit="10" cx="-1703.259" cy="1618.886" r="42.333"/>
	<g>
		<path fill-rule="evenodd" clip-rule="evenodd" fill="#BF1F3A" d="M-1727.252,1616.455c1.09-0.188,2.184-0.377,3.275-0.561
			c0.978-0.16,1.955-0.303,2.928-0.482c0.121-0.021,0.27-0.205,0.306-0.34c0.351-1.279,0.819-2.508,1.499-3.65
			c0.154-0.26,0.203-0.441-0.029-0.762c-1.199-1.645-2.337-3.332-3.522-5.045c0.789-0.789,1.588-1.586,2.386-2.385
			c0.439-0.438,0.893-0.863,1.311-1.32c0.199-0.215,0.376-0.186,0.563-0.051c1.57,1.125,3.14,2.252,4.703,3.387
			c0.195,0.145,0.353,0.248,0.605,0.111c1.242-0.684,2.525-1.264,3.916-1.582c0.092-0.021,0.193-0.186,0.212-0.295
			c0.319-1.857,0.679-3.711,0.903-5.582c0.072-0.611,0.29-0.643,0.764-0.637c1.627,0.02,3.257,0.008,4.939,0.008
			c0.385,2.172,0.766,4.334,1.12,6.34c1.526,0.637,2.948,1.23,4.442,1.854c1.594-1.152,3.292-2.385,5.007-3.596
			c0.116-0.082,0.433-0.055,0.536,0.045c1.169,1.133,2.32,2.285,3.456,3.455c0.097,0.102,0.115,0.414,0.032,0.535
			c-1.133,1.656-2.283,3.301-3.444,4.936c-0.142,0.199-0.11,0.297-0.017,0.514c0.541,1.236,1.027,2.494,1.552,3.736
			c0.06,0.143,0.239,0.303,0.386,0.328c1.449,0.268,2.904,0.51,4.359,0.75c0.48,0.078,0.965,0.135,1.449,0.193
			c0.228,0.027,0.42,0.055,0.414,0.363c-0.011,0.854-0.004,1.705-0.004,2.586c-4.936,0-9.846,0-14.795,0
			c0.032-2.051-0.758-3.789-2.164-5.213c-1.424-1.443-3.242-2.186-5.248-2.086c-4.178,0.211-6.622,3.209-7.031,6.355
			c-0.559,4.279,2.78,8.139,7.236,8.186c0,4.896,0,9.795,0,14.764c-0.898,0-1.806,0.01-2.715-0.014
			c-0.082-0.002-0.21-0.207-0.231-0.33c-0.323-1.936-0.624-3.875-0.954-5.809c-0.024-0.148-0.198-0.33-0.346-0.389
			c-0.871-0.35-1.762-0.648-2.633-1.002c-0.489-0.199-0.949-0.471-1.432-0.713c-1.695,1.191-3.396,2.393-5.111,3.574
			c-0.115,0.08-0.412,0.072-0.506-0.02c-1.188-1.158-2.363-2.332-3.52-3.521c-0.087-0.086-0.1-0.365-0.025-0.471
			c1.115-1.578,2.25-3.143,3.384-4.705c0.183-0.252,0.233-0.459,0.06-0.766c-0.662-1.18-1.213-2.408-1.52-3.736
			c-0.023-0.105-0.194-0.225-0.314-0.25c-1.162-0.229-2.326-0.443-3.491-0.656c-0.896-0.16-1.795-0.311-2.69-0.467
			C-1727.252,1620.179-1727.252,1618.316-1727.252,1616.455z"/>
		<path fill-rule="evenodd" clip-rule="evenodd" fill="#BF1F3A" d="M-1679.572,1644.931c-7.371,0-14.691,0-22.07,0
			c0-0.176,0-0.34,0-0.506c0-6.486-0.002-12.973,0-19.461c0-1.277,0.813-2.084,2.096-2.084c5.991-0.002,11.981,0.01,17.973-0.012
			c1.15-0.004,2.026,0.871,2.021,1.992c-0.038,6.486-0.02,12.973-0.02,19.461
			C-1679.572,1644.507-1679.572,1644.693-1679.572,1644.931z M-1697.793,1628.488c0,4.26,0,8.486,0,12.701c4.848,0,9.664,0,14.473,0
			c0-4.252,0-8.467,0-12.701C-1688.149,1628.488-1692.954,1628.488-1697.793,1628.488z"/>
		<path fill-rule="evenodd" clip-rule="evenodd" fill="#BF1F3A" d="M-1692.445,1632.078c0.699-0.703,1.349-1.346,1.988-1.994
			c0.445-0.453,0.976-0.654,1.58-0.436c0.959,0.346,1.175,1.451,0.42,2.244c-0.963,1.012-1.957,1.992-2.961,2.965
			c-0.551,0.533-1.215,0.596-1.813,0.088c-0.648-0.551-1.26-1.172-1.786-1.842c-0.442-0.564-0.276-1.256,0.252-1.691
			c0.567-0.467,1.177-0.426,1.765,0.07C-1692.811,1631.64-1692.662,1631.843-1692.445,1632.078z"/>
		<path fill-rule="evenodd" clip-rule="evenodd" fill="#BF1F3A" d="M-1692.456,1637.605c0.73-0.74,1.366-1.396,2.017-2.039
			c0.4-0.396,0.869-0.588,1.451-0.455c1.039,0.238,1.279,1.5,0.553,2.256c-1.01,1.049-2.025,2.096-3.098,3.08
			c-0.482,0.439-1.078,0.557-1.863-0.094c-0.576-0.479-1.094-1.045-1.563-1.631c-0.487-0.613-0.366-1.314,0.21-1.832
			c0.471-0.422,1.224-0.4,1.768,0.102C-1692.803,1637.158-1692.662,1637.365-1692.456,1637.605z"/>
	</g>
</g>
<g>
	<circle fill-rule="evenodd" clip-rule="evenodd" fill="#BF1F3A" cx="60" cy="59.834" r="50.499"/>
	<g>
		<path fill-rule="evenodd" clip-rule="evenodd" fill="#FFFFFF" d="M95.104,66.021c-0.636-1.791-2.345-1.671-3.825-2.178
			c-0.758,2.829-1.51,5.613-2.308,8.578c1.048,0.213,2.059,0.563,3.077,0.582c0.958,0.018,1.541-0.714,1.786-1.654
			c0.36-1.38,0.733-2.755,1.106-4.13c0.033-0.129,0.107-0.246,0.164-0.367C95.104,66.572,95.104,66.296,95.104,66.021z"/>
		<path fill-rule="evenodd" clip-rule="evenodd" fill="#FFFFFF" d="M68.137,70.693c-0.13,0.582-0.438,0.718-0.987,0.651
			c-3.619-0.447-7.24-0.669-10.895-0.43c-3.741,0.247-7.399,0.867-10.997,1.917c-0.417,0.121-1.104,0.146-1.324-0.093
			c-0.261-0.288-0.297-0.948-0.186-1.385c0.75-2.97,1.543-5.932,2.371-8.88c0.183-0.651,0.048-0.907-0.583-1.159
			c-2.429-0.961-3.459-3.068-3.394-5.082c0.108-3.225,2.509-5.25,5.421-5.382c0.533-0.022,1.257,0.222,1.556-0.042
			c0.364-0.319,0.376-1.042,0.538-1.592c0.025-0.09,0.043-0.18,0.069-0.269c0.638-2.359,1.271-4.716,1.914-7.073
			c0.303-1.102,0.99-1.279,1.806-0.474c0.214,0.215,0.418,0.434,0.628,0.646c2.412,2.47,5.047,4.666,7.921,6.578
			c3.124,2.077,6.448,3.77,9.89,5.246c0.345,0.15,0.697,0.239,0.553,0.765c-0.902,3.311-1.803,6.622-2.677,9.942
			c-0.136,0.519-0.421,0.56-0.865,0.522c-2.658-0.234-5.315-0.532-7.98-0.647c-3.508-0.151-7.008,0.054-10.489,0.526
			c-0.792,0.108-1.304,0.637-1.225,1.302c0.083,0.708,0.738,1.088,1.542,1.009c1.994-0.195,3.989-0.469,5.985-0.483
			c3.038-0.02,6.083,0.136,9.121,0.261c1.003,0.044,2,0.229,3.125,0.362C68.672,68.602,68.375,69.643,68.137,70.693z M46.58,58.627
			c0.331,0.132,0.529,0.073,0.622-0.275c0.358-1.333,0.722-2.662,1.073-3.994c0.144-0.545-0.28-0.554-0.613-0.579
			c-1.326-0.102-2.614,1.17-2.614,2.566C45.047,57.285,45.742,58.297,46.58,58.627z"/>
		<path fill-rule="evenodd" clip-rule="evenodd" fill="#FFFFFF" d="M85.487,74.589c0.452-1.682,0.896-3.346,1.344-5.011
			c0.787-2.938,1.568-5.875,2.368-8.81c0.103-0.386,0.117-0.627-0.343-0.789c-4.476-1.573-8.947-3.166-13.422-4.753
			c-0.064-0.022-0.135-0.021-0.287-0.045c-0.926,3.454-1.851,6.912-2.796,10.437c1.5,0.275,2.921,0.517,4.337,0.797
			c1.741,0.343,3.477,0.712,5.21,1.086c0.829,0.176,1.183,0.658,1.035,1.34c-0.139,0.648-0.71,0.932-1.536,0.767
			c-2.597-0.521-5.195-1.042-7.794-1.555c-0.584-0.114-1.176-0.182-1.828-0.282c-0.37,1.381-0.721,2.703-1.084,4.055
			C75.659,72.753,80.541,73.667,85.487,74.589z"/>
		<path fill-rule="evenodd" clip-rule="evenodd" fill="#FFFFFF" d="M70.077,75.008c-0.663,1.906-1.301,3.729-1.934,5.555
			c-0.919,2.654-1.835,5.312-2.753,7.966c-0.38,1.098-0.217,1.452,0.841,1.854c1.658,0.629,3.316,1.262,4.976,1.887
			c1.008,0.38,1.471,0.14,1.719-0.892c0.646-2.663,1.276-5.33,1.951-7.987c0.085-0.329,0.359-0.746,0.653-0.872
			c2.188-0.948,3.601-2.528,4.202-4.838c0.069-0.261,0.207-0.504,0.351-0.851C76.73,76.22,73.449,75.624,70.077,75.008z"/>
		<path fill-rule="evenodd" clip-rule="evenodd" fill="#FFFFFF" d="M27.065,75.372c0.834-0.225,1.878-0.508,2.923-0.785
			c2.003-0.536,4.006-1.07,6.008-1.604c0.456-0.123,0.885-0.365,0.817-0.873c-0.045-0.331-0.321-0.677-0.583-0.913
			c-0.135-0.12-0.484-0.067-0.713-0.008c-2.96,0.781-5.918,1.578-8.878,2.365c-0.594,0.159-0.841,0.547-0.749,1.135
			C25.974,75.212,26.341,75.405,27.065,75.372z"/>
		<path fill-rule="evenodd" clip-rule="evenodd" fill="#FFFFFF" d="M35.664,54.46c0.68,0.037,1.07-0.171,1.163-0.715
			c0.1-0.61-0.255-0.951-0.808-1.101c-2.601-0.699-5.204-1.394-7.806-2.087c-0.378-0.102-0.764-0.183-1.137-0.297
			c-0.568-0.172-0.962,0.052-1.168,0.558c-0.215,0.523,0.079,1.048,0.692,1.231c0.972,0.288,1.957,0.526,2.934,0.79
			c1.891,0.507,3.779,1.017,5.67,1.523C35.402,54.415,35.607,54.446,35.664,54.46z"/>
		<path fill-rule="evenodd" clip-rule="evenodd" fill="#FFFFFF" d="M39.581,46.002c0.266-0.258,0.705-0.492,0.754-0.792
			c0.051-0.315-0.175-0.833-0.448-1.016c-0.971-0.659-2.011-1.211-3.028-1.801c-1.615-0.933-3.226-1.873-4.856-2.782
			c-0.283-0.159-0.679-0.303-0.959-0.223c-0.273,0.076-0.618,0.429-0.649,0.693c-0.031,0.295,0.167,0.735,0.41,0.924
			c0.564,0.432,1.21,0.752,1.828,1.109c2.016,1.164,4.029,2.326,6.048,3.482C38.916,45.73,39.175,45.82,39.581,46.002z"/>
		<path fill-rule="evenodd" clip-rule="evenodd" fill="#FFFFFF" d="M37.38,30.838c0.228,0.357,0.343,0.637,0.542,0.84
			c2.143,2.161,4.296,4.314,6.456,6.458c0.48,0.477,1.006,0.506,1.407,0.127c0.448-0.423,0.427-0.895-0.116-1.438
			c-2.145-2.16-4.289-4.322-6.471-6.443c-0.243-0.236-0.741-0.366-1.078-0.305C37.851,30.128,37.65,30.542,37.38,30.838z"/>
		<path fill-rule="evenodd" clip-rule="evenodd" fill="#FFFFFF" d="M29.915,61.914c-1.499,0-2.998-0.008-4.496,0.003
			c-0.723,0.005-1.074,0.299-1.087,0.865c-0.017,0.604,0.366,0.951,1.087,0.954c3.019,0.004,6.039,0.003,9.061-0.005
			c0.735,0,1.132-0.333,1.129-0.914c-0.006-0.61-0.354-0.903-1.127-0.906c-1.524-0.012-3.044-0.003-4.567-0.003
			C29.915,61.908,29.915,61.911,29.915,61.914z"/>
	</g>
</g>
</svg>
