<?xml version="1.0" encoding="utf-8"?>
<!-- Generator: Adobe Illustrator 16.0.0, SVG Export Plug-In . SVG Version: 6.00 Build 0)  -->
<!DOCTYPE svg PUBLIC "-//W3C//DTD SVG 1.1//EN" "http://www.w3.org/Graphics/SVG/1.1/DTD/svg11.dtd">
<svg version="1.1" id="Layer_1" xmlns="http://www.w3.org/2000/svg" xmlns:xlink="http://www.w3.org/1999/xlink" x="0px" y="0px"
	 width="120px" height="120px" viewBox="0 0 120 120" enable-background="new 0 0 120 120" xml:space="preserve">
<g>
	<linearGradient id="SVGID_1_" gradientUnits="userSpaceOnUse" x1="-1703.2588" y1="1675.0679" x2="-1703.2588" y2="1577.5614">
		<stop  offset="0.0871" style="stop-color:#FBFCFC"/>
		<stop  offset="1" style="stop-color:#CCCCCC"/>
	</linearGradient>
	
		<circle fill-rule="evenodd" clip-rule="evenodd" fill="url(#SVGID_1_)" stroke="#CCCCCC" stroke-width="0.6891" stroke-miterlimit="10" cx="-1703.259" cy="1618.886" r="42.333"/>
	<g>
		<path fill-rule="evenodd" clip-rule="evenodd" fill="#BF1F3A" d="M-1727.252,1616.455c1.09-0.188,2.184-0.377,3.275-0.561
			c0.978-0.16,1.955-0.303,2.928-0.482c0.121-0.021,0.27-0.205,0.306-0.34c0.351-1.279,0.819-2.508,1.499-3.65
			c0.154-0.26,0.203-0.441-0.029-0.762c-1.199-1.645-2.337-3.332-3.522-5.045c0.789-0.789,1.588-1.586,2.386-2.385
			c0.439-0.438,0.893-0.863,1.311-1.32c0.199-0.215,0.376-0.186,0.563-0.051c1.57,1.125,3.14,2.252,4.703,3.387
			c0.195,0.145,0.353,0.248,0.605,0.111c1.242-0.684,2.525-1.264,3.916-1.582c0.092-0.021,0.193-0.186,0.212-0.295
			c0.319-1.857,0.679-3.711,0.903-5.582c0.072-0.611,0.29-0.643,0.764-0.637c1.627,0.02,3.257,0.008,4.939,0.008
			c0.385,2.172,0.766,4.334,1.12,6.34c1.526,0.637,2.948,1.23,4.442,1.854c1.594-1.152,3.292-2.385,5.007-3.596
			c0.116-0.082,0.433-0.055,0.536,0.045c1.169,1.133,2.32,2.285,3.456,3.455c0.097,0.102,0.115,0.414,0.032,0.535
			c-1.133,1.656-2.283,3.301-3.444,4.936c-0.142,0.199-0.11,0.297-0.017,0.514c0.541,1.236,1.027,2.494,1.552,3.736
			c0.06,0.143,0.239,0.303,0.386,0.328c1.449,0.268,2.904,0.51,4.359,0.75c0.48,0.078,0.965,0.135,1.449,0.193
			c0.228,0.027,0.42,0.055,0.414,0.363c-0.011,0.854-0.004,1.705-0.004,2.586c-4.936,0-9.846,0-14.795,0
			c0.032-2.051-0.758-3.789-2.164-5.213c-1.424-1.443-3.242-2.186-5.248-2.086c-4.178,0.211-6.622,3.209-7.031,6.355
			c-0.559,4.279,2.78,8.139,7.236,8.186c0,4.896,0,9.795,0,14.764c-0.898,0-1.806,0.01-2.715-0.014
			c-0.082-0.002-0.21-0.207-0.231-0.33c-0.323-1.936-0.624-3.875-0.954-5.809c-0.024-0.148-0.198-0.33-0.346-0.389
			c-0.871-0.35-1.762-0.648-2.633-1.002c-0.489-0.199-0.949-0.471-1.432-0.713c-1.695,1.191-3.396,2.393-5.111,3.574
			c-0.115,0.08-0.412,0.072-0.506-0.02c-1.188-1.158-2.363-2.332-3.52-3.521c-0.087-0.086-0.1-0.365-0.025-0.471
			c1.115-1.578,2.25-3.143,3.384-4.705c0.183-0.252,0.233-0.459,0.06-0.766c-0.662-1.18-1.213-2.408-1.52-3.736
			c-0.023-0.105-0.194-0.225-0.314-0.25c-1.162-0.229-2.326-0.443-3.491-0.656c-0.896-0.16-1.795-0.311-2.69-0.467
			C-1727.252,1620.179-1727.252,1618.316-1727.252,1616.455z"/>
		<path fill-rule="evenodd" clip-rule="evenodd" fill="#BF1F3A" d="M-1679.572,1644.931c-7.371,0-14.691,0-22.07,0
			c0-0.176,0-0.34,0-0.506c0-6.486-0.002-12.973,0-19.461c0-1.277,0.813-2.084,2.096-2.084c5.991-0.002,11.981,0.01,17.973-0.012
			c1.15-0.004,2.026,0.871,2.021,1.992c-0.038,6.486-0.02,12.973-0.02,19.461
			C-1679.572,1644.507-1679.572,1644.693-1679.572,1644.931z M-1697.793,1628.488c0,4.26,0,8.486,0,12.701c4.848,0,9.664,0,14.473,0
			c0-4.252,0-8.467,0-12.701C-1688.149,1628.488-1692.954,1628.488-1697.793,1628.488z"/>
		<path fill-rule="evenodd" clip-rule="evenodd" fill="#BF1F3A" d="M-1692.445,1632.078c0.699-0.703,1.349-1.346,1.988-1.994
			c0.445-0.453,0.976-0.654,1.58-0.436c0.959,0.346,1.175,1.451,0.42,2.244c-0.963,1.012-1.957,1.992-2.961,2.965
			c-0.551,0.533-1.215,0.596-1.813,0.088c-0.648-0.551-1.26-1.172-1.786-1.842c-0.442-0.564-0.276-1.256,0.252-1.691
			c0.567-0.467,1.177-0.426,1.765,0.07C-1692.811,1631.64-1692.662,1631.843-1692.445,1632.078z"/>
		<path fill-rule="evenodd" clip-rule="evenodd" fill="#BF1F3A" d="M-1692.456,1637.605c0.73-0.74,1.366-1.396,2.017-2.039
			c0.4-0.396,0.869-0.588,1.451-0.455c1.039,0.238,1.279,1.5,0.553,2.256c-1.01,1.049-2.025,2.096-3.098,3.08
			c-0.482,0.439-1.078,0.557-1.863-0.094c-0.576-0.479-1.094-1.045-1.563-1.631c-0.487-0.613-0.366-1.314,0.21-1.832
			c0.471-0.422,1.224-0.4,1.768,0.102C-1692.803,1637.158-1692.662,1637.365-1692.456,1637.605z"/>
	</g>
</g>
<g>
	<linearGradient id="SVGID_2_" gradientUnits="userSpaceOnUse" x1="60.0005" y1="118.4126" x2="60.0005" y2="2.0955">
		<stop  offset="0.0871" style="stop-color:#FBFCFC"/>
		<stop  offset="1" style="stop-color:#CCCCCC"/>
	</linearGradient>
	
		<circle fill-rule="evenodd" clip-rule="evenodd" fill="url(#SVGID_2_)" stroke="#CCCCCC" stroke-width="0.6891" stroke-miterlimit="10" cx="60" cy="59.834" r="50.499"/>
	<g>
		<path fill-rule="evenodd" clip-rule="evenodd" fill="#BF1F3A" d="M95.104,66.019c-0.638-1.789-2.346-1.67-3.825-2.176
			c-0.759,2.829-1.511,5.613-2.308,8.578c1.047,0.212,2.059,0.563,3.077,0.581c0.958,0.019,1.54-0.713,1.785-1.654
			c0.361-1.379,0.734-2.754,1.108-4.129c0.034-0.128,0.107-0.246,0.164-0.367C95.104,66.572,95.104,66.295,95.104,66.019z"/>
		<path fill-rule="evenodd" clip-rule="evenodd" fill="#BF1F3A" d="M68.138,70.693c-0.131,0.581-0.438,0.717-0.987,0.65
			c-3.62-0.447-7.239-0.668-10.895-0.428c-3.742,0.246-7.4,0.866-10.997,1.915c-0.417,0.122-1.104,0.147-1.323-0.092
			c-0.261-0.289-0.296-0.949-0.187-1.386c0.748-2.969,1.542-5.932,2.371-8.88c0.183-0.65,0.048-0.907-0.583-1.159
			c-2.428-0.961-3.46-3.067-3.394-5.082c0.108-3.224,2.509-5.25,5.421-5.382c0.533-0.023,1.255,0.221,1.555-0.042
			c0.365-0.32,0.376-1.042,0.538-1.594c0.027-0.088,0.044-0.18,0.07-0.268c0.638-2.358,1.271-4.715,1.915-7.072
			c0.302-1.102,0.989-1.278,1.803-0.473c0.216,0.213,0.419,0.433,0.629,0.647c2.411,2.469,5.046,4.665,7.921,6.576
			c3.123,2.077,6.448,3.77,9.889,5.247c0.346,0.149,0.698,0.237,0.554,0.764c-0.904,3.311-1.803,6.623-2.678,9.943
			c-0.135,0.517-0.42,0.559-0.864,0.521c-2.659-0.233-5.316-0.532-7.982-0.646c-3.506-0.151-7.005,0.054-10.486,0.527
			c-0.792,0.107-1.305,0.635-1.226,1.3c0.084,0.708,0.738,1.089,1.544,1.01c1.991-0.194,3.987-0.469,5.984-0.482
			c3.039-0.02,6.083,0.135,9.12,0.262c1.005,0.043,2.001,0.227,3.127,0.361C68.672,68.603,68.375,69.642,68.138,70.693z
			 M46.581,58.627c0.331,0.132,0.529,0.074,0.622-0.275c0.358-1.333,0.722-2.662,1.073-3.994c0.143-0.545-0.281-0.554-0.614-0.579
			c-1.326-0.103-2.611,1.17-2.614,2.565C45.047,57.284,45.742,58.296,46.581,58.627z"/>
		<path fill-rule="evenodd" clip-rule="evenodd" fill="#BF1F3A" d="M85.487,74.588c0.452-1.682,0.897-3.346,1.345-5.011
			c0.785-2.937,1.568-5.875,2.367-8.811c0.102-0.384,0.116-0.626-0.343-0.787c-4.477-1.574-8.948-3.167-13.422-4.753
			c-0.064-0.022-0.134-0.021-0.288-0.045c-0.926,3.454-1.851,6.912-2.794,10.436c1.498,0.275,2.919,0.518,4.336,0.797
			c1.74,0.343,3.476,0.713,5.21,1.086c0.83,0.178,1.183,0.659,1.035,1.341c-0.141,0.647-0.711,0.932-1.536,0.766
			c-2.596-0.52-5.194-1.043-7.794-1.554c-0.584-0.114-1.174-0.183-1.827-0.283c-0.371,1.382-0.722,2.703-1.084,4.055
			C75.659,72.753,80.541,73.666,85.487,74.588z"/>
		<path fill-rule="evenodd" clip-rule="evenodd" fill="#BF1F3A" d="M70.078,75.009c-0.663,1.907-1.301,3.729-1.934,5.553
			c-0.92,2.654-1.836,5.313-2.754,7.969c-0.379,1.094-0.217,1.451,0.842,1.852c1.657,0.632,3.315,1.261,4.976,1.888
			c1.006,0.38,1.47,0.14,1.718-0.89c0.646-2.665,1.276-5.334,1.951-7.987c0.085-0.333,0.356-0.748,0.651-0.874
			c2.189-0.948,3.601-2.527,4.202-4.837c0.068-0.261,0.207-0.505,0.352-0.85C76.729,76.221,73.449,75.623,70.078,75.009z"/>
		<path fill-rule="evenodd" clip-rule="evenodd" fill="#BF1F3A" d="M27.066,75.371c0.835-0.225,1.879-0.508,2.923-0.785
			c2.004-0.535,4.005-1.069,6.006-1.604c0.457-0.123,0.886-0.365,0.818-0.873c-0.044-0.331-0.32-0.676-0.583-0.912
			c-0.135-0.12-0.484-0.068-0.714-0.008c-2.961,0.78-5.918,1.577-8.878,2.364c-0.594,0.159-0.841,0.548-0.748,1.136
			C25.975,75.211,26.341,75.405,27.066,75.371z"/>
		<path fill-rule="evenodd" clip-rule="evenodd" fill="#BF1F3A" d="M35.665,54.459c0.678,0.037,1.07-0.171,1.163-0.715
			c0.1-0.61-0.255-0.951-0.809-1.1c-2.6-0.7-5.204-1.394-7.806-2.089c-0.379-0.102-0.762-0.183-1.136-0.297
			c-0.568-0.172-0.962,0.053-1.169,0.56c-0.213,0.522,0.079,1.046,0.694,1.229c0.972,0.288,1.957,0.526,2.933,0.79
			c1.891,0.506,3.779,1.018,5.67,1.523C35.403,54.415,35.607,54.446,35.665,54.459z"/>
		<path fill-rule="evenodd" clip-rule="evenodd" fill="#BF1F3A" d="M39.582,46.001c0.266-0.258,0.706-0.491,0.754-0.792
			c0.051-0.314-0.177-0.832-0.448-1.015c-0.97-0.658-2.011-1.212-3.028-1.801c-1.615-0.933-3.226-1.873-4.855-2.782
			c-0.283-0.159-0.68-0.303-0.96-0.224c-0.272,0.077-0.617,0.429-0.65,0.694c-0.033,0.295,0.167,0.735,0.41,0.924
			c0.563,0.432,1.209,0.752,1.826,1.109c2.017,1.164,4.031,2.326,6.048,3.481C38.916,45.73,39.175,45.82,39.582,46.001z"/>
		<path fill-rule="evenodd" clip-rule="evenodd" fill="#BF1F3A" d="M37.381,30.837c0.227,0.357,0.342,0.638,0.539,0.84
			c2.144,2.161,4.296,4.313,6.456,6.459c0.48,0.477,1.008,0.504,1.408,0.127c0.449-0.423,0.427-0.896-0.114-1.438
			c-2.146-2.158-4.29-4.321-6.473-6.443c-0.242-0.236-0.74-0.366-1.076-0.304C37.852,30.128,37.649,30.542,37.381,30.837z"/>
		<path fill-rule="evenodd" clip-rule="evenodd" fill="#BF1F3A" d="M29.916,61.913c-1.5,0-2.998-0.007-4.496,0.003
			c-0.723,0.006-1.074,0.299-1.088,0.866c-0.017,0.604,0.366,0.951,1.087,0.953c3.02,0.005,6.039,0.003,9.06-0.003
			c0.736-0.001,1.133-0.334,1.13-0.916c-0.004-0.61-0.352-0.903-1.128-0.906c-1.522-0.011-3.043-0.002-4.565-0.002
			C29.916,61.908,29.916,61.911,29.916,61.913z"/>
	</g>
</g>
</svg>
