<?xml version="1.0" encoding="utf-8"?>
<!-- Generator: Adobe Illustrator 16.0.0, SVG Export Plug-In . SVG Version: 6.00 Build 0)  -->
<!DOCTYPE svg PUBLIC "-//W3C//DTD SVG 1.1//EN" "http://www.w3.org/Graphics/SVG/1.1/DTD/svg11.dtd">
<svg version="1.1" id="Layer_1" xmlns="http://www.w3.org/2000/svg" xmlns:xlink="http://www.w3.org/1999/xlink" x="0px" y="0px"
	 width="120px" height="120px" viewBox="0 0 120 120" enable-background="new 0 0 120 120" xml:space="preserve">
<path fill-rule="evenodd" clip-rule="evenodd" fill="#002C47" d="M82.911,53.117c0-15.921-12.858-28.783-28.791-28.783
	c-15.918,0-28.78,12.862-28.78,28.783c0,15.922,12.862,28.856,28.78,28.856c5.534,0,10.773-1.572,15.182-4.338l16.374,16.45
	c2.842,2.766,7.402,2.766,10.167,0c2.838-2.845,2.838-7.405,0-10.244L79.241,67.244C81.554,63.06,82.911,58.272,82.911,53.117
	L82.911,53.117z M54.12,74.723c-11.877,0-21.599-9.641-21.599-21.606c0-11.892,9.722-21.606,21.599-21.606
	c11.891,0,21.609,9.714,21.609,21.606C75.729,65.082,66.011,74.723,54.12,74.723L54.12,74.723z M42.762,56.331
	c0.301,0.897,0.596,1.714,1.052,2.544l-1.276,1.64c-0.372,0.53-0.372,1.279,0.147,1.794l2.173,2.169
	c0.522,0.522,1.272,0.522,1.787,0.147l1.647-1.345c0.827,0.521,1.721,0.897,2.618,1.125l0.228,2.096
	c0.066,0.669,0.673,1.199,1.342,1.199h3.14c0.673,0,1.268-0.529,1.345-1.199l0.229-2.022c0.967-0.228,1.941-0.603,2.835-1.125
	l1.574,1.272c0.526,0.375,1.272,0.375,1.791-0.147l2.166-2.169c0.529-0.515,0.529-1.265,0.158-1.794l-1.276-1.567
	c0.522-0.904,0.897-1.794,1.199-2.765l1.864-0.228c0.672-0.081,1.202-0.676,1.202-1.345v-3.14c0-0.669-0.529-1.192-1.202-1.346
	l-1.864-0.147c-0.229-0.971-0.604-1.941-1.129-2.765l1.207-1.5c0.371-0.522,0.371-1.265-0.158-1.713l-2.166-2.243
	c-0.519-0.456-1.265-0.53-1.791-0.081l-1.419,1.052c-0.897-0.522-1.875-0.897-2.919-1.199l-0.154-1.794
	c-0.067-0.669-0.666-1.192-1.342-1.192H52.63c-0.669,0-1.272,0.522-1.345,1.192l-0.225,1.794c-1.047,0.301-2.015,0.75-2.992,1.272
	l-1.423-1.125c-0.515-0.449-1.265-0.375-1.787,0.081l-2.173,2.243c-0.519,0.448-0.519,1.191-0.147,1.794l1.202,1.485
	c-0.457,0.904-0.828,1.802-1.055,2.772l-1.938,0.228c-0.677,0.074-1.206,0.669-1.206,1.339v3.14c0,0.677,0.529,1.272,1.206,1.353
	L42.762,56.331z M54.12,45.638c4.122,0,7.482,3.368,7.482,7.479c0,4.185-3.361,7.472-7.482,7.472c-4.107,0-7.476-3.287-7.476-7.472
	C46.645,49.006,50.013,45.638,54.12,45.638L54.12,45.638z M54.12,46.314c3.816,0,6.879,3.06,6.879,6.803
	c0,3.809-3.063,6.876-6.879,6.876c-3.81,0-6.873-3.067-6.873-6.876C47.247,49.374,50.311,46.314,54.12,46.314L54.12,46.314z
	 M54.12,48.558c2.548,0,4.644,2.022,4.644,4.559c0,2.537-2.096,4.633-4.644,4.633c-2.538,0-4.629-2.096-4.629-4.633
	C49.491,50.58,51.583,48.558,54.12,48.558L54.12,48.558z"/>
</svg>
