<?xml version="1.0" encoding="utf-8"?>
<!-- Generator: Adobe Illustrator 16.0.0, SVG Export Plug-In . SVG Version: 6.00 Build 0)  -->
<!DOCTYPE svg PUBLIC "-//W3C//DTD SVG 1.1//EN" "http://www.w3.org/Graphics/SVG/1.1/DTD/svg11.dtd">
<svg version="1.1" id="Layer_1" xmlns="http://www.w3.org/2000/svg" xmlns:xlink="http://www.w3.org/1999/xlink" x="0px" y="0px"
	 width="120px" height="120px" viewBox="0 0 120 120" enable-background="new 0 0 120 120" xml:space="preserve">
<g>
	<linearGradient id="SVGID_1_" gradientUnits="userSpaceOnUse" x1="-1703.2588" y1="1675.0679" x2="-1703.2588" y2="1577.5614">
		<stop  offset="0.0871" style="stop-color:#FBFCFC"/>
		<stop  offset="1" style="stop-color:#CCCCCC"/>
	</linearGradient>
	
		<circle fill-rule="evenodd" clip-rule="evenodd" fill="url(#SVGID_1_)" stroke="#CCCCCC" stroke-width="0.6891" stroke-miterlimit="10" cx="-1703.259" cy="1618.886" r="42.333"/>
	<g>
		<path fill-rule="evenodd" clip-rule="evenodd" fill="#BF1F3A" d="M-1727.252,1616.455c1.09-0.188,2.184-0.377,3.275-0.561
			c0.978-0.16,1.955-0.303,2.928-0.482c0.121-0.021,0.27-0.205,0.306-0.34c0.351-1.279,0.819-2.508,1.499-3.65
			c0.154-0.26,0.203-0.441-0.029-0.762c-1.199-1.645-2.337-3.332-3.522-5.045c0.789-0.789,1.588-1.586,2.386-2.385
			c0.439-0.438,0.893-0.863,1.311-1.32c0.199-0.215,0.376-0.186,0.563-0.051c1.57,1.125,3.14,2.252,4.703,3.387
			c0.195,0.145,0.353,0.248,0.605,0.111c1.242-0.684,2.525-1.264,3.916-1.582c0.092-0.021,0.193-0.186,0.212-0.295
			c0.319-1.857,0.679-3.711,0.903-5.582c0.072-0.611,0.29-0.643,0.764-0.637c1.627,0.02,3.257,0.008,4.939,0.008
			c0.385,2.172,0.766,4.334,1.12,6.34c1.526,0.637,2.948,1.23,4.442,1.854c1.594-1.152,3.292-2.385,5.007-3.596
			c0.116-0.082,0.433-0.055,0.536,0.045c1.169,1.133,2.32,2.285,3.456,3.455c0.097,0.102,0.115,0.414,0.032,0.535
			c-1.133,1.656-2.283,3.301-3.444,4.936c-0.142,0.199-0.11,0.297-0.017,0.514c0.541,1.236,1.027,2.494,1.552,3.736
			c0.06,0.143,0.239,0.303,0.386,0.328c1.449,0.268,2.904,0.51,4.359,0.75c0.48,0.078,0.965,0.135,1.449,0.193
			c0.228,0.027,0.42,0.055,0.414,0.363c-0.011,0.854-0.004,1.705-0.004,2.586c-4.936,0-9.846,0-14.795,0
			c0.032-2.051-0.758-3.789-2.164-5.213c-1.424-1.443-3.242-2.186-5.248-2.086c-4.178,0.211-6.622,3.209-7.031,6.355
			c-0.559,4.279,2.78,8.139,7.236,8.186c0,4.896,0,9.795,0,14.764c-0.898,0-1.806,0.01-2.715-0.014
			c-0.082-0.002-0.21-0.207-0.231-0.33c-0.323-1.936-0.624-3.875-0.954-5.809c-0.024-0.148-0.198-0.33-0.346-0.389
			c-0.871-0.35-1.762-0.648-2.633-1.002c-0.489-0.199-0.949-0.471-1.432-0.713c-1.695,1.191-3.396,2.393-5.111,3.574
			c-0.115,0.08-0.412,0.072-0.506-0.02c-1.188-1.158-2.363-2.332-3.52-3.521c-0.087-0.086-0.1-0.365-0.025-0.471
			c1.115-1.578,2.25-3.143,3.384-4.705c0.183-0.252,0.233-0.459,0.06-0.766c-0.662-1.18-1.213-2.408-1.52-3.736
			c-0.023-0.105-0.194-0.225-0.314-0.25c-1.162-0.229-2.326-0.443-3.491-0.656c-0.896-0.16-1.795-0.311-2.69-0.467
			C-1727.252,1620.179-1727.252,1618.316-1727.252,1616.455z"/>
		<path fill-rule="evenodd" clip-rule="evenodd" fill="#BF1F3A" d="M-1679.572,1644.931c-7.371,0-14.691,0-22.07,0
			c0-0.176,0-0.34,0-0.506c0-6.486-0.002-12.973,0-19.461c0-1.277,0.813-2.084,2.096-2.084c5.991-0.002,11.981,0.01,17.973-0.012
			c1.15-0.004,2.026,0.871,2.021,1.992c-0.038,6.486-0.02,12.973-0.02,19.461
			C-1679.572,1644.507-1679.572,1644.693-1679.572,1644.931z M-1697.793,1628.488c0,4.26,0,8.486,0,12.701c4.848,0,9.664,0,14.473,0
			c0-4.252,0-8.467,0-12.701C-1688.149,1628.488-1692.954,1628.488-1697.793,1628.488z"/>
		<path fill-rule="evenodd" clip-rule="evenodd" fill="#BF1F3A" d="M-1692.445,1632.078c0.699-0.703,1.349-1.346,1.988-1.994
			c0.445-0.453,0.976-0.654,1.58-0.436c0.959,0.346,1.175,1.451,0.42,2.244c-0.963,1.012-1.957,1.992-2.961,2.965
			c-0.551,0.533-1.215,0.596-1.813,0.088c-0.648-0.551-1.26-1.172-1.786-1.842c-0.442-0.564-0.276-1.256,0.252-1.691
			c0.567-0.467,1.177-0.426,1.765,0.07C-1692.811,1631.64-1692.662,1631.843-1692.445,1632.078z"/>
		<path fill-rule="evenodd" clip-rule="evenodd" fill="#BF1F3A" d="M-1692.456,1637.605c0.73-0.74,1.366-1.396,2.017-2.039
			c0.4-0.396,0.869-0.588,1.451-0.455c1.039,0.238,1.279,1.5,0.553,2.256c-1.01,1.049-2.025,2.096-3.098,3.08
			c-0.482,0.439-1.078,0.557-1.863-0.094c-0.576-0.479-1.094-1.045-1.563-1.631c-0.487-0.613-0.366-1.314,0.21-1.832
			c0.471-0.422,1.224-0.4,1.768,0.102C-1692.803,1637.158-1692.662,1637.365-1692.456,1637.605z"/>
	</g>
</g>
<g>
	<circle fill-rule="evenodd" clip-rule="evenodd" fill="#BF1F3A" cx="60" cy="59.834" r="50.499"/>
	<g>
		<path fill-rule="evenodd" clip-rule="evenodd" fill="#FFFFFF" d="M63.701,45.961c0.255-0.063,0.507-0.132,0.764-0.186
			c0.8-0.168,1.299,0.06,1.668,0.784c0.751,1.486,1.142,3.061,1.167,4.723c0.012,0.765-0.327,1.217-1.079,1.434
			c-0.523,0.151-1.057,0.272-1.586,0.399c-0.585,0.139-0.856,0.492-0.924,1.1c-0.116,1.039-0.274,2.07-0.471,3.095
			c-0.118,0.604,0.035,1.017,0.56,1.322c0.471,0.271,0.94,0.55,1.396,0.85c0.582,0.379,0.791,0.917,0.582,1.582
			c-0.514,1.651-1.381,3.103-2.602,4.334c-0.514,0.518-1.074,0.568-1.726,0.193c-0.474-0.27-0.939-0.555-1.402-0.845
			c-0.486-0.303-0.911-0.261-1.375,0.102c-0.836,0.659-1.7,1.286-2.58,1.884c-0.48,0.33-0.672,0.72-0.535,1.278
			c0.128,0.529,0.274,1.057,0.382,1.591c0.159,0.768-0.07,1.269-0.76,1.623c-1.5,0.771-3.097,1.166-4.782,1.188
			c-0.735,0.011-1.188-0.334-1.39-1.046c-0.154-0.545-0.28-1.099-0.417-1.648c-0.138-0.555-0.479-0.822-1.061-0.89
			c-1.036-0.122-2.071-0.272-3.094-0.475c-0.63-0.126-1.059,0.036-1.369,0.586c-0.258,0.454-0.532,0.903-0.814,1.342
			c-0.389,0.602-0.951,0.819-1.636,0.602c-1.608-0.51-3.024-1.345-4.23-2.527c-0.598-0.585-0.656-1.143-0.224-1.883
			c0.264-0.452,0.54-0.898,0.813-1.345c0.286-0.466,0.237-0.888-0.096-1.325c-0.66-0.861-1.306-1.736-1.929-2.63
			c-0.314-0.447-0.696-0.639-1.226-0.513c-0.553,0.13-1.101,0.28-1.656,0.394c-0.729,0.152-1.226-0.079-1.57-0.742
			c-0.78-1.494-1.174-3.094-1.205-4.776c-0.015-0.76,0.346-1.233,1.078-1.438c0.546-0.154,1.101-0.271,1.653-0.409
			c0.526-0.132,0.788-0.471,0.857-1.019c0.138-1.077,0.3-2.153,0.488-3.222c0.094-0.542-0.044-0.94-0.519-1.223
			c-0.466-0.279-0.937-0.557-1.395-0.852c-0.642-0.411-0.855-0.97-0.622-1.683c0.52-1.602,1.366-3.016,2.541-4.225
			c0.536-0.555,1.094-0.622,1.775-0.237c0.456,0.258,0.908,0.525,1.346,0.811c0.534,0.352,0.988,0.282,1.485-0.114
			c0.819-0.647,1.669-1.255,2.531-1.845c0.479-0.327,0.668-0.719,0.531-1.277c-0.121-0.488-0.245-0.974-0.362-1.463
			c-0.208-0.886,0.036-1.416,0.854-1.812c1.451-0.705,2.985-1.091,4.602-1.124c0.771-0.017,1.24,0.307,1.456,1.045
			c0.168,0.565,0.291,1.141,0.436,1.711c0.131,0.505,0.46,0.752,0.977,0.821c1.075,0.147,2.154,0.301,3.223,0.494
			c0.57,0.102,0.978-0.048,1.272-0.546c0.275-0.471,0.558-0.938,0.85-1.395c0.378-0.586,0.923-0.814,1.573-0.615
			c1.68,0.513,3.149,1.388,4.384,2.637c0.49,0.493,0.543,1.052,0.193,1.676c-0.254,0.457-0.522,0.909-0.81,1.347
			c-0.368,0.55-0.315,1.02,0.109,1.539c0.643,0.793,1.245,1.621,1.812,2.471c0.341,0.509,0.744,0.702,1.326,0.552
			c0.255-0.065,0.508-0.124,0.763-0.187V45.961z M45.935,43.613c-5.403,1.317-8.726,6.751-7.434,12.162
			c1.273,5.331,6.753,8.728,12.032,7.46c5.548-1.333,8.87-6.728,7.542-12.25C56.794,45.657,51.289,42.313,45.935,43.613z"/>
		<path fill-rule="evenodd" clip-rule="evenodd" fill="#FFFFFF" d="M73.873,62.439c0.111-0.42,0.009-0.647-0.385-0.885
			c-2.458-1.462-4.865-3.004-7.35-4.419c-0.85-0.484-1.164-0.957-0.907-1.925c0.225-0.841,0.281-0.931,1.055-0.458
			c2.054,1.242,4.108,2.486,6.152,3.74c0.498,0.305,0.968,0.657,1.449,0.99c0.077-0.059,0.153-0.117,0.229-0.176
			c-0.373-1.531-0.747-3.063-1.113-4.552c1.861,0.006,3.664,0.01,5.506,0.013c0.019,0.049,0.065,0.146,0.093,0.25
			c0.696,2.58,0.933,5.201,0.498,7.838c-1.687,10.309-10.594,18.751-23.313,16.962c-2.528-0.355-4.999-0.185-7.434,0.563
			c-0.503,0.156-0.988,0.381-1.594,0.614c3.485,2.157,6.849,4.242,10.212,6.323c0.076-0.061,0.152-0.121,0.227-0.18
			c-0.372-1.527-0.744-3.054-1.104-4.529c1.878,0.006,3.676,0.012,5.483,0.015c1.522,4.718,0.97,10.791-2.146,15.529
			c-1.473-0.882-2.942-1.766-4.424-2.653c0.18-0.343,0.372-0.702,0.513-0.966c-4.839-2.948-9.622-5.861-14.428-8.787
			c-0.204,0.288-0.435,0.617-0.589,0.836c-1.521-0.9-2.993-1.767-4.481-2.648c0.118-0.186,0.24-0.393,0.375-0.59
			c4.78-6.991,11.511-9.616,19.752-8.729c1.925,0.209,3.821,0.279,5.727-0.035c1.192-0.199,2.341-0.54,3.52-1.104
			c-0.282-0.18-0.46-0.3-0.646-0.412c-2.312-1.403-4.633-2.794-6.928-4.229c-0.26-0.162-0.54-0.586-0.512-0.853
			c0.061-0.534,1.467-0.998,1.936-0.711c2.631,1.599,5.256,3.199,7.897,4.779c0.176,0.108,0.523,0.158,0.665,0.055
			c0.661-0.477,1.277-1.02,2.015-1.626c-2.059-1.231-3.998-2.39-5.95-3.558c0.521-0.528,1.006-1.017,1.591-1.606
			c1.877,1.162,3.762,2.33,5.625,3.483c0.47-0.75,0.928-1.479,1.46-2.33c-1.96-1.17-3.866-2.309-5.756-3.438
			c0.222-0.656,0.434-1.288,0.672-1.992c1.953,1.198,3.86,2.371,5.893,3.619C73.547,63.835,73.691,63.132,73.873,62.439z
			 M56.472,92.401c0.174-0.789,0.37-1.587,0.5-2.391c0.027-0.158-0.151-0.431-0.311-0.527c-3.87-2.372-7.747-4.733-11.637-7.072
			c-0.165-0.099-0.518-0.093-0.667,0.019c-0.625,0.465-1.208,0.989-1.82,1.505C47.222,86.781,51.805,89.564,56.472,92.401z"/>
		<path fill-rule="evenodd" clip-rule="evenodd" fill="#FFFFFF" d="M73.469,46.814c2.478,0.384,4.912,0.177,7.3-0.563
			c0.501-0.154,0.979-0.372,1.368-0.522c-3.354-2.045-6.69-4.078-10.127-6.177c0.372,1.522,0.737,3.013,1.092,4.474
			c-1.858-0.005-3.671-0.009-5.485-0.014c-1.635-4.724-0.575-12.22,2.135-15.507c1.487,0.877,2.96,1.75,4.436,2.621
			c-0.191,0.366-0.385,0.744-0.533,1.032c4.834,2.942,9.6,5.843,14.408,8.769c0.218-0.304,0.463-0.651,0.639-0.895
			c1.513,0.894,2.988,1.763,4.488,2.648c-3.452,5.529-8.42,8.633-14.905,9.426c-3.154,0.386-6.237-0.453-9.311-0.325
			c-0.096-0.87-0.147-1.713-0.292-2.539c-0.147-0.833-0.391-1.648-0.613-2.563C69.881,46.495,71.677,46.536,73.469,46.814z
			 M72.219,36.684c-0.025,0.148,0.122,0.406,0.263,0.493c3.885,2.379,7.778,4.742,11.68,7.094c0.139,0.084,0.436,0.096,0.56,0.004
			c0.658-0.489,1.287-1.021,1.917-1.534c-4.665-2.834-9.259-5.626-13.923-8.464C72.544,35.071,72.354,35.872,72.219,36.684z"/>
	</g>
</g>
</svg>
