<?xml version="1.0" encoding="utf-8"?>
<!-- Generator: Adobe Illustrator 16.0.0, SVG Export Plug-In . SVG Version: 6.00 Build 0)  -->
<!DOCTYPE svg PUBLIC "-//W3C//DTD SVG 1.1//EN" "http://www.w3.org/Graphics/SVG/1.1/DTD/svg11.dtd">
<svg version="1.1" id="Layer_1" xmlns="http://www.w3.org/2000/svg" xmlns:xlink="http://www.w3.org/1999/xlink" x="0px" y="0px"
	 width="120px" height="120px" viewBox="0 0 120 120" enable-background="new 0 0 120 120" xml:space="preserve">
<g>
	<linearGradient id="SVGID_1_" gradientUnits="userSpaceOnUse" x1="-1703.2588" y1="1675.0679" x2="-1703.2588" y2="1577.5614">
		<stop  offset="0.0871" style="stop-color:#FBFCFC"/>
		<stop  offset="1" style="stop-color:#CCCCCC"/>
	</linearGradient>
	
		<circle fill-rule="evenodd" clip-rule="evenodd" fill="url(#SVGID_1_)" stroke="#CCCCCC" stroke-width="0.6891" stroke-miterlimit="10" cx="-1703.259" cy="1618.886" r="42.333"/>
	<g>
		<path fill-rule="evenodd" clip-rule="evenodd" fill="#BF1F3A" d="M-1727.252,1616.455c1.09-0.188,2.184-0.377,3.275-0.561
			c0.978-0.16,1.955-0.303,2.928-0.482c0.121-0.021,0.27-0.205,0.306-0.34c0.351-1.279,0.819-2.508,1.499-3.65
			c0.154-0.26,0.203-0.441-0.029-0.762c-1.199-1.645-2.337-3.332-3.522-5.045c0.789-0.789,1.588-1.586,2.386-2.385
			c0.439-0.438,0.893-0.863,1.311-1.32c0.199-0.215,0.376-0.186,0.563-0.051c1.57,1.125,3.14,2.252,4.703,3.387
			c0.195,0.145,0.353,0.248,0.605,0.111c1.242-0.684,2.525-1.264,3.916-1.582c0.092-0.021,0.193-0.186,0.212-0.295
			c0.319-1.857,0.679-3.711,0.903-5.582c0.072-0.611,0.29-0.643,0.764-0.637c1.627,0.02,3.257,0.008,4.939,0.008
			c0.385,2.172,0.766,4.334,1.12,6.34c1.526,0.637,2.948,1.23,4.442,1.854c1.594-1.152,3.292-2.385,5.007-3.596
			c0.116-0.082,0.433-0.055,0.536,0.045c1.169,1.133,2.32,2.285,3.456,3.455c0.097,0.102,0.115,0.414,0.032,0.535
			c-1.133,1.656-2.283,3.301-3.444,4.936c-0.142,0.199-0.11,0.297-0.017,0.514c0.541,1.236,1.027,2.494,1.552,3.736
			c0.06,0.143,0.239,0.303,0.386,0.328c1.449,0.268,2.904,0.51,4.359,0.75c0.48,0.078,0.965,0.135,1.449,0.193
			c0.228,0.027,0.42,0.055,0.414,0.363c-0.011,0.854-0.004,1.705-0.004,2.586c-4.936,0-9.846,0-14.795,0
			c0.032-2.051-0.758-3.789-2.164-5.213c-1.424-1.443-3.242-2.186-5.248-2.086c-4.178,0.211-6.622,3.209-7.031,6.355
			c-0.559,4.279,2.78,8.139,7.236,8.186c0,4.896,0,9.795,0,14.764c-0.898,0-1.806,0.01-2.715-0.014
			c-0.082-0.002-0.21-0.207-0.231-0.33c-0.323-1.936-0.624-3.875-0.954-5.809c-0.024-0.148-0.198-0.33-0.346-0.389
			c-0.871-0.35-1.762-0.648-2.633-1.002c-0.489-0.199-0.949-0.471-1.432-0.713c-1.695,1.191-3.396,2.393-5.111,3.574
			c-0.115,0.08-0.412,0.072-0.506-0.02c-1.188-1.158-2.363-2.332-3.52-3.521c-0.087-0.086-0.1-0.365-0.025-0.471
			c1.115-1.578,2.25-3.143,3.384-4.705c0.183-0.252,0.233-0.459,0.06-0.766c-0.662-1.18-1.213-2.408-1.52-3.736
			c-0.023-0.105-0.194-0.225-0.314-0.25c-1.162-0.229-2.326-0.443-3.491-0.656c-0.896-0.16-1.795-0.311-2.69-0.467
			C-1727.252,1620.179-1727.252,1618.316-1727.252,1616.455z"/>
		<path fill-rule="evenodd" clip-rule="evenodd" fill="#BF1F3A" d="M-1679.572,1644.931c-7.371,0-14.691,0-22.07,0
			c0-0.176,0-0.34,0-0.506c0-6.486-0.002-12.973,0-19.461c0-1.277,0.813-2.084,2.096-2.084c5.991-0.002,11.981,0.01,17.973-0.012
			c1.15-0.004,2.026,0.871,2.021,1.992c-0.038,6.486-0.02,12.973-0.02,19.461
			C-1679.572,1644.507-1679.572,1644.693-1679.572,1644.931z M-1697.793,1628.488c0,4.26,0,8.486,0,12.701c4.848,0,9.664,0,14.473,0
			c0-4.252,0-8.467,0-12.701C-1688.149,1628.488-1692.954,1628.488-1697.793,1628.488z"/>
		<path fill-rule="evenodd" clip-rule="evenodd" fill="#BF1F3A" d="M-1692.445,1632.078c0.699-0.703,1.349-1.346,1.988-1.994
			c0.445-0.453,0.976-0.654,1.58-0.436c0.959,0.346,1.175,1.451,0.42,2.244c-0.963,1.012-1.957,1.992-2.961,2.965
			c-0.551,0.533-1.215,0.596-1.813,0.088c-0.648-0.551-1.26-1.172-1.786-1.842c-0.442-0.564-0.276-1.256,0.252-1.691
			c0.567-0.467,1.177-0.426,1.765,0.07C-1692.811,1631.64-1692.662,1631.843-1692.445,1632.078z"/>
		<path fill-rule="evenodd" clip-rule="evenodd" fill="#BF1F3A" d="M-1692.456,1637.605c0.73-0.74,1.366-1.396,2.017-2.039
			c0.4-0.396,0.869-0.588,1.451-0.455c1.039,0.238,1.279,1.5,0.553,2.256c-1.01,1.049-2.025,2.096-3.098,3.08
			c-0.482,0.439-1.078,0.557-1.863-0.094c-0.576-0.479-1.094-1.045-1.563-1.631c-0.487-0.613-0.366-1.314,0.21-1.832
			c0.471-0.422,1.224-0.4,1.768,0.102C-1692.803,1637.158-1692.662,1637.365-1692.456,1637.605z"/>
	</g>
</g>
<g>
	<linearGradient id="SVGID_2_" gradientUnits="userSpaceOnUse" x1="60" y1="120.187" x2="60" y2="3.8699">
		<stop  offset="0.0871" style="stop-color:#FBFCFC"/>
		<stop  offset="1" style="stop-color:#CCCCCC"/>
	</linearGradient>
	
		<circle fill-rule="evenodd" clip-rule="evenodd" fill="url(#SVGID_2_)" stroke="#CCCCCC" stroke-width="0.6891" stroke-miterlimit="10" cx="60" cy="59.834" r="50.499"/>
	<g>
		<path fill-rule="evenodd" clip-rule="evenodd" fill="#BF1F3A" d="M63.701,45.961c0.254-0.063,0.507-0.132,0.764-0.185
			c0.8-0.168,1.299,0.059,1.667,0.784c0.752,1.485,1.143,3.06,1.169,4.723c0.01,0.764-0.329,1.217-1.081,1.433
			c-0.522,0.152-1.055,0.273-1.586,0.399c-0.583,0.14-0.855,0.493-0.922,1.102c-0.116,1.037-0.275,2.068-0.472,3.094
			c-0.116,0.602,0.035,1.017,0.56,1.321c0.472,0.271,0.941,0.551,1.397,0.851c0.581,0.379,0.789,0.918,0.581,1.582
			c-0.514,1.652-1.38,3.104-2.603,4.334c-0.512,0.517-1.073,0.568-1.726,0.194c-0.472-0.271-0.939-0.556-1.4-0.845
			c-0.486-0.303-0.912-0.261-1.375,0.101c-0.837,0.659-1.701,1.287-2.582,1.884c-0.478,0.329-0.671,0.72-0.534,1.278
			c0.129,0.53,0.274,1.057,0.382,1.59c0.16,0.769-0.071,1.269-0.762,1.624c-1.498,0.771-3.095,1.166-4.781,1.188
			c-0.735,0.011-1.188-0.333-1.388-1.046c-0.156-0.544-0.282-1.098-0.418-1.648c-0.137-0.555-0.479-0.821-1.061-0.889
			c-1.035-0.123-2.07-0.273-3.093-0.477c-0.629-0.125-1.057,0.037-1.369,0.587c-0.259,0.454-0.532,0.903-0.815,1.341
			c-0.388,0.602-0.948,0.819-1.635,0.602c-1.607-0.509-3.024-1.345-4.23-2.525c-0.599-0.586-0.655-1.143-0.225-1.884
			c0.266-0.452,0.542-0.899,0.814-1.345c0.287-0.466,0.238-0.888-0.094-1.325c-0.661-0.862-1.308-1.736-1.93-2.629
			c-0.316-0.449-0.696-0.64-1.227-0.514c-0.553,0.13-1.101,0.281-1.655,0.395c-0.729,0.152-1.226-0.08-1.569-0.742
			c-0.78-1.495-1.174-3.094-1.207-4.777c-0.014-0.76,0.347-1.233,1.079-1.438c0.546-0.155,1.101-0.271,1.652-0.409
			c0.526-0.133,0.789-0.472,0.858-1.018c0.137-1.078,0.301-2.154,0.486-3.224c0.095-0.542-0.042-0.94-0.517-1.222
			c-0.466-0.28-0.939-0.557-1.395-0.852c-0.642-0.412-0.855-0.971-0.623-1.684c0.521-1.602,1.366-3.015,2.54-4.224
			c0.538-0.555,1.096-0.623,1.775-0.237c0.457,0.257,0.91,0.524,1.348,0.812c0.535,0.35,0.987,0.28,1.485-0.115
			c0.818-0.647,1.668-1.255,2.53-1.845c0.478-0.326,0.668-0.72,0.531-1.278c-0.122-0.487-0.244-0.973-0.361-1.462
			c-0.21-0.887,0.036-1.416,0.853-1.812c1.452-0.705,2.986-1.092,4.602-1.125c0.771-0.016,1.241,0.308,1.458,1.045
			c0.168,0.565,0.29,1.142,0.437,1.711c0.128,0.506,0.46,0.753,0.975,0.822c1.077,0.146,2.154,0.302,3.224,0.494
			c0.569,0.101,0.977-0.048,1.271-0.547c0.275-0.47,0.559-0.937,0.852-1.394c0.377-0.586,0.921-0.814,1.572-0.614
			c1.678,0.513,3.148,1.386,4.384,2.635c0.49,0.494,0.542,1.053,0.192,1.678c-0.253,0.457-0.521,0.908-0.809,1.345
			c-0.367,0.551-0.316,1.021,0.109,1.539c0.643,0.793,1.246,1.622,1.813,2.472c0.339,0.51,0.743,0.701,1.324,0.552
			c0.254-0.065,0.508-0.125,0.764-0.188V45.961z M45.934,43.613c-5.404,1.315-8.725,6.75-7.434,12.161
			c1.273,5.331,6.753,8.728,12.032,7.461c5.548-1.333,8.87-6.728,7.543-12.251C56.793,45.657,51.288,42.312,45.934,43.613z"/>
		<path fill-rule="evenodd" clip-rule="evenodd" fill="#BF1F3A" d="M73.872,62.439c0.112-0.421,0.008-0.649-0.385-0.885
			c-2.458-1.462-4.865-3.003-7.349-4.419c-0.85-0.484-1.164-0.958-0.908-1.925c0.225-0.843,0.281-0.931,1.055-0.458
			c2.053,1.242,4.107,2.486,6.152,3.739c0.497,0.306,0.966,0.657,1.447,0.991c0.077-0.059,0.154-0.117,0.23-0.175
			c-0.373-1.531-0.747-3.063-1.112-4.552c1.861,0.006,3.663,0.009,5.504,0.013c0.02,0.05,0.065,0.147,0.094,0.25
			c0.696,2.579,0.934,5.2,0.498,7.839c-1.687,10.309-10.594,18.75-23.313,16.963c-2.526-0.356-4.997-0.187-7.432,0.562
			c-0.504,0.156-0.988,0.38-1.595,0.614c3.484,2.155,6.849,4.238,10.212,6.321c0.076-0.061,0.15-0.121,0.227-0.179
			c-0.373-1.526-0.744-3.055-1.104-4.529c1.878,0.005,3.677,0.012,5.482,0.014c1.523,4.718,0.97,10.793-2.145,15.531
			c-1.473-0.884-2.944-1.766-4.425-2.653c0.181-0.343,0.372-0.702,0.514-0.968c-4.839-2.947-9.623-5.859-14.429-8.785
			c-0.203,0.286-0.434,0.617-0.588,0.836c-1.521-0.899-2.994-1.769-4.482-2.648c0.117-0.187,0.24-0.395,0.375-0.59
			c4.781-6.992,11.511-9.616,19.752-8.729c1.926,0.209,3.821,0.28,5.727-0.036c1.192-0.198,2.342-0.539,3.52-1.103
			c-0.283-0.181-0.46-0.3-0.644-0.413c-2.313-1.403-4.634-2.794-6.929-4.229c-0.259-0.162-0.54-0.586-0.51-0.854
			c0.06-0.534,1.466-0.998,1.936-0.71c2.628,1.598,5.255,3.198,7.896,4.778c0.177,0.107,0.524,0.158,0.664,0.054
			c0.663-0.476,1.279-1.02,2.017-1.625c-2.06-1.231-4-2.39-5.95-3.559c0.521-0.527,1.005-1.017,1.589-1.606
			c1.879,1.162,3.764,2.331,5.626,3.483c0.471-0.749,0.929-1.477,1.46-2.329c-1.959-1.171-3.865-2.309-5.755-3.438
			c0.223-0.657,0.434-1.289,0.671-1.993c1.953,1.199,3.862,2.372,5.893,3.62C73.547,63.834,73.689,63.132,73.872,62.439z
			 M56.472,92.403c0.173-0.793,0.369-1.589,0.5-2.393c0.027-0.158-0.152-0.431-0.31-0.529c-3.871-2.372-7.75-4.729-11.638-7.071
			c-0.166-0.101-0.518-0.091-0.668,0.019c-0.625,0.466-1.209,0.99-1.821,1.506C47.222,86.778,51.803,89.564,56.472,92.403z"/>
		<path fill-rule="evenodd" clip-rule="evenodd" fill="#BF1F3A" d="M73.468,46.814c2.479,0.383,4.914,0.177,7.302-0.563
			c0.499-0.155,0.979-0.373,1.365-0.522c-3.353-2.046-6.688-4.08-10.126-6.177c0.373,1.523,0.737,3.013,1.093,4.474
			c-1.859-0.005-3.672-0.009-5.487-0.014c-1.633-4.724-0.575-12.221,2.137-15.507c1.487,0.877,2.96,1.75,4.434,2.621
			c-0.19,0.366-0.384,0.743-0.533,1.031c4.834,2.942,9.601,5.843,14.409,8.768c0.217-0.304,0.463-0.651,0.638-0.896
			c1.516,0.895,2.988,1.764,4.489,2.649c-3.453,5.529-8.42,8.632-14.905,9.425c-3.153,0.386-6.236-0.453-9.31-0.325
			c-0.098-0.869-0.146-1.712-0.293-2.539c-0.147-0.833-0.39-1.648-0.613-2.563C69.881,46.495,71.676,46.535,73.468,46.814z
			 M72.219,36.683c-0.028,0.149,0.119,0.407,0.261,0.494c3.886,2.377,7.778,4.741,11.68,7.092c0.139,0.085,0.437,0.097,0.56,0.005
			c0.658-0.489,1.286-1.022,1.917-1.534c-4.665-2.834-9.258-5.625-13.921-8.463C72.543,35.071,72.353,35.872,72.219,36.683z"/>
	</g>
</g>
</svg>
