<?xml version="1.0" encoding="utf-8"?>
<!-- Generator: Adobe Illustrator 16.0.0, SVG Export Plug-In . SVG Version: 6.00 Build 0)  -->
<!DOCTYPE svg PUBLIC "-//W3C//DTD SVG 1.1//EN" "http://www.w3.org/Graphics/SVG/1.1/DTD/svg11.dtd">
<svg version="1.1" id="Layer_1" xmlns="http://www.w3.org/2000/svg" xmlns:xlink="http://www.w3.org/1999/xlink" x="0px" y="0px"
	 width="120px" height="120px" viewBox="0 0 120 120" enable-background="new 0 0 120 120" xml:space="preserve">
<g>
	<circle fill-rule="evenodd" clip-rule="evenodd" fill="#BF1F3A" cx="60" cy="59.833" r="50.499"/>
	<g>
		<path fill-rule="evenodd" clip-rule="evenodd" fill="#FFFFFF" d="M31.377,56.934c1.303-0.224,2.606-0.45,3.909-0.667
			c1.165-0.193,2.332-0.361,3.491-0.576c0.145-0.027,0.321-0.246,0.366-0.407c0.419-1.526,0.977-2.991,1.788-4.354
			c0.185-0.311,0.243-0.525-0.034-0.907c-1.431-1.961-2.788-3.977-4.202-6.02c0.94-0.94,1.894-1.892,2.845-2.843
			c0.524-0.523,1.066-1.032,1.565-1.576c0.236-0.257,0.447-0.221,0.669-0.062c1.875,1.342,3.746,2.686,5.611,4.042
			c0.234,0.172,0.42,0.295,0.721,0.131c1.481-0.813,3.013-1.507,4.673-1.887c0.108-0.026,0.23-0.221,0.252-0.352
			c0.38-2.216,0.81-4.427,1.078-6.658c0.085-0.729,0.345-0.767,0.911-0.761c1.94,0.023,3.885,0.009,5.893,0.009
			c0.458,2.591,0.913,5.17,1.334,7.562c1.822,0.761,3.519,1.469,5.3,2.212c1.903-1.374,3.928-2.845,5.973-4.289
			c0.14-0.098,0.516-0.066,0.641,0.052c1.395,1.353,2.767,2.728,4.123,4.123c0.115,0.12,0.137,0.495,0.039,0.639
			c-1.352,1.976-2.723,3.936-4.109,5.887c-0.169,0.238-0.131,0.354-0.02,0.614c0.646,1.472,1.226,2.975,1.851,4.455
			c0.072,0.17,0.285,0.361,0.46,0.393c1.728,0.318,3.464,0.607,5.2,0.894c0.574,0.093,1.152,0.16,1.729,0.231
			c0.271,0.031,0.5,0.066,0.495,0.433c-0.013,1.018-0.004,2.035-0.004,3.084c-5.889,0-11.747,0-17.65,0
			c0.039-2.444-0.903-4.519-2.581-6.218c-1.699-1.72-3.867-2.607-6.261-2.488c-4.983,0.251-7.9,3.827-8.387,7.582
			c-0.666,5.104,3.317,9.708,8.632,9.765c0,5.842,0,11.685,0,17.612c-1.071,0-2.153,0.012-3.238-0.02
			c-0.099,0-0.25-0.245-0.276-0.392c-0.386-2.307-0.744-4.622-1.138-6.928c-0.03-0.178-0.237-0.394-0.413-0.466
			c-1.039-0.416-2.103-0.773-3.14-1.193c-0.585-0.237-1.133-0.562-1.709-0.852c-2.021,1.421-4.05,2.855-6.097,4.265
			c-0.137,0.093-0.49,0.084-0.601-0.024c-1.419-1.379-2.82-2.783-4.201-4.201c-0.103-0.103-0.117-0.436-0.028-0.562
			c1.331-1.88,2.683-3.748,4.036-5.611c0.216-0.303,0.279-0.549,0.07-0.914c-0.79-1.407-1.447-2.874-1.813-4.457
			c-0.027-0.126-0.231-0.268-0.375-0.297c-1.386-0.273-2.774-0.531-4.165-0.783c-1.068-0.192-2.142-0.373-3.21-0.559
			C31.377,61.377,31.377,59.152,31.377,56.934z"/>
		<path fill-rule="evenodd" clip-rule="evenodd" fill="#FFFFFF" d="M88.255,90.902c-8.792,0-17.524,0-26.327,0
			c0-0.207,0-0.405,0-0.6c0-7.738-0.001-15.479,0-23.217c0-1.523,0.969-2.486,2.5-2.486c7.147,0,14.292,0.012,21.44-0.016
			c1.372-0.003,2.417,1.041,2.41,2.379c-0.043,7.737-0.022,15.477-0.022,23.213C88.255,90.397,88.255,90.62,88.255,90.902z
			 M66.521,71.288c0,5.083,0,10.125,0,15.151c5.784,0,11.528,0,17.265,0c0-5.071,0-10.099,0-15.151
			C78.023,71.288,72.292,71.288,66.521,71.288z"/>
		<path fill-rule="evenodd" clip-rule="evenodd" fill="#FFFFFF" d="M72.898,75.57c0.837-0.837,1.611-1.604,2.374-2.379
			c0.532-0.539,1.164-0.779,1.885-0.519c1.143,0.414,1.4,1.73,0.5,2.679c-1.148,1.206-2.335,2.375-3.533,3.533
			c-0.658,0.639-1.448,0.714-2.162,0.107c-0.772-0.659-1.502-1.397-2.129-2.198c-0.528-0.675-0.33-1.5,0.3-2.016
			c0.676-0.558,1.403-0.51,2.105,0.081C72.463,75.048,72.642,75.291,72.898,75.57z"/>
		<path fill-rule="evenodd" clip-rule="evenodd" fill="#FFFFFF" d="M72.886,82.165c0.873-0.884,1.631-1.667,2.407-2.432
			c0.477-0.474,1.034-0.702,1.73-0.543c1.24,0.282,1.527,1.787,0.66,2.69c-1.205,1.25-2.416,2.501-3.695,3.674
			c-0.574,0.525-1.288,0.663-2.222-0.111c-0.688-0.572-1.306-1.248-1.866-1.946c-0.583-0.732-0.438-1.568,0.25-2.187
			c0.559-0.501,1.459-0.477,2.108,0.123C72.474,81.631,72.642,81.876,72.886,82.165z"/>
	</g>
</g>
</svg>
