<?xml version="1.0" encoding="utf-8"?>
<!-- Generator: Adobe Illustrator 16.0.0, SVG Export Plug-In . SVG Version: 6.00 Build 0)  -->
<!DOCTYPE svg PUBLIC "-//W3C//DTD SVG 1.1//EN" "http://www.w3.org/Graphics/SVG/1.1/DTD/svg11.dtd">
<svg version="1.1" id="Layer_1" xmlns="http://www.w3.org/2000/svg" xmlns:xlink="http://www.w3.org/1999/xlink" x="0px" y="0px"
	 width="632px" height="147.76px" viewBox="0 0 632 147.76" enable-background="new 0 0 632 147.76" xml:space="preserve">
<path fill="#474747" d="M20.127,83.776V24.303h1.295l39.581,45.589V24.303h5.863v59.473h-1.332l-39.26-45.035v45.035H20.127z"/>
<path fill="#C40233" d="M165.554,83.776V24.303h9.349c5.424,0,9.394,0.351,11.902,1.051c3.562,0.943,6.397,2.694,8.502,5.254
	c2.105,2.563,3.155,5.582,3.155,9.057c0,2.265-0.479,4.32-1.433,6.168c-0.956,1.846-2.514,3.578-4.67,5.193
	c3.609,1.7,6.253,3.82,7.922,6.368c1.673,2.548,2.508,5.561,2.508,9.037c0,3.343-0.864,6.389-2.59,9.138
	c-1.729,2.748-3.951,4.803-6.679,6.165c-2.726,1.363-6.489,2.042-11.291,2.042H165.554z M176.875,35.097v12.535h2.475
	c2.758,0,4.81-0.58,6.148-1.74c1.34-1.159,2.01-2.736,2.01-4.73c0-1.859-0.637-3.334-1.909-4.426
	c-1.271-1.093-3.205-1.639-5.803-1.639H176.875z M176.875,57.738v15.241h2.839c4.699,0,7.869-0.592,9.505-1.777
	s2.455-2.912,2.455-5.175c0-2.561-0.96-4.583-2.88-6.064c-1.92-1.484-5.108-2.225-9.567-2.225H176.875z"/>
<path fill="#C40233" d="M235.455,22.808c8.414,0,15.649,3.045,21.703,9.137c6.056,6.092,9.084,13.518,9.084,22.277
	c0,8.68-2.987,16.023-8.963,22.035c-5.972,6.01-13.222,9.015-21.744,9.015c-8.928,0-16.346-3.085-22.25-9.257
	c-5.908-6.174-8.862-13.504-8.862-21.996c0-5.687,1.375-10.916,4.126-15.686c2.754-4.771,6.535-8.55,11.351-11.341
	C224.712,24.201,229.898,22.808,235.455,22.808z M235.333,33.885c-5.505,0-10.132,1.914-13.883,5.741
	c-3.75,3.827-5.626,8.691-5.626,14.596c0,6.577,2.362,11.779,7.086,15.606c3.667,2.992,7.877,4.489,12.625,4.489
	c5.369,0,9.943-1.94,13.719-5.823c3.778-3.883,5.669-8.665,5.669-14.353c0-5.662-1.903-10.453-5.71-14.374
	C245.413,35.844,240.781,33.885,235.333,33.885z"/>
<path fill="#C40233" d="M271.475,24.303h11.993c6.57,0,11.248,0.585,14.031,1.757c2.788,1.174,5.028,3.121,6.727,5.843
	c1.697,2.724,2.545,5.945,2.545,9.662c0,3.909-0.938,7.177-2.809,9.806c-1.874,2.626-4.699,4.615-8.469,5.963l14.085,26.441h-12.375
	l-13.373-25.189h-1.036v25.189h-11.319V24.303z M282.794,47.551h3.548c3.598,0,6.08-0.474,7.433-1.418
	c1.361-0.948,2.039-2.517,2.039-4.706c0-1.299-0.337-2.428-1.007-3.387c-0.674-0.961-1.574-1.651-2.701-2.07
	c-1.131-0.42-3.198-0.63-6.208-0.63h-3.104V47.551z"/>
<path fill="#C40233" d="M312.568,24.303h13.411c8.646,0,15.067,1.072,19.27,3.214c4.201,2.143,7.663,5.627,10.381,10.451
	c2.722,4.825,4.078,10.458,4.078,16.901c0,4.582-0.761,8.793-2.282,12.635c-1.517,3.839-3.617,7.029-6.298,9.562
	c-2.681,2.533-5.583,4.285-8.703,5.255c-3.125,0.97-8.539,1.456-16.239,1.456h-13.617V24.303z M323.808,35.219v37.52h5.255
	c5.176,0,8.929-0.593,11.26-1.78c2.331-1.188,4.239-3.185,5.723-5.99c1.48-2.808,2.225-6.26,2.225-10.362
	c0-6.313-1.768-11.211-5.299-14.693c-3.179-3.129-8.284-4.694-15.323-4.694H323.808z"/>
<path fill="#C40233" d="M364.336,24.303h32.467v11.079h-21.227v10.754h21.227v10.875h-21.227v15.647h21.227v11.119h-32.467V24.303z"
	/>
<path fill="#C40233" d="M401.912,24.303h11.992c6.57,0,11.249,0.585,14.036,1.757c2.783,1.174,5.028,3.121,6.726,5.843
	c1.694,2.724,2.541,5.945,2.541,9.662c0,3.909-0.938,7.177-2.808,9.806c-1.875,2.626-4.695,4.615-8.47,5.963l14.09,26.441h-12.379
	l-13.37-25.189h-1.036v25.189h-11.322V24.303z M413.234,47.551h3.544c3.602,0,6.081-0.474,7.438-1.418
	c1.356-0.948,2.035-2.517,2.035-4.706c0-1.299-0.337-2.428-1.008-3.387c-0.674-0.961-1.57-1.651-2.701-2.07
	c-1.126-0.42-3.198-0.63-6.208-0.63h-3.1V47.551z"/>
<path fill="#474747" d="M498.801,35.339l-4.69,3.599c-2.586-3.367-5.694-5.922-9.32-7.66c-3.626-1.739-7.605-2.61-11.947-2.61
	c-4.744,0-9.139,1.141-13.181,3.417c-4.041,2.279-7.174,5.336-9.398,9.178c-2.228,3.842-3.338,8.161-3.338,12.958
	c0,7.25,2.487,13.302,7.462,18.154c4.971,4.85,11.244,7.275,18.821,7.275c8.325,0,15.293-3.26,20.901-9.785l4.69,3.561
	c-2.968,3.772-6.664,6.69-11.1,8.75c-4.433,2.063-9.387,3.094-14.858,3.094c-10.405,0-18.611-3.463-24.622-10.39
	c-5.04-5.849-7.561-12.912-7.561-21.185c0-8.709,3.051-16.032,9.156-21.975c6.104-5.945,13.756-8.915,22.944-8.915
	c5.554,0,10.565,1.099,15.039,3.295C492.276,28.298,495.939,31.378,498.801,35.339z"/>
<path fill="#474747" d="M504.516,24.303h5.944v53.732h22.884v5.741h-28.828V24.303z"/>
<path fill="#474747" d="M536.756,24.303h5.944v35.901c0,4.259,0.078,6.915,0.238,7.965c0.301,2.344,0.987,4.306,2.064,5.883
	c1.081,1.577,2.737,2.898,4.974,3.962c2.237,1.066,4.486,1.598,6.751,1.598c1.97,0,3.856-0.418,5.661-1.254
	c1.805-0.834,3.313-1.995,4.53-3.477c1.213-1.482,2.102-3.274,2.669-5.377c0.402-1.509,0.604-4.608,0.604-9.3V24.303h5.945v35.901
	c0,5.311-0.522,9.604-1.554,12.878c-1.04,3.274-3.116,6.125-6.233,8.551c-3.111,2.425-6.878,3.638-11.297,3.638
	c-4.798,0-8.909-1.146-12.334-3.436c-3.42-2.292-5.715-5.324-6.869-9.097c-0.732-2.318-1.094-6.495-1.094-12.535V24.303z"/>
<path fill="#474747" d="M584.725,24.303h11.722c4.715,0,8.346,0.559,10.878,1.676c2.532,1.12,4.534,2.839,6.002,5.155
	c1.473,2.318,2.204,4.894,2.204,7.723c0,2.643-0.642,5.047-1.929,7.218c-1.291,2.169-3.182,3.927-5.673,5.275
	c3.092,1.051,5.468,2.284,7.133,3.699c1.665,1.414,2.964,3.126,3.894,5.136c0.925,2.007,1.39,4.185,1.39,6.528
	c0,4.77-1.748,8.808-5.238,12.109c-3.49,3.304-8.173,4.954-14.048,4.954h-16.334V24.303z M590.547,30.125v19.043h3.403
	c4.128,0,7.17-0.384,9.114-1.152c1.945-0.768,3.482-1.981,4.617-3.639s1.706-3.497,1.706-5.519c0-2.721-0.953-4.858-2.861-6.407
	c-1.903-1.551-4.934-2.326-9.094-2.326H590.547z M590.547,55.151v22.803h7.371c4.346,0,7.527-0.423,9.559-1.273
	c2.022-0.85,3.65-2.175,4.876-3.983c1.229-1.806,1.846-3.758,1.846-5.861c0-2.644-0.863-4.947-2.595-6.915
	c-1.727-1.967-4.099-3.313-7.12-4.042c-2.026-0.485-5.55-0.728-10.574-0.728H590.547z"/>
<path fill="#474747" d="M115.657,6c-9.898,0-45.137,5.186-45.137,49.733l5.661-8.014l8.247,12.019v23.101l8.251,7.07V58.563
	l10.015-10.019l9.312,9.311v36.77h3.651h3.655v-36.77l9.312-9.311l10.015,10.019V89.91l8.251-7.07V59.738l8.247-12.019l5.657,8.014
	C160.793,11.186,125.559,6,115.657,6z"/>
<g>
	<path fill="#474747" d="M151.2,118.449c0-1.412,0.249-2.819,0.745-4.221c0.497-1.401,1.219-2.653,2.168-3.757
		c0.948-1.104,2.113-2.003,3.493-2.698c1.379-0.695,2.952-1.043,4.718-1.043c2.096,0,3.884,0.48,5.363,1.44
		c1.479,0.96,2.583,2.191,3.311,3.691l-1.39,0.794c-0.42-0.816-0.911-1.5-1.474-2.052c-0.563-0.552-1.17-0.999-1.821-1.341
		c-0.651-0.342-1.33-0.59-2.036-0.745c-0.707-0.154-1.402-0.231-2.086-0.231c-1.501,0-2.825,0.304-3.973,0.91
		c-1.148,0.607-2.119,1.396-2.913,2.367c-0.795,0.971-1.396,2.069-1.805,3.294c-0.408,1.225-0.612,2.456-0.612,3.691
		c0,1.391,0.243,2.715,0.729,3.973c0.485,1.258,1.147,2.367,1.986,3.327c0.838,0.96,1.832,1.727,2.979,2.301
		c1.147,0.574,2.384,0.86,3.708,0.86c0.706,0,1.434-0.088,2.185-0.265c0.75-0.176,1.468-0.452,2.152-0.827
		c0.684-0.375,1.324-0.855,1.92-1.44c0.596-0.584,1.092-1.274,1.49-2.069l1.457,0.695c-0.397,0.883-0.938,1.667-1.622,2.35
		c-0.685,0.685-1.446,1.258-2.284,1.722c-0.839,0.464-1.728,0.811-2.665,1.043c-0.938,0.232-1.86,0.348-2.765,0.348
		c-1.611,0-3.084-0.353-4.419-1.06c-1.335-0.706-2.489-1.627-3.459-2.764c-0.972-1.136-1.728-2.428-2.268-3.874
		C151.47,121.424,151.2,119.951,151.2,118.449z"/>
	<path fill="#474747" d="M182.385,130.699c-1.214,0-2.334-0.237-3.36-0.712c-1.026-0.474-1.915-1.12-2.665-1.937
		c-0.751-0.816-1.336-1.766-1.755-2.847c-0.419-1.081-0.629-2.218-0.629-3.41c0-1.214,0.215-2.362,0.646-3.443
		c0.43-1.081,1.021-2.03,1.771-2.847c0.75-0.816,1.639-1.461,2.665-1.937c1.026-0.475,2.135-0.712,3.327-0.712
		s2.295,0.237,3.311,0.712c1.015,0.475,1.904,1.12,2.666,1.937c0.761,0.817,1.357,1.766,1.788,2.847
		c0.431,1.082,0.646,2.229,0.646,3.443c0,1.191-0.215,2.329-0.646,3.41c-0.431,1.082-1.021,2.031-1.771,2.847
		c-0.751,0.817-1.639,1.462-2.665,1.937C184.686,130.461,183.577,130.699,182.385,130.699z M175.631,121.859
		c0,1.016,0.177,1.97,0.53,2.864c0.353,0.894,0.833,1.672,1.44,2.334c0.607,0.662,1.318,1.187,2.135,1.573s1.688,0.579,2.616,0.579
		c0.927,0,1.799-0.193,2.615-0.579s1.534-0.922,2.152-1.606c0.618-0.684,1.104-1.473,1.457-2.367c0.353-0.894,0.53-1.859,0.53-2.897
		c0-1.015-0.177-1.97-0.53-2.864s-0.839-1.677-1.457-2.351c-0.618-0.673-1.33-1.208-2.135-1.605s-1.672-0.596-2.599-0.596
		c-0.927,0-1.799,0.199-2.615,0.596c-0.817,0.397-1.528,0.938-2.135,1.622c-0.607,0.685-1.092,1.484-1.457,2.4
		S175.631,120.845,175.631,121.859z"/>
	<path fill="#474747" d="M215.955,113.152h1.655l-7.449,17.215h-1.391l-3.873-9.104l-3.874,9.104h-1.391l-7.449-17.215h1.623
		l6.588,15.395l3.608-8.475l-2.913-6.886h1.423l2.384,5.694l2.35-5.694h1.457l-2.914,6.886l3.609,8.475L215.955,113.152z"/>
	<path fill="#474747" d="M227.409,130.699c-1.214,0-2.333-0.237-3.36-0.712c-1.026-0.474-1.915-1.12-2.665-1.937
		c-0.751-0.816-1.336-1.766-1.755-2.847c-0.419-1.081-0.629-2.218-0.629-3.41c0-1.214,0.215-2.362,0.646-3.443
		c0.43-1.081,1.021-2.03,1.771-2.847c0.75-0.816,1.638-1.461,2.665-1.937c1.027-0.475,2.136-0.712,3.327-0.712
		c1.193,0,2.295,0.237,3.31,0.712c1.017,0.475,1.905,1.12,2.666,1.937c0.762,0.817,1.358,1.766,1.787,2.847
		c0.431,1.082,0.647,2.229,0.647,3.443c0,1.191-0.216,2.329-0.647,3.41c-0.429,1.082-1.021,2.031-1.771,2.847
		c-0.75,0.817-1.638,1.462-2.665,1.937C229.711,130.461,228.602,130.699,227.409,130.699z M220.656,121.859
		c0,1.016,0.177,1.97,0.53,2.864c0.353,0.894,0.833,1.672,1.44,2.334c0.606,0.662,1.318,1.187,2.135,1.573s1.689,0.579,2.615,0.579
		c0.928,0,1.799-0.193,2.616-0.579c0.815-0.386,1.534-0.922,2.151-1.606c0.618-0.684,1.103-1.473,1.458-2.367
		c0.353-0.894,0.529-1.859,0.529-2.897c0-1.015-0.176-1.97-0.529-2.864c-0.354-0.894-0.84-1.677-1.458-2.351
		c-0.617-0.673-1.329-1.208-2.136-1.605c-0.805-0.397-1.671-0.596-2.598-0.596c-0.926,0-1.799,0.199-2.615,0.596
		c-0.817,0.397-1.529,0.938-2.136,1.622c-0.607,0.685-1.092,1.484-1.457,2.4S220.656,120.845,220.656,121.859z"/>
	<path fill="#474747" d="M247.934,114.642c-1.544,0.044-2.896,0.502-4.055,1.374c-1.159,0.872-1.969,2.069-2.433,3.592v10.759
		h-1.655v-17.215h1.589v4.238c0.596-1.213,1.385-2.202,2.367-2.963c0.982-0.762,2.036-1.197,3.162-1.308
		c0.221-0.022,0.419-0.033,0.596-0.033c0.176,0,0.319,0,0.43,0V114.642z"/>
	<path fill="#474747" d="M263.527,130.368l-6.721-9.203l-4.072,3.74v5.463h-1.655V106.2h1.655v16.884l10.461-9.899h1.92
		l-7.184,6.985l7.416,10.197H263.527z"/>
	<path fill="#474747" d="M268.36,109.246V106.2h1.655v3.046H268.36z M268.36,130.368v-17.215h1.655v17.215H268.36z"/>
	<path fill="#474747" d="M289.282,130.368h-1.655v-9.601c0-2.229-0.314-3.852-0.943-4.867c-0.629-1.015-1.628-1.523-2.996-1.523
		c-0.729,0-1.452,0.132-2.168,0.397c-0.718,0.265-1.386,0.641-2.003,1.125c-0.618,0.486-1.158,1.054-1.622,1.705
		c-0.464,0.651-0.806,1.352-1.027,2.102v10.66h-1.655v-17.215h1.557v4.105c0.353-0.662,0.789-1.263,1.307-1.805
		c0.518-0.54,1.104-1.004,1.755-1.39c0.65-0.386,1.341-0.684,2.069-0.894c0.729-0.21,1.479-0.315,2.251-0.315
		c1.875,0,3.2,0.657,3.973,1.97c0.772,1.313,1.158,3.195,1.158,5.645V130.368z"/>
	<path fill="#474747" d="M301.234,130.632c-1.191,0-2.284-0.248-3.278-0.745c-0.993-0.497-1.848-1.159-2.565-1.986
		s-1.28-1.771-1.688-2.831c-0.409-1.06-0.612-2.152-0.612-3.277c0-1.17,0.193-2.295,0.58-3.377c0.386-1.081,0.932-2.036,1.638-2.864
		s1.551-1.484,2.533-1.97c0.982-0.485,2.069-0.729,3.26-0.729c1.501,0,2.809,0.393,3.923,1.175c1.114,0.784,2.058,1.738,2.831,2.864
		v-3.741h1.523v17.546c0,1.169-0.222,2.196-0.663,3.079c-0.442,0.883-1.032,1.617-1.771,2.202c-0.74,0.584-1.601,1.026-2.582,1.324
		c-0.982,0.298-2.015,0.447-3.096,0.447c-0.993,0-1.887-0.094-2.682-0.281c-0.794-0.188-1.496-0.453-2.103-0.795
		c-0.607-0.342-1.147-0.761-1.622-1.258c-0.475-0.496-0.889-1.042-1.242-1.639l1.126-0.761c0.684,1.17,1.611,2.025,2.781,2.566
		c1.169,0.541,2.417,0.811,3.741,0.811c0.882,0,1.716-0.121,2.5-0.364c0.783-0.243,1.468-0.602,2.053-1.076
		c0.584-0.475,1.048-1.065,1.391-1.771c0.341-0.707,0.512-1.534,0.512-2.483v-3.774c-0.707,1.125-1.644,2.025-2.813,2.698
		C303.738,130.296,302.514,130.632,301.234,130.632z M301.631,129.209c0.728,0,1.44-0.138,2.135-0.414
		c0.695-0.275,1.324-0.634,1.887-1.076c0.563-0.441,1.026-0.938,1.39-1.49c0.364-0.551,0.59-1.104,0.678-1.655v-5.661
		c-0.265-0.662-0.617-1.274-1.059-1.837c-0.442-0.563-0.944-1.043-1.507-1.44c-0.563-0.397-1.17-0.712-1.821-0.944
		c-0.651-0.231-1.308-0.348-1.969-0.348c-1.038,0-1.964,0.221-2.781,0.662c-0.816,0.442-1.506,1.016-2.069,1.722
		c-0.563,0.707-0.994,1.506-1.292,2.4c-0.298,0.894-0.447,1.793-0.447,2.698c0,0.993,0.177,1.931,0.529,2.813
		c0.353,0.883,0.839,1.667,1.457,2.351c0.618,0.684,1.347,1.225,2.186,1.622C299.789,129.01,300.682,129.209,301.631,129.209z"/>
	<path fill="#474747" d="M329.902,106.862h1.457l9.932,23.505h-1.787l-3.277-7.747h-11.224l-3.277,7.747h-1.821L329.902,106.862z
		 M335.763,121.23l-5.132-12.315l-5.23,12.315H335.763z"/>
	<path fill="#474747" d="M349.635,130.699c-1.324,0-2.594-0.221-3.808-0.662s-2.273-1.104-3.179-1.986l0.828-1.125
		c0.927,0.839,1.887,1.457,2.88,1.854c0.993,0.397,2.086,0.596,3.278,0.596c1.5,0,2.708-0.315,3.625-0.944
		c0.915-0.629,1.373-1.506,1.373-2.631c0-0.53-0.115-0.977-0.348-1.341c-0.231-0.364-0.579-0.673-1.043-0.927
		c-0.463-0.253-1.037-0.48-1.721-0.679c-0.685-0.199-1.479-0.408-2.384-0.629c-0.972-0.22-1.815-0.441-2.533-0.662
		c-0.717-0.22-1.308-0.485-1.771-0.794c-0.464-0.309-0.812-0.684-1.043-1.126c-0.231-0.441-0.348-1.004-0.348-1.688
		c0-0.861,0.165-1.611,0.496-2.251c0.332-0.64,0.789-1.169,1.375-1.589c0.584-0.419,1.258-0.733,2.02-0.943
		c0.761-0.21,1.571-0.315,2.433-0.315c1.346,0,2.537,0.227,3.575,0.679c1.037,0.453,1.843,1.032,2.417,1.738l-0.927,0.894
		c-0.575-0.662-1.319-1.159-2.235-1.489c-0.916-0.332-1.893-0.497-2.93-0.497c-0.641,0-1.241,0.066-1.804,0.199
		c-0.563,0.132-1.055,0.342-1.474,0.629c-0.419,0.287-0.751,0.657-0.993,1.109c-0.243,0.453-0.364,0.988-0.364,1.606
		c0,0.508,0.083,0.916,0.248,1.225c0.166,0.31,0.431,0.574,0.795,0.794c0.364,0.221,0.833,0.414,1.407,0.58
		c0.573,0.165,1.258,0.347,2.053,0.546c1.081,0.265,2.041,0.519,2.88,0.761c0.838,0.244,1.54,0.542,2.103,0.894
		c0.563,0.354,0.993,0.773,1.291,1.258s0.447,1.104,0.447,1.854c0,1.544-0.603,2.775-1.805,3.691
		C353.248,130.241,351.643,130.699,349.635,130.699z"/>
	<path fill="#474747" d="M365.558,130.699c-1.324,0-2.594-0.221-3.808-0.662s-2.273-1.104-3.178-1.986l0.827-1.125
		c0.928,0.839,1.888,1.457,2.881,1.854c0.992,0.397,2.085,0.596,3.277,0.596c1.501,0,2.708-0.315,3.625-0.944
		c0.916-0.629,1.374-1.506,1.374-2.631c0-0.53-0.116-0.977-0.348-1.341c-0.232-0.364-0.58-0.673-1.043-0.927
		c-0.463-0.253-1.037-0.48-1.722-0.679s-1.479-0.408-2.384-0.629c-0.971-0.22-1.815-0.441-2.532-0.662
		c-0.718-0.22-1.308-0.485-1.771-0.794c-0.465-0.309-0.812-0.684-1.044-1.126c-0.231-0.441-0.348-1.004-0.348-1.688
		c0-0.861,0.166-1.611,0.497-2.251c0.331-0.64,0.788-1.169,1.374-1.589c0.584-0.419,1.258-0.733,2.02-0.943s1.572-0.315,2.433-0.315
		c1.346,0,2.538,0.227,3.576,0.679c1.037,0.453,1.842,1.032,2.416,1.738l-0.927,0.894c-0.574-0.662-1.319-1.159-2.234-1.489
		c-0.916-0.332-1.893-0.497-2.931-0.497c-0.64,0-1.241,0.066-1.804,0.199s-1.054,0.342-1.474,0.629
		c-0.419,0.287-0.75,0.657-0.993,1.109c-0.242,0.453-0.363,0.988-0.363,1.606c0,0.508,0.082,0.916,0.248,1.225
		c0.166,0.31,0.431,0.574,0.795,0.794c0.364,0.221,0.833,0.414,1.407,0.58c0.573,0.165,1.258,0.347,2.052,0.546
		c1.081,0.265,2.041,0.519,2.88,0.761c0.839,0.244,1.54,0.542,2.103,0.894c0.563,0.354,0.993,0.773,1.291,1.258
		s0.447,1.104,0.447,1.854c0,1.544-0.602,2.775-1.804,3.691C369.171,130.241,367.565,130.699,365.558,130.699z"/>
	<path fill="#474747" d="M383.235,130.699c-1.215,0-2.334-0.237-3.36-0.712c-1.026-0.474-1.915-1.12-2.665-1.937
		c-0.751-0.816-1.336-1.766-1.755-2.847c-0.419-1.081-0.629-2.218-0.629-3.41c0-1.214,0.216-2.362,0.646-3.443
		c0.431-1.081,1.021-2.03,1.771-2.847c0.75-0.816,1.639-1.461,2.665-1.937c1.026-0.475,2.136-0.712,3.327-0.712
		c1.192,0,2.295,0.237,3.311,0.712c1.016,0.475,1.903,1.12,2.665,1.937c0.762,0.817,1.357,1.766,1.787,2.847
		c0.431,1.082,0.646,2.229,0.646,3.443c0,1.191-0.216,2.329-0.646,3.41c-0.43,1.082-1.021,2.031-1.771,2.847
		c-0.751,0.817-1.639,1.462-2.665,1.937C385.536,130.461,384.428,130.699,383.235,130.699z M376.481,121.859
		c0,1.016,0.177,1.97,0.53,2.864c0.353,0.894,0.833,1.672,1.439,2.334c0.607,0.662,1.319,1.187,2.136,1.573s1.688,0.579,2.615,0.579
		s1.799-0.193,2.616-0.579c0.815-0.386,1.533-0.922,2.151-1.606c0.617-0.684,1.103-1.473,1.456-2.367
		c0.354-0.894,0.529-1.859,0.529-2.897c0-1.015-0.176-1.97-0.529-2.864s-0.839-1.677-1.456-2.351
		c-0.618-0.673-1.33-1.208-2.136-1.605s-1.672-0.596-2.599-0.596s-1.8,0.199-2.615,0.596c-0.817,0.397-1.529,0.938-2.136,1.622
		c-0.607,0.685-1.093,1.484-1.456,2.4C376.664,119.879,376.481,120.845,376.481,121.859z"/>
	<path fill="#474747" d="M394.425,121.694c0-1.214,0.21-2.361,0.629-3.443s1.004-2.02,1.755-2.814
		c0.75-0.795,1.644-1.424,2.682-1.887c1.037-0.463,2.174-0.695,3.41-0.695c1.566,0,2.945,0.354,4.138,1.06
		c1.191,0.707,2.086,1.688,2.682,2.946l-1.622,0.53c-0.508-0.949-1.23-1.693-2.169-2.234c-0.938-0.541-1.969-0.812-3.095-0.812
		c-0.949,0-1.832,0.188-2.648,0.563c-0.816,0.375-1.528,0.894-2.136,1.556c-0.606,0.662-1.087,1.44-1.439,2.334
		c-0.354,0.894-0.53,1.86-0.53,2.897c0,1.038,0.183,2.014,0.547,2.93c0.363,0.916,0.849,1.71,1.456,2.383
		c0.606,0.673,1.324,1.208,2.152,1.605c0.827,0.397,1.704,0.596,2.632,0.596c0.596,0,1.187-0.088,1.771-0.265
		c0.584-0.177,1.125-0.408,1.622-0.695c0.496-0.287,0.927-0.624,1.291-1.01c0.364-0.386,0.612-0.789,0.744-1.208l1.622,0.463
		c-0.22,0.596-0.557,1.154-1.009,1.672c-0.452,0.519-0.988,0.966-1.605,1.341c-0.618,0.375-1.304,0.668-2.053,0.877
		c-0.751,0.209-1.523,0.314-2.318,0.314c-1.214,0-2.339-0.237-3.376-0.712c-1.038-0.474-1.938-1.125-2.698-1.953
		c-0.762-0.828-1.357-1.782-1.788-2.864C394.641,124.089,394.425,122.93,394.425,121.694z"/>
	<path fill="#474747" d="M413.66,109.246V106.2h1.654v3.046H413.66z M413.66,130.368v-17.215h1.654v17.215H413.66z"/>
	<path fill="#474747" d="M424.749,130.699c-0.794,0-1.534-0.138-2.218-0.414c-0.685-0.275-1.286-0.65-1.804-1.125
		c-0.519-0.475-0.922-1.038-1.209-1.689c-0.286-0.65-0.431-1.352-0.431-2.102c0-0.75,0.177-1.435,0.53-2.053
		c0.354-0.618,0.845-1.153,1.474-1.605c0.629-0.452,1.384-0.806,2.268-1.06c0.882-0.253,1.854-0.38,2.914-0.38
		c0.926,0,1.858,0.083,2.796,0.248c0.938,0.166,1.782,0.392,2.533,0.679v-1.688c0-1.633-0.463-2.93-1.391-3.89
		c-0.927-0.96-2.185-1.44-3.774-1.44c-0.839,0-1.727,0.177-2.665,0.53c-0.938,0.354-1.892,0.861-2.863,1.523l-0.629-1.125
		c2.207-1.501,4.304-2.251,6.29-2.251c2.074,0,3.708,0.602,4.899,1.804c1.192,1.204,1.788,2.864,1.788,4.982v8.409
		c0,0.552,0.242,0.828,0.729,0.828v1.49c-0.111,0.021-0.227,0.039-0.348,0.05c-0.122,0.011-0.227,0.017-0.314,0.017
		c-0.441,0-0.795-0.149-1.06-0.447s-0.42-0.656-0.464-1.076v-1.423c-0.794,1.037-1.81,1.832-3.045,2.383
		C427.52,130.422,426.184,130.699,424.749,130.699z M425.081,129.375c1.279,0,2.454-0.243,3.525-0.729
		c1.07-0.485,1.893-1.125,2.467-1.92c0.353-0.463,0.529-0.905,0.529-1.324v-3.045c-0.794-0.31-1.622-0.541-2.482-0.696
		c-0.861-0.154-1.755-0.231-2.683-0.231c-0.86,0-1.644,0.094-2.35,0.281c-0.707,0.188-1.313,0.447-1.821,0.778
		c-0.508,0.331-0.899,0.734-1.175,1.208c-0.276,0.475-0.414,0.999-0.414,1.573c0,0.574,0.11,1.114,0.331,1.622
		s0.529,0.944,0.927,1.308c0.397,0.364,0.866,0.651,1.407,0.86C423.883,129.27,424.463,129.375,425.081,129.375z"/>
	<path fill="#474747" d="M445.838,129.54c-0.088,0.044-0.237,0.127-0.447,0.249c-0.21,0.121-0.475,0.237-0.794,0.348
		c-0.32,0.11-0.679,0.21-1.076,0.298c-0.397,0.087-0.827,0.132-1.291,0.132s-0.899-0.066-1.308-0.199
		c-0.409-0.132-0.768-0.331-1.076-0.596c-0.31-0.265-0.552-0.585-0.729-0.96c-0.177-0.375-0.265-0.817-0.265-1.324V114.51h-2.416
		v-1.357h2.416v-5.893h1.655v5.893h4.006v1.357h-4.006v12.581c0,0.64,0.221,1.12,0.662,1.44c0.441,0.32,0.938,0.48,1.49,0.48
		c0.684,0,1.274-0.116,1.771-0.348c0.497-0.232,0.801-0.38,0.911-0.447L445.838,129.54z"/>
	<path fill="#474747" d="M448.751,109.246V106.2h1.655v3.046H448.751z M448.751,130.368v-17.215h1.655v17.215H448.751z"/>
	<path fill="#474747" d="M462.82,130.699c-1.214,0-2.334-0.237-3.359-0.712c-1.027-0.474-1.916-1.12-2.666-1.937
		c-0.75-0.816-1.335-1.766-1.754-2.847c-0.42-1.081-0.63-2.218-0.63-3.41c0-1.214,0.216-2.362,0.646-3.443
		c0.431-1.081,1.021-2.03,1.771-2.847c0.751-0.816,1.639-1.461,2.665-1.937c1.026-0.475,2.136-0.712,3.327-0.712
		c1.192,0,2.295,0.237,3.311,0.712c1.016,0.475,1.904,1.12,2.665,1.937c0.762,0.817,1.358,1.766,1.788,2.847
		c0.43,1.082,0.646,2.229,0.646,3.443c0,1.191-0.216,2.329-0.646,3.41c-0.43,1.082-1.021,2.031-1.771,2.847
		c-0.75,0.817-1.639,1.462-2.665,1.937C465.122,130.461,464.013,130.699,462.82,130.699z M456.066,121.859
		c0,1.016,0.177,1.97,0.53,2.864c0.353,0.894,0.833,1.672,1.439,2.334c0.607,0.662,1.319,1.187,2.136,1.573s1.688,0.579,2.615,0.579
		c0.928,0,1.799-0.193,2.616-0.579c0.815-0.386,1.533-0.922,2.151-1.606c0.618-0.684,1.104-1.473,1.457-2.367
		c0.353-0.894,0.529-1.859,0.529-2.897c0-1.015-0.177-1.97-0.529-2.864c-0.354-0.894-0.839-1.677-1.457-2.351
		c-0.618-0.673-1.33-1.208-2.136-1.605s-1.672-0.596-2.599-0.596s-1.799,0.199-2.615,0.596s-1.529,0.938-2.135,1.622
		c-0.608,0.685-1.094,1.484-1.457,2.4C456.249,119.879,456.066,120.845,456.066,121.859z"/>
	<path fill="#474747" d="M489.271,130.368h-1.655v-9.601c0-2.229-0.313-3.852-0.942-4.867c-0.63-1.015-1.629-1.523-2.996-1.523
		c-0.729,0-1.452,0.132-2.169,0.397c-0.718,0.265-1.386,0.641-2.003,1.125c-0.618,0.486-1.159,1.054-1.622,1.705
		c-0.464,0.651-0.807,1.352-1.026,2.102v10.66h-1.655v-17.215h1.556v4.105c0.354-0.662,0.789-1.263,1.308-1.805
		c0.519-0.54,1.104-1.004,1.755-1.39c0.65-0.386,1.341-0.684,2.068-0.894c0.729-0.21,1.479-0.315,2.252-0.315
		c1.876,0,3.2,0.657,3.973,1.97c0.771,1.313,1.158,3.195,1.158,5.645V130.368z"/>
</g>
</svg>
