<?xml version="1.0" encoding="utf-8"?>
<!-- Generator: Adobe Illustrator 16.0.0, SVG Export Plug-In . SVG Version: 6.00 Build 0)  -->
<!DOCTYPE svg PUBLIC "-//W3C//DTD SVG 1.1//EN" "http://www.w3.org/Graphics/SVG/1.1/DTD/svg11.dtd">
<svg version="1.1" id="Layer_1" xmlns="http://www.w3.org/2000/svg" xmlns:xlink="http://www.w3.org/1999/xlink" x="0px" y="0px"
	 width="120px" height="120px" viewBox="0 0 120 120" enable-background="new 0 0 120 120" xml:space="preserve">
<g>
	<path fill-rule="evenodd" clip-rule="evenodd" fill="#FFFFFF" d="M91.312,46.519c-2.164,0.027-4.049,1.919-4.069,4.07
		c-0.014,2.178,1.838,4.07,4.016,4.125c2.205,0.054,4.172-1.838,4.186-4.056C95.47,48.452,93.503,46.492,91.312,46.519z"/>
	<path fill-rule="evenodd" clip-rule="evenodd" fill="#FFFFFF" d="M60.122,46.519c-2.198,0.027-4.021,1.852-4.021,4.07
		c-0.014,2.287,1.803,4.138,4.056,4.125c2.212-0.014,4.009-1.824,4.009-4.043C64.186,48.371,62.348,46.506,60.122,46.519z"/>
	<path fill-rule="evenodd" clip-rule="evenodd" fill="#FFFFFF" d="M28.919,46.519c-2.15,0.014-4.056,1.892-4.09,4.057
		c-0.055,2.15,1.796,4.069,3.981,4.138c2.212,0.068,4.179-1.811,4.219-4.043C33.07,48.479,31.11,46.506,28.919,46.519z"/>
	<path fill-rule="evenodd" clip-rule="evenodd" fill="#FFFFFF" d="M111.147,11.199c-0.566-1.252-1.576-1.742-2.985-1.729
		C92.108,9.484,76.091,9.484,60.038,9.484c-15.932,0-31.859,0.027-47.791-0.055c-2.232,0-3.651,1.416-3.651,3.716
		c0.034,23.669,0.017,47.339,0.017,71.009c0,2.559,1.214,3.743,3.752,3.743c15.395,0,30.785,0.014,46.166-0.014
		c1.313,0,2.437,0.313,3.545,1.007c10.984,6.888,22.01,13.748,33,20.621c2.063,1.279,3.777,1.007,4.758-0.775
		c0.244-0.49,0.347-1.116,0.347-1.688c0.034-5.022,0.082-10.045,0.034-15.067c-0.034-2.396,1.027-4.314,4.158-4.097
		c1.327,0.095,2.654,0.027,4.008,0c1.92-0.041,2.965-1.225,3.107-3.145c0.027-0.313-0.154-0.626-0.154-0.938
		c0-23.438,0-46.863,0-70.301C111.333,12.723,111.438,11.893,111.147,11.199z M28.905,63.492
		c-7.139-0.014-12.828-5.716-12.828-12.849c-0.007-7.2,5.724-12.903,12.938-12.89c7.098,0.013,12.794,5.771,12.773,12.917
		C41.761,57.803,36.051,63.492,28.905,63.492z M60.136,63.479c-7.084,0-12.89-5.771-12.91-12.835
		c-0.02-7.037,5.792-12.876,12.849-12.876c7.16-0.013,13.019,5.785,12.971,12.89C73.025,57.721,67.221,63.492,60.136,63.479z
		 M91.339,63.492c-7.132-0.014-12.835-5.716-12.835-12.849c-0.021-7.146,5.676-12.876,12.788-12.89
		c7.193-0.014,12.938,5.716,12.91,12.903C104.188,57.776,98.485,63.492,91.339,63.492z"/>
</g>
</svg>
