<?xml version="1.0" encoding="utf-8"?>
<!-- Generator: Adobe Illustrator 16.0.0, SVG Export Plug-In . SVG Version: 6.00 Build 0)  -->
<!DOCTYPE svg PUBLIC "-//W3C//DTD SVG 1.1//EN" "http://www.w3.org/Graphics/SVG/1.1/DTD/svg11.dtd">
<svg version="1.1" id="Layer_1" xmlns="http://www.w3.org/2000/svg" xmlns:xlink="http://www.w3.org/1999/xlink" x="0px" y="0px"
	 width="120px" height="120px" viewBox="0 0 120 120" enable-background="new 0 0 120 120" xml:space="preserve">
<g>
	<linearGradient id="SVGID_1_" gradientUnits="userSpaceOnUse" x1="-1703.2588" y1="1675.0679" x2="-1703.2588" y2="1577.5614">
		<stop  offset="0.0871" style="stop-color:#FBFCFC"/>
		<stop  offset="1" style="stop-color:#CCCCCC"/>
	</linearGradient>
	
		<circle fill-rule="evenodd" clip-rule="evenodd" fill="url(#SVGID_1_)" stroke="#CCCCCC" stroke-width="0.6891" stroke-miterlimit="10" cx="-1703.259" cy="1618.886" r="42.333"/>
	<g>
		<path fill-rule="evenodd" clip-rule="evenodd" fill="#BF1F3A" d="M-1727.252,1616.455c1.09-0.188,2.184-0.377,3.275-0.561
			c0.978-0.16,1.955-0.303,2.928-0.482c0.121-0.021,0.27-0.205,0.306-0.34c0.351-1.279,0.819-2.508,1.499-3.65
			c0.154-0.26,0.203-0.441-0.029-0.762c-1.199-1.645-2.337-3.332-3.522-5.045c0.789-0.789,1.588-1.586,2.386-2.385
			c0.439-0.438,0.893-0.863,1.311-1.32c0.199-0.215,0.376-0.186,0.563-0.051c1.57,1.125,3.14,2.252,4.703,3.387
			c0.195,0.145,0.353,0.248,0.605,0.111c1.242-0.684,2.525-1.264,3.916-1.582c0.092-0.021,0.193-0.186,0.212-0.295
			c0.319-1.857,0.679-3.711,0.903-5.582c0.072-0.611,0.29-0.643,0.764-0.637c1.627,0.02,3.257,0.008,4.939,0.008
			c0.385,2.172,0.766,4.334,1.12,6.34c1.526,0.637,2.948,1.23,4.442,1.854c1.594-1.152,3.292-2.385,5.007-3.596
			c0.116-0.082,0.433-0.055,0.536,0.045c1.169,1.133,2.32,2.285,3.456,3.455c0.097,0.102,0.115,0.414,0.032,0.535
			c-1.133,1.656-2.283,3.301-3.444,4.936c-0.142,0.199-0.11,0.297-0.017,0.514c0.541,1.236,1.027,2.494,1.552,3.736
			c0.06,0.143,0.239,0.303,0.386,0.328c1.449,0.268,2.904,0.51,4.359,0.75c0.48,0.078,0.965,0.135,1.449,0.193
			c0.228,0.027,0.42,0.055,0.414,0.363c-0.011,0.854-0.004,1.705-0.004,2.586c-4.936,0-9.846,0-14.795,0
			c0.032-2.051-0.758-3.789-2.164-5.213c-1.424-1.443-3.242-2.186-5.248-2.086c-4.178,0.211-6.622,3.209-7.031,6.355
			c-0.559,4.279,2.78,8.139,7.236,8.186c0,4.896,0,9.795,0,14.764c-0.898,0-1.806,0.01-2.715-0.014
			c-0.082-0.002-0.21-0.207-0.231-0.33c-0.323-1.936-0.624-3.875-0.954-5.809c-0.024-0.148-0.198-0.33-0.346-0.389
			c-0.871-0.35-1.762-0.648-2.633-1.002c-0.489-0.199-0.949-0.471-1.432-0.713c-1.695,1.191-3.396,2.393-5.111,3.574
			c-0.115,0.08-0.412,0.072-0.506-0.02c-1.188-1.158-2.363-2.332-3.52-3.521c-0.087-0.086-0.1-0.365-0.025-0.471
			c1.115-1.578,2.25-3.143,3.384-4.705c0.183-0.252,0.233-0.459,0.06-0.766c-0.662-1.18-1.213-2.408-1.52-3.736
			c-0.023-0.105-0.194-0.225-0.314-0.25c-1.162-0.229-2.326-0.443-3.491-0.656c-0.896-0.16-1.795-0.311-2.69-0.467
			C-1727.252,1620.179-1727.252,1618.316-1727.252,1616.455z"/>
		<path fill-rule="evenodd" clip-rule="evenodd" fill="#BF1F3A" d="M-1679.572,1644.931c-7.371,0-14.691,0-22.07,0
			c0-0.176,0-0.34,0-0.506c0-6.486-0.002-12.973,0-19.461c0-1.277,0.813-2.084,2.096-2.084c5.991-0.002,11.981,0.01,17.973-0.012
			c1.15-0.004,2.026,0.871,2.021,1.992c-0.038,6.486-0.02,12.973-0.02,19.461
			C-1679.572,1644.507-1679.572,1644.693-1679.572,1644.931z M-1697.793,1628.488c0,4.26,0,8.486,0,12.701c4.848,0,9.664,0,14.473,0
			c0-4.252,0-8.467,0-12.701C-1688.149,1628.488-1692.954,1628.488-1697.793,1628.488z"/>
		<path fill-rule="evenodd" clip-rule="evenodd" fill="#BF1F3A" d="M-1692.445,1632.078c0.699-0.703,1.349-1.346,1.988-1.994
			c0.445-0.453,0.976-0.654,1.58-0.436c0.959,0.346,1.175,1.451,0.42,2.244c-0.963,1.012-1.957,1.992-2.961,2.965
			c-0.551,0.533-1.215,0.596-1.813,0.088c-0.648-0.551-1.26-1.172-1.786-1.842c-0.442-0.564-0.276-1.256,0.252-1.691
			c0.567-0.467,1.177-0.426,1.765,0.07C-1692.811,1631.64-1692.662,1631.843-1692.445,1632.078z"/>
		<path fill-rule="evenodd" clip-rule="evenodd" fill="#BF1F3A" d="M-1692.456,1637.605c0.73-0.74,1.366-1.396,2.017-2.039
			c0.4-0.396,0.869-0.588,1.451-0.455c1.039,0.238,1.279,1.5,0.553,2.256c-1.01,1.049-2.025,2.096-3.098,3.08
			c-0.482,0.439-1.078,0.557-1.863-0.094c-0.576-0.479-1.094-1.045-1.563-1.631c-0.487-0.613-0.366-1.314,0.21-1.832
			c0.471-0.422,1.224-0.4,1.768,0.102C-1692.803,1637.158-1692.662,1637.365-1692.456,1637.605z"/>
	</g>
</g>
<g>
	<circle fill-rule="evenodd" clip-rule="evenodd" fill="#BF1F3A" cx="60" cy="59.834" r="50.5"/>
	<g>
		<path fill-rule="evenodd" clip-rule="evenodd" fill="#FFFFFF" d="M72.462,78.323c1.274-0.21,2.432-0.402,3.616-0.597
			c0.012,0.033,0.054,0.096,0.054,0.162c0.003,3.302,0.081,6.604-0.019,9.9c-0.106,3.523-3.252,6.49-6.918,6.512
			c-8.111,0.051-16.223,0.053-24.334,0.002c-4.027-0.023-7.066-3.155-7.067-7.168c-0.011-17.174-0.011-34.341,0-51.513
			c0.001-4.145,3.08-7.231,7.231-7.243c8.01-0.024,16.018-0.024,24.028,0c3.984,0.012,7.053,3.082,7.099,7.048
			c0.027,2.352,0.003,4.703,0.003,7.042c-1.218,0-2.378,0-3.677,0c0-0.719,0-1.369,0-2.02c-0.004-1.843-0.602-2.458-2.417-2.458
			c-8.751-0.001-17.502-0.001-26.253,0c-1.66,0-2.321,0.652-2.321,2.329c-0.005,12.947,0,25.894,0,38.843
			c0,1.101-0.006,2.202,0.005,3.3c0.015,1.583,0.683,2.252,2.24,2.252c8.854,0,17.708,0,26.563-0.003
			c1.465-0.003,2.169-0.705,2.169-2.151C72.462,81.157,72.462,79.753,72.462,78.323z M56.645,87.641c-1.1,0-2.2-0.021-3.298,0.006
			c-1.193,0.03-2.016,0.808-2.026,1.866c-0.009,1.05,0.822,1.877,1.997,1.893c2.174,0.027,4.348,0.027,6.522,0
			c1.256-0.016,2.061-0.798,2.055-1.904c-0.008-1.092-0.837-1.839-2.104-1.857C58.741,87.629,57.694,87.641,56.645,87.641z"/>
		<path fill-rule="evenodd" clip-rule="evenodd" fill="#FFFFFF" d="M61.649,55.366c-0.513-0.47-1.025-0.899-1.482-1.376
			c-0.763-0.798-0.664-1.598,0.266-2.522c0.896-0.891,1.665-0.972,2.461-0.201c0.474,0.456,0.89,0.978,1.352,1.494
			c1.802-1.296,3.65-2.061,5.67-2.399c0.65-0.108,0.363-0.648,0.355-0.993c-0.002-0.156-0.318-0.324-0.518-0.444
			c-0.094-0.054-0.25-0.006-0.378-0.006c-1.652,0.003-2.141-0.503-2.094-2.165c0.03-1.118,0.591-1.673,1.733-1.676
			c1.892-0.009,3.786-0.007,5.681-0.001c1.29,0.004,1.751,0.549,1.75,2.032c-0.002,1.249-0.534,1.798-1.745,1.807
			c-0.38,0.003-0.758,0.003-1.194,0.003c0,0.468,0,0.867,0,1.368c2.089,0.369,4.094,1.071,5.966,2.478
			c0.457-0.504,0.859-0.999,1.31-1.443c0.834-0.825,1.601-0.768,2.519,0.144c0.98,0.975,1.053,1.712,0.227,2.57
			c-0.441,0.459-0.915,0.891-1.231,1.197c0.666,1.662,1.292,3.182,1.881,4.721c0.143,0.375,0.189,0.794,0.243,1.196
			c0.106,0.813,0.352,1.659-0.765,2.079c-0.3,0.114-0.468,0.578-0.722,0.917c-0.614-0.728-1.434-0.962-2.431-0.761
			c0.01-3.212-1.176-5.786-3.793-7.594c-1.988-1.376-4.213-1.809-6.58-1.326c-4.794,0.984-7.765,5.771-6.619,10.518
			c1.078,4.466,6.082,8.038,11.743,5.882c0.185,0.374,0.318,0.797,0.574,1.118c0.261,0.33,0.646,0.561,0.874,0.75
			c-0.229,0.623-0.417,1.269-0.709,1.863c-0.117,0.24-0.437,0.462-0.706,0.527c-4.748,1.2-8.94,0.141-12.42-3.306
			c-4.227-4.181-4.878-10.71-1.684-15.725C61.305,55.897,61.43,55.708,61.649,55.366z"/>
		<path fill-rule="evenodd" clip-rule="evenodd" fill="#FFFFFF" d="M86.937,65.722c-0.141,1.122,0.913,1.866,1.946,1.484
			c0.326-0.12,0.879-0.261,1.023-0.104c0.386,0.411,0.686,0.953,0.846,1.496c0.056,0.183-0.381,0.546-0.635,0.786
			c-0.674,0.636-0.476,1.929,0.368,2.295c0.943,0.411,1.228,1.476,0.534,2.282c-0.177,0.201-0.641,0.234-0.968,0.22
			c-1.121-0.049-1.856,0.957-1.462,2.021c0.116,0.309,0.276,0.833,0.139,0.963c-0.414,0.387-0.942,0.692-1.479,0.882
			c-0.168,0.063-0.542-0.294-0.753-0.528c-0.745-0.807-1.999-0.636-2.42,0.354c-0.374,0.872-1.71,1.148-2.33,0.422
			c-0.187-0.219-0.163-0.665-0.144-1.004c0.051-0.936-0.96-1.74-1.82-1.407c-1.044,0.402-1.871-0.03-2.043-1.151
			c-0.037-0.24,0.22-0.598,0.436-0.799c0.96-0.896,0.807-2.138-0.422-2.57c-1.043-0.363-0.598-1.028-0.518-1.676
			c0.09-0.721,0.502-0.837,1.133-0.774c1.167,0.12,1.917-0.92,1.484-2.007c-0.372-0.933-0.347-0.894,0.652-1.583
			c0.638-0.441,1.024-0.294,1.475,0.261c0.694,0.858,1.969,0.639,2.4-0.369c0.363-0.845,1.709-1.11,2.326-0.408
			C86.889,65.018,86.865,65.414,86.937,65.722z M84.265,75.06c1.956-0.013,3.571-1.645,3.538-3.573
			c-0.035-1.901-1.659-3.515-3.541-3.518c-1.987,0-3.564,1.62-3.545,3.638C80.736,73.542,82.308,75.069,84.265,75.06z"/>
		<path fill-rule="evenodd" clip-rule="evenodd" fill="#FFFFFF" d="M73.227,62.876c-0.03,0.678-0.362,1.143-0.984,1.329
			c-0.628,0.186-1.318,0.006-1.493-0.597c-0.371-1.287-1.456-1.922-2.243-2.825c-0.334-0.384-0.696-0.753-1.087-1.08
			c-0.542-0.45-0.262-0.756,0.108-1.11c0.347-0.333,0.612-0.687,1.108-0.15c0.816,0.879,1.673,1.725,2.545,2.549
			c0.281,0.264,0.647,0.474,1.01,0.608C72.816,61.833,73.149,62.244,73.227,62.876z"/>
	</g>
</g>
</svg>
