<?xml version="1.0" encoding="utf-8"?>
<!-- Generator: Adobe Illustrator 16.0.0, SVG Export Plug-In . SVG Version: 6.00 Build 0)  -->
<!DOCTYPE svg PUBLIC "-//W3C//DTD SVG 1.1//EN" "http://www.w3.org/Graphics/SVG/1.1/DTD/svg11.dtd">
<svg version="1.1" id="Layer_1" xmlns="http://www.w3.org/2000/svg" xmlns:xlink="http://www.w3.org/1999/xlink" x="0px" y="0px"
	 width="120px" height="120px" viewBox="0 0 120 120" enable-background="new 0 0 120 120" xml:space="preserve">
<g>
	<circle fill="#BF1F3A" cx="60" cy="59.833" r="50.499"/>
	<g>
		<path fill-rule="evenodd" clip-rule="evenodd" fill="#FFFFFF" d="M52.674,40.834c-0.549,2.084-0.275,3.99,0.762,5.778
			c0.803,1.385,1.95,2.402,3.401,3.073c2.829,1.305,6.221,0.684,8.459-1.528c1.962-1.937,3.293-5.569,1.06-9.448
			c3.555-0.555,7.087-1.104,10.67-1.663c0.218,1.139,0.426,2.239,0.643,3.34c1.719,8.767,3.426,17.537,5.779,26.165
			c0.437,1.597,1.003,3.164,1.564,4.725c0.182,0.504,0.541,0.941,0.876,1.507c-13.464,2.402-27.078,4.159-40.723,6.163
			c-1.875-12.044-3.737-24.023-5.612-36.067C43.932,42.199,48.249,41.525,52.674,40.834z"/>
		<path fill-rule="evenodd" clip-rule="evenodd" fill="#FFFFFF" d="M37.66,54.456c1.288,8.27,2.576,16.54,3.882,24.922
			c-3.355-0.952-6.62-1.878-9.953-2.826c1.987-7.385,3.963-14.735,5.939-22.082C37.572,54.462,37.617,54.458,37.66,54.456z"/>
		<path fill-rule="evenodd" clip-rule="evenodd" fill="#FFFFFF" d="M71.315,87.397c-7.07-1.62-14.022-3.666-21.015-5.677
			c7.175-1.044,14.348-2.086,21.591-3.138c-0.013,0.155-0.023,0.313-0.04,0.465c-0.244,2.351-0.502,4.694-0.722,7.048
			C71.094,86.481,71.237,86.883,71.315,87.397z"/>
		<path fill-rule="evenodd" clip-rule="evenodd" fill="#FFFFFF" d="M56.189,37.175c-0.083,2.694,1.447,4.489,3.813,4.476
			c2.345-0.014,3.86-1.823,3.753-4.479c1.593,1.069,2.379,3.705,1.739,5.84c-0.731,2.448-2.98,4.146-5.488,4.142
			c-2.551-0.003-4.795-1.656-5.537-4.08C53.81,40.915,54.582,38.266,56.189,37.175z"/>
		<path fill-rule="evenodd" clip-rule="evenodd" fill="#FFFFFF" d="M56.466,35.773c-0.002-1.965,1.542-3.503,3.518-3.507
			c1.955-0.004,3.501,1.555,3.501,3.524c0,1.906-1.59,3.496-3.494,3.492C58.03,39.279,56.468,37.721,56.466,35.773z"/>
	</g>
</g>
</svg>
