<?xml version="1.0" encoding="utf-8"?>
<!-- Generator: Adobe Illustrator 16.0.0, SVG Export Plug-In . SVG Version: 6.00 Build 0)  -->
<!DOCTYPE svg PUBLIC "-//W3C//DTD SVG 1.1//EN" "http://www.w3.org/Graphics/SVG/1.1/DTD/svg11.dtd">
<svg version="1.1" id="Layer_1" xmlns="http://www.w3.org/2000/svg" xmlns:xlink="http://www.w3.org/1999/xlink" x="0px" y="0px"
	 width="120px" height="120px" viewBox="0 0 120 120" enable-background="new 0 0 120 120" xml:space="preserve">
<g>
	<path fill-rule="evenodd" clip-rule="evenodd" fill="#FFFFFF" d="M10.553,76.7c0.217-1.173,0.916-2.086,1.593-3.019
		c3.394-4.696,6.789-9.4,10.164-14.108c0.531-0.745,1.046-1.478,1.793-2.021c1.001-0.726,2.105-1.121,3.343-1.128
		c3.103-0.012,6.206-0.006,9.312-0.006c0.067,0,0.129,0.014,0.255,0.026c-0.09,0.143-0.155,0.253-0.226,0.356
		c-1.558,2.164-3.119,4.321-4.674,6.491c-0.165,0.239-0.353,0.317-0.645,0.317c-2.979-0.007-5.966-0.007-8.939-0.007
		c-1.133,0-1.603,0.474-1.603,1.601c-0.004,4.398,0,8.796-0.016,13.188c0,0.254-0.104,0.531-0.24,0.752
		c-0.479,0.797-0.991,1.573-1.509,2.356c-0.061,0.092-0.198,0.202-0.304,0.202c-1.431,0.006-2.867,0.064-4.288-0.02
		c-1.982-0.13-3.479-1.489-3.923-3.434c-0.025-0.104-0.067-0.207-0.093-0.311C10.553,77.522,10.553,77.115,10.553,76.7z"/>
	<path fill-rule="evenodd" clip-rule="evenodd" fill="#FFFFFF" d="M59.978,96.333c-6.772,0-13.542,0-20.314,0
		c-1.38,0-2.031-0.661-2.027-2.054c0-0.382-0.014-0.765,0-1.152c0.012-0.233-0.079-0.317-0.305-0.312
		c-0.402,0.014-0.801,0.007-1.198,0.007c-2.695,0-5.383,0.007-8.075-0.007c-2.866-0.013-5.052-1.276-6.352-3.821
		c-1.308-2.565-1.085-5.118,0.604-7.469c5.862-8.162,11.744-16.312,17.628-24.467c0.498-0.687,0.962-1.412,1.538-2.027
		c1.837-1.963,4.127-2.987,6.822-2.993c7.796-0.02,15.601-0.033,23.4,0.006c3.482,0.02,6.112,1.666,8.049,4.528
		c1.186,1.762,2.468,3.473,3.708,5.195c4.762,6.614,9.526,13.214,14.287,19.822c3.077,4.275,0.654,10.228-4.527,11.136
		c-0.422,0.07-0.852,0.09-1.276,0.09c-3.038,0.007-6.069,0.014-9.108-0.006c-0.372,0-0.508,0.097-0.479,0.479
		c0.033,0.394,0.013,0.796,0.013,1.198c-0.017,1.14-0.725,1.846-1.866,1.846C73.654,96.333,66.817,96.333,59.978,96.333z
		 M82.363,92.628c0-0.175,0-0.324,0-0.473c0-8.719,0-17.438-0.006-26.157c0-1.521-0.839-2.364-2.377-2.364
		c-13.319-0.006-26.64-0.006-39.96,0c-1.548,0-2.383,0.835-2.383,2.403c0,8.7,0,17.405,0,26.118c0,0.148,0,0.291,0,0.473
		C52.557,92.628,67.436,92.628,82.363,92.628z"/>
	<path fill-rule="evenodd" clip-rule="evenodd" fill="#FFFFFF" d="M72.227,36.623c0.006,6.834-5.458,12.378-12.204,12.391
		c-6.77,0.014-12.243-5.531-12.243-12.385c-0.003-6.854,5.442-12.359,12.218-12.359S72.219,29.775,72.227,36.623z"/>
	<path fill-rule="evenodd" clip-rule="evenodd" fill="#FFFFFF" d="M82.962,56.418c0.211,0,0.348,0,0.483,0c2.941,0,5.875,0,8.816,0
		c2.261-0.006,3.932,1.004,5.215,2.844c1.862,2.669,3.792,5.292,5.694,7.929c1.807,2.52,3.633,5.027,5.44,7.552
		c1.827,2.56,0.52,6.121-2.509,6.841c-0.318,0.078-0.654,0.117-0.978,0.117c-1.279,0.013-2.552,0-3.832,0.013
		c-0.275,0.007-0.393-0.103-0.535-0.33c-0.444-0.745-0.92-1.464-1.409-2.177c-0.185-0.271-0.285-0.531-0.281-0.869
		c0.009-4.378,0.003-8.763,0.003-13.142c0-1.12-0.469-1.594-1.606-1.594c-2.993,0-5.992,0.007-8.981-0.006
		c-0.184-0.007-0.434-0.11-0.54-0.253c-1.613-2.203-3.204-4.424-4.8-6.639C83.089,56.638,83.05,56.567,82.962,56.418z"/>
	<path fill-rule="evenodd" clip-rule="evenodd" fill="#FFFFFF" d="M85.224,54.54c-4.191,0.006-7.595-3.421-7.595-7.657
		c0-4.255,3.369-7.675,7.569-7.683c4.198-0.006,7.589,3.414,7.592,7.657C92.795,51.1,89.408,54.533,85.224,54.54z"/>
	<path fill-rule="evenodd" clip-rule="evenodd" fill="#FFFFFF" d="M34.77,54.54c-4.188-0.007-7.563-3.44-7.563-7.689
		c0-4.236,3.397-7.657,7.595-7.65c4.201,0.007,7.569,3.433,7.563,7.688C42.361,51.119,38.963,54.546,34.77,54.54z"/>
	<path fill-rule="evenodd" clip-rule="evenodd" fill="#FFFFFF" d="M64.699,78.584c-0.006,2.637-2.125,4.769-4.729,4.755
		c-2.594-0.02-4.671-2.15-4.671-4.774c0-2.636,2.116-4.747,4.732-4.741C62.623,73.831,64.705,75.96,64.699,78.584z"/>
</g>
</svg>
