<?xml version="1.0" encoding="utf-8"?>
<!-- Generator: Adobe Illustrator 16.0.0, SVG Export Plug-In . SVG Version: 6.00 Build 0)  -->
<!DOCTYPE svg PUBLIC "-//W3C//DTD SVG 1.1//EN" "http://www.w3.org/Graphics/SVG/1.1/DTD/svg11.dtd">
<svg version="1.1" id="Layer_1" xmlns="http://www.w3.org/2000/svg" xmlns:xlink="http://www.w3.org/1999/xlink" x="0px" y="0px"
	 width="120px" height="120px" viewBox="0 0 120 120" enable-background="new 0 0 120 120" xml:space="preserve">
<path fill-rule="evenodd" clip-rule="evenodd" fill="#FFFFFF" d="M101.986,22.263V17.53c0-4.514-3.655-8.281-8.281-8.281H32.854
	c-4.626,0-8.39,3.767-8.39,8.281v37.742l2.258-2.153l2.582,2.69l0.105-0.107l6.887,7.097l0,0L60.27,87.205l1.394-1.287l5.272,15.586
	c0.533,1.615,0.105,3.543-1.184,4.73c-1.287,1.186-3.117,1.615-4.729,0.965c-5.918-2.039-10.001-3.543-15.483-5.479l1.394-1.398
	c-7.418-7.639-14.939-15.271-22.47-22.799v24.84c0,4.625,3.764,8.387,8.39,8.387h60.851c4.626,0,8.281-3.762,8.281-8.387v-6.018
	V75.701V22.263z M52.315,17.098h21.929c1.29,0,2.369,1.082,2.369,2.371l0,0c0,1.285-1.079,2.368-2.369,2.368H52.315
	c-1.293,0-2.37-1.083-2.37-2.368l0,0C49.946,18.18,51.022,17.098,52.315,17.098L52.315,17.098z M36.615,25.269h53.329
	c1.29,0,2.366,0.971,2.366,2.263l0,0c0,1.287-1.076,2.367-2.366,2.367H36.615c-1.29,0-2.363-1.08-2.363-2.367l0,0
	C34.252,26.239,35.325,25.269,36.615,25.269L36.615,25.269z M36.615,33.334h53.329c1.29,0,2.366,1.082,2.366,2.368l0,0
	c0,1.291-1.076,2.368-2.366,2.368H36.615c-1.29,0-2.363-1.077-2.363-2.368l0,0C34.252,34.416,35.325,33.334,36.615,33.334
	L36.615,33.334z M36.615,41.399h53.329c1.29,0,2.366,1.08,2.366,2.369l0,0c0,1.289-1.076,2.365-2.366,2.365H36.615
	c-1.29,0-2.363-1.076-2.363-2.365l0,0C34.252,42.479,35.325,41.399,36.615,41.399L36.615,41.399z M36.615,49.568h53.329
	c1.29,0,2.366,1.08,2.366,2.371l0,0c0,1.18-1.076,2.259-2.366,2.259H36.615c-1.29,0-2.363-1.08-2.363-2.259l0,0
	C34.252,50.648,35.325,49.568,36.615,49.568L36.615,49.568z M36.615,57.634h53.329c1.29,0,2.366,1.076,2.366,2.368l0,0
	c0,1.288-1.076,2.363-2.366,2.363H36.615c-0.431,0-0.754-0.105-1.076-0.318l-1.074-1.079c-0.111-0.322-0.213-0.644-0.213-0.966l0,0
	C34.252,58.71,35.325,57.634,36.615,57.634L36.615,57.634z M44.572,65.699h45.372c1.29,0,2.366,1.077,2.366,2.366l0,0
	c0,1.291-1.076,2.367-2.366,2.367H44.572c-1.293,0-2.37-1.076-2.37-2.367l0,0C42.203,66.776,43.279,65.699,44.572,65.699
	L44.572,65.699z M51.449,73.873h38.495c1.29,0,2.366,1.076,2.366,2.366l0,0c0,1.284-1.076,2.256-2.366,2.256h-38.17l-2.685-2.689
	C49.304,74.732,50.269,73.873,51.449,73.873L51.449,73.873z M57.366,81.939h32.579c1.29,0,2.366,1.074,2.366,2.361l0,0
	c0,1.289-1.076,2.365-2.366,2.365H61.88l-0.216-0.748l-0.749,0.748H59.73l-3.979-4.082C56.184,82.152,56.719,81.939,57.366,81.939
	L57.366,81.939z M65.323,90.107h24.622c1.29,0,2.366,0.969,2.366,2.258l0,0c0,1.291-1.076,2.365-2.366,2.365H65.323
	c-0.214,0,0.216,0.105,0,0C64.784,92.578,63.065,90.107,65.323,90.107L65.323,90.107z M70.592,98.173h19.353
	c1.29,0,2.366,1.072,2.366,2.361l0,0c0,1.291-1.076,2.367-2.366,2.367H70.592c-1.29,0-2.257-1.076-2.257-2.367l0,0
	C68.334,99.246,69.302,98.173,70.592,98.173L70.592,98.173z M51.236,100l8.604-8.494l-1.29-1.398L33.389,64.623l-1.509-1.608
	l-8.705,8.491C29.95,78.39,44.572,93.117,51.236,100L51.236,100z M19.628,67.852l0.754,0.751l8.6-8.496l-2.26-2.362l-8.708,8.492
	L19.628,67.852z M63.491,103.871c0.328-0.326,0.43-0.861,0.328-1.291L60.27,91.937l-8.709,8.385l10.537,3.865
	C62.526,104.298,63.065,104.187,63.491,103.871L63.491,103.871z M22.207,70.541l0.754,0.645l8.706-8.386l-2.363-2.474l-8.706,8.492
	L22.207,70.541z"/>
</svg>
