<?xml version="1.0" encoding="utf-8"?>
<!-- Generator: Adobe Illustrator 16.0.0, SVG Export Plug-In . SVG Version: 6.00 Build 0)  -->
<!DOCTYPE svg PUBLIC "-//W3C//DTD SVG 1.1//EN" "http://www.w3.org/Graphics/SVG/1.1/DTD/svg11.dtd">
<svg version="1.1" id="Layer_1" xmlns="http://www.w3.org/2000/svg" xmlns:xlink="http://www.w3.org/1999/xlink" x="0px" y="0px"
	 width="120px" height="120px" viewBox="0 0 120 120" enable-background="new 0 0 120 120" xml:space="preserve">
<g>
	<linearGradient id="SVGID_1_" gradientUnits="userSpaceOnUse" x1="-1703.2588" y1="1675.0679" x2="-1703.2588" y2="1577.5614">
		<stop  offset="0.0871" style="stop-color:#FBFCFC"/>
		<stop  offset="1" style="stop-color:#CCCCCC"/>
	</linearGradient>
	
		<circle fill-rule="evenodd" clip-rule="evenodd" fill="url(#SVGID_1_)" stroke="#CCCCCC" stroke-width="0.6891" stroke-miterlimit="10" cx="-1703.259" cy="1618.886" r="42.333"/>
	<g>
		<path fill-rule="evenodd" clip-rule="evenodd" fill="#BF1F3A" d="M-1727.252,1616.455c1.09-0.188,2.184-0.377,3.275-0.561
			c0.978-0.16,1.955-0.303,2.928-0.482c0.121-0.021,0.27-0.205,0.306-0.34c0.351-1.279,0.819-2.508,1.499-3.65
			c0.154-0.26,0.203-0.441-0.029-0.762c-1.199-1.645-2.337-3.332-3.522-5.045c0.789-0.789,1.588-1.586,2.386-2.385
			c0.439-0.438,0.893-0.863,1.311-1.32c0.199-0.215,0.376-0.186,0.563-0.051c1.57,1.125,3.14,2.252,4.703,3.387
			c0.195,0.145,0.353,0.248,0.605,0.111c1.242-0.684,2.525-1.264,3.916-1.582c0.092-0.021,0.193-0.186,0.212-0.295
			c0.319-1.857,0.679-3.711,0.903-5.582c0.072-0.611,0.29-0.643,0.764-0.637c1.627,0.02,3.257,0.008,4.939,0.008
			c0.385,2.172,0.766,4.334,1.12,6.34c1.526,0.637,2.948,1.23,4.442,1.854c1.594-1.152,3.292-2.385,5.007-3.596
			c0.116-0.082,0.433-0.055,0.536,0.045c1.169,1.133,2.32,2.285,3.456,3.455c0.097,0.102,0.115,0.414,0.032,0.535
			c-1.133,1.656-2.283,3.301-3.444,4.936c-0.142,0.199-0.11,0.297-0.017,0.514c0.541,1.236,1.027,2.494,1.552,3.736
			c0.06,0.143,0.239,0.303,0.386,0.328c1.449,0.268,2.904,0.51,4.359,0.75c0.48,0.078,0.965,0.135,1.449,0.193
			c0.228,0.027,0.42,0.055,0.414,0.363c-0.011,0.854-0.004,1.705-0.004,2.586c-4.936,0-9.846,0-14.795,0
			c0.032-2.051-0.758-3.789-2.164-5.213c-1.424-1.443-3.242-2.186-5.248-2.086c-4.178,0.211-6.622,3.209-7.031,6.355
			c-0.559,4.279,2.78,8.139,7.236,8.186c0,4.896,0,9.795,0,14.764c-0.898,0-1.806,0.01-2.715-0.014
			c-0.082-0.002-0.21-0.207-0.231-0.33c-0.323-1.936-0.624-3.875-0.954-5.809c-0.024-0.148-0.198-0.33-0.346-0.389
			c-0.871-0.35-1.762-0.648-2.633-1.002c-0.489-0.199-0.949-0.471-1.432-0.713c-1.695,1.191-3.396,2.393-5.111,3.574
			c-0.115,0.08-0.412,0.072-0.506-0.02c-1.188-1.158-2.363-2.332-3.52-3.521c-0.087-0.086-0.1-0.365-0.025-0.471
			c1.115-1.578,2.25-3.143,3.384-4.705c0.183-0.252,0.233-0.459,0.06-0.766c-0.662-1.18-1.213-2.408-1.52-3.736
			c-0.023-0.105-0.194-0.225-0.314-0.25c-1.162-0.229-2.326-0.443-3.491-0.656c-0.896-0.16-1.795-0.311-2.69-0.467
			C-1727.252,1620.179-1727.252,1618.316-1727.252,1616.455z"/>
		<path fill-rule="evenodd" clip-rule="evenodd" fill="#BF1F3A" d="M-1679.572,1644.931c-7.371,0-14.691,0-22.07,0
			c0-0.176,0-0.34,0-0.506c0-6.486-0.002-12.973,0-19.461c0-1.277,0.813-2.084,2.096-2.084c5.991-0.002,11.981,0.01,17.973-0.012
			c1.15-0.004,2.026,0.871,2.021,1.992c-0.038,6.486-0.02,12.973-0.02,19.461
			C-1679.572,1644.507-1679.572,1644.693-1679.572,1644.931z M-1697.793,1628.488c0,4.26,0,8.486,0,12.701c4.848,0,9.664,0,14.473,0
			c0-4.252,0-8.467,0-12.701C-1688.149,1628.488-1692.954,1628.488-1697.793,1628.488z"/>
		<path fill-rule="evenodd" clip-rule="evenodd" fill="#BF1F3A" d="M-1692.445,1632.078c0.699-0.703,1.349-1.346,1.988-1.994
			c0.445-0.453,0.976-0.654,1.58-0.436c0.959,0.346,1.175,1.451,0.42,2.244c-0.963,1.012-1.957,1.992-2.961,2.965
			c-0.551,0.533-1.215,0.596-1.813,0.088c-0.648-0.551-1.26-1.172-1.786-1.842c-0.442-0.564-0.276-1.256,0.252-1.691
			c0.567-0.467,1.177-0.426,1.765,0.07C-1692.811,1631.64-1692.662,1631.843-1692.445,1632.078z"/>
		<path fill-rule="evenodd" clip-rule="evenodd" fill="#BF1F3A" d="M-1692.456,1637.605c0.73-0.74,1.366-1.396,2.017-2.039
			c0.4-0.396,0.869-0.588,1.451-0.455c1.039,0.238,1.279,1.5,0.553,2.256c-1.01,1.049-2.025,2.096-3.098,3.08
			c-0.482,0.439-1.078,0.557-1.863-0.094c-0.576-0.479-1.094-1.045-1.563-1.631c-0.487-0.613-0.366-1.314,0.21-1.832
			c0.471-0.422,1.224-0.4,1.768,0.102C-1692.803,1637.158-1692.662,1637.365-1692.456,1637.605z"/>
	</g>
</g>
<g>
	<linearGradient id="SVGID_2_" gradientUnits="userSpaceOnUse" x1="60.0005" y1="126.856" x2="60.0005" y2="10.5389">
		<stop  offset="0.0871" style="stop-color:#FBFCFC"/>
		<stop  offset="1" style="stop-color:#CCCCCC"/>
	</linearGradient>
	
		<circle fill-rule="evenodd" clip-rule="evenodd" fill="url(#SVGID_2_)" stroke="#CCCCCC" stroke-width="0.6891" stroke-miterlimit="10" cx="60" cy="59.834" r="50.5"/>
	<g>
		<path fill-rule="evenodd" clip-rule="evenodd" fill="#BF1F3A" d="M42.47,75.147c-1.046-2.028-2.315-3.573-3.986-4.79
			c-1.121-0.816-1.726-1.946-1.8-3.302c-0.04-0.753,0.113-1.562,0.903-1.943c0.847-0.408,1.727-0.352,2.477,0.228
			c0.747,0.576,1.482,1.187,2.123,1.874c2.33,2.493,4.981,4.527,8.031,6.089c1.289,0.659,2.468,1.568,3.621,2.465
			c2.258,1.75,3.208,4.22,3.707,6.945c0.648,3.534,0.421,7.036-0.079,10.557c-0.289,2.044-0.356,1.713-2.125,1.729
			c-1.915,0.02-3.83,0.008-5.743,0.006c-1.169-0.003-1.421-0.267-1.452-1.462c-0.028-1.06,0.028-2.136-0.128-3.178
			c-0.412-2.73-1.992-4.65-4.438-5.836c-2.625-1.272-5.138-2.72-7.428-4.522c-0.663-0.524-1.192-1.254-1.681-1.96
			c-1.23-1.789-2.374-3.64-3.604-5.431c-1.342-1.955-2.111-4.094-2.29-6.455c-0.142-1.88-0.346-3.756-0.402-5.638
			c-0.025-0.804,0.187-1.638,0.417-2.421c0.217-0.73,0.702-1.272,1.573-1.309c0.848-0.035,1.306,0.512,1.49,1.177
			c0.337,1.215,0.624,2.462,0.753,3.713c0.152,1.447-0.067,2.95,0.58,4.317c1.237,2.617,2.824,5.02,4.739,7.182
			c0.909,1.022,2.146,1.609,3.506,1.87C41.571,75.115,41.924,75.108,42.47,75.147z"/>
		<path fill-rule="evenodd" clip-rule="evenodd" fill="#BF1F3A" d="M77.722,75.098c1.221,0.107,2.315-0.245,3.224-0.918
			c0.934-0.691,1.811-1.517,2.537-2.426c0.897-1.118,1.62-2.379,2.409-3.583c1.055-1.615,1.673-3.342,1.678-5.317
			c0.002-1.354,0.273-2.709,0.459-4.058c0.044-0.319,0.207-0.625,0.347-0.923c0.297-0.633,0.708-1.114,1.498-1.091
			c0.809,0.025,1.356,0.508,1.489,1.197c0.259,1.355,0.499,2.747,0.459,4.116c-0.051,1.806-0.405,3.6-0.587,5.405
			c-0.161,1.622-0.818,3.05-1.664,4.395c-1.032,1.638-2.312,3.143-3.171,4.86c-1.249,2.495-3.322,4.002-5.586,5.352
			c-1.417,0.844-2.882,1.615-4.346,2.374c-2.966,1.54-4.574,3.915-4.615,7.3c-0.01,0.846-0.059,1.694-0.13,2.537
			c-0.042,0.473-0.356,0.686-0.834,0.686c-2.432-0.006-4.867-0.012-7.302,0.006c-0.613,0.006-0.853-0.325-0.928-0.846
			c-0.166-1.167-0.362-2.329-0.45-3.504c-0.104-1.435-0.169-2.877-0.142-4.312c0.046-2.373,0.455-4.705,1.305-6.916
			c0.811-2.106,2.428-3.586,4.264-4.805c1.257-0.836,2.551-1.631,3.891-2.322c1.746-0.904,3.229-2.126,4.629-3.472
			c1.072-1.033,2.158-2.051,3.241-3.071c0.156-0.145,0.323-0.277,0.496-0.401c0.765-0.55,1.932-0.646,2.611-0.217
			c0.649,0.411,0.95,1.422,0.75,2.419c-0.244,1.216-0.863,2.165-1.873,2.896c-1.477,1.068-2.603,2.461-3.512,4.032
			c-0.07,0.121-0.12,0.253-0.167,0.386C77.687,74.917,77.708,74.968,77.722,75.098z"/>
		<path fill-rule="evenodd" clip-rule="evenodd" fill="#BF1F3A" d="M82.477,51.757c-0.165,0.209-0.277,0.384-0.419,0.529
			c-1.651,1.658-3.315,3.301-4.955,4.971c-0.441,0.45-0.763,0.395-1.18-0.029c-1.605-1.636-3.225-3.259-4.862-4.862
			c-0.453-0.443-0.49-0.761-0.015-1.224c1.659-1.616,3.292-3.257,4.916-4.909c0.401-0.408,0.697-0.442,1.112-0.018
			c1.656,1.685,3.339,3.344,5.007,5.019C82.225,51.377,82.328,51.56,82.477,51.757z"/>
		<path fill-rule="evenodd" clip-rule="evenodd" fill="#BF1F3A" d="M68.26,65.932c-0.205-0.151-0.387-0.253-0.529-0.396
			c-1.674-1.664-3.334-3.341-5.014-5c-0.396-0.391-0.362-0.695,0.016-1.07c1.68-1.661,3.35-3.328,5.007-5.008
			c0.394-0.399,0.692-0.361,1.067,0.018c1.662,1.678,3.332,3.347,5.013,5.002c0.393,0.39,0.372,0.689-0.011,1.067
			c-1.682,1.659-3.343,3.336-5.016,5C68.651,65.688,68.465,65.786,68.26,65.932z"/>
		<path fill-rule="evenodd" clip-rule="evenodd" fill="#BF1F3A" d="M49.425,51.761c-0.168,0.214-0.284,0.389-0.426,0.534
			c-1.652,1.657-3.315,3.302-4.957,4.968c-0.404,0.41-0.716,0.418-1.125,0.005c-1.642-1.666-3.294-3.321-4.961-4.961
			c-0.413-0.408-0.413-0.708,0.002-1.117c1.671-1.639,3.324-3.293,4.961-4.961c0.408-0.415,0.704-0.423,1.114-0.006
			c1.64,1.668,3.303,3.312,4.953,4.97C49.144,51.352,49.262,51.548,49.425,51.761z"/>
		<path fill-rule="evenodd" clip-rule="evenodd" fill="#BF1F3A" d="M57.673,60c-0.151,0.21-0.253,0.391-0.394,0.534
			c-1.666,1.673-3.341,3.334-5,5.012c-0.383,0.389-0.699,0.389-1.076,0.007c-1.662-1.677-3.328-3.348-5.007-5.007
			c-0.385-0.38-0.401-0.678-0.007-1.065c1.68-1.656,3.351-3.327,5.008-5.005c0.378-0.382,0.682-0.405,1.068-0.012
			c1.659,1.678,3.336,3.34,5.002,5.012C57.41,59.618,57.517,59.795,57.673,60z"/>
		<path fill-rule="evenodd" clip-rule="evenodd" fill="#BF1F3A" d="M60.003,57.678c-0.196-0.143-0.377-0.246-0.52-0.385
			c-1.672-1.667-3.334-3.342-5.012-5.004c-0.379-0.376-0.403-0.689-0.013-1.075c1.676-1.66,3.348-3.328,5.006-5.008
			c0.379-0.382,0.671-0.411,1.063-0.014c1.659,1.68,3.33,3.346,5.007,5.006c0.378,0.375,0.407,0.689,0.016,1.077
			c-1.695,1.677-3.374,3.369-5.063,5.051C60.362,57.45,60.197,57.539,60.003,57.678z"/>
		<path fill-rule="evenodd" clip-rule="evenodd" fill="#BF1F3A" d="M59.998,62.351c0.192,0.135,0.362,0.222,0.488,0.348
			c1.692,1.682,3.377,3.374,5.072,5.056c0.356,0.354,0.377,0.667,0.015,1.028c-1.693,1.682-3.384,3.369-5.064,5.063
			c-0.362,0.365-0.664,0.356-1.021-0.005c-1.664-1.68-3.333-3.354-5.012-5.017c-0.379-0.375-0.414-0.69-0.021-1.079
			c1.68-1.663,3.345-3.341,5.02-5.007C59.617,62.596,59.801,62.496,59.998,62.351z"/>
		<path fill-rule="evenodd" clip-rule="evenodd" fill="#BF1F3A" d="M74.635,39.132c-0.107,0.305-0.153,0.439-0.198,0.572
			c-0.72,2.093-1.454,4.182-2.15,6.282c-0.205,0.613-0.463,0.826-1.132,0.583c-2.099-0.767-4.219-1.488-6.34-2.195
			c-0.608-0.201-0.759-0.49-0.542-1.102c0.751-2.107,1.472-4.225,2.181-6.347c0.194-0.581,0.459-0.784,1.092-0.555
			c2.148,0.778,4.315,1.499,6.468,2.268C74.263,38.729,74.454,38.984,74.635,39.132z"/>
		<path fill-rule="evenodd" clip-rule="evenodd" fill="#BF1F3A" d="M54.619,28.593c-0.076-0.353,0.219-0.53,0.818-0.596
			c2.242-0.253,4.486-0.532,6.718-0.873c0.654-0.1,0.821,0.206,0.889,0.686c0.166,1.188,0.296,2.381,0.446,3.572
			c0.127,1.002,0.252,2.007,0.398,3.008c0.123,0.837,0.03,1.017-0.798,1.132c-2.237,0.308-4.478,0.59-6.717,0.882
			c-0.423,0.055-0.771-0.044-0.834-0.533C55.238,33.538,54.947,31.203,54.619,28.593z"/>
		<path fill-rule="evenodd" clip-rule="evenodd" fill="#BF1F3A" d="M56.166,41.616c-0.147,0.231-0.245,0.419-0.373,0.585
			c-1.403,1.81-2.822,3.607-4.208,5.431c-0.336,0.44-0.609,0.49-1.042,0.148c-1.836-1.446-3.684-2.878-5.536-4.302
			c-0.4-0.306-0.472-0.565-0.136-0.986c1.451-1.833,2.882-3.68,4.306-5.534c0.328-0.429,0.613-0.476,1.048-0.13
			c1.814,1.436,3.65,2.844,5.472,4.271C55.872,41.236,56.003,41.432,56.166,41.616z"/>
	</g>
</g>
</svg>
