<?xml version="1.0" encoding="utf-8"?>
<!-- Generator: Adobe Illustrator 16.0.0, SVG Export Plug-In . SVG Version: 6.00 Build 0)  -->
<!DOCTYPE svg PUBLIC "-//W3C//DTD SVG 1.1//EN" "http://www.w3.org/Graphics/SVG/1.1/DTD/svg11.dtd">
<svg version="1.1" id="Layer_1" xmlns="http://www.w3.org/2000/svg" xmlns:xlink="http://www.w3.org/1999/xlink" x="0px" y="0px"
	 width="120px" height="120px" viewBox="0 0 120 120" enable-background="new 0 0 120 120" xml:space="preserve">
<g>
	<linearGradient id="SVGID_1_" gradientUnits="userSpaceOnUse" x1="-1703.2588" y1="1675.0679" x2="-1703.2588" y2="1577.5614">
		<stop  offset="0.0871" style="stop-color:#FBFCFC"/>
		<stop  offset="1" style="stop-color:#CCCCCC"/>
	</linearGradient>
	
		<circle fill-rule="evenodd" clip-rule="evenodd" fill="url(#SVGID_1_)" stroke="#CCCCCC" stroke-width="0.6891" stroke-miterlimit="10" cx="-1703.259" cy="1618.886" r="42.333"/>
	<g>
		<path fill-rule="evenodd" clip-rule="evenodd" fill="#BF1F3A" d="M-1727.252,1616.455c1.09-0.188,2.184-0.377,3.275-0.561
			c0.978-0.16,1.955-0.303,2.928-0.482c0.121-0.021,0.27-0.205,0.306-0.34c0.351-1.279,0.819-2.508,1.499-3.65
			c0.154-0.26,0.203-0.441-0.029-0.762c-1.199-1.645-2.337-3.332-3.522-5.045c0.789-0.789,1.588-1.586,2.386-2.385
			c0.439-0.438,0.893-0.863,1.311-1.32c0.199-0.215,0.376-0.186,0.563-0.051c1.57,1.125,3.14,2.252,4.703,3.387
			c0.195,0.145,0.353,0.248,0.605,0.111c1.242-0.684,2.525-1.264,3.916-1.582c0.092-0.021,0.193-0.186,0.212-0.295
			c0.319-1.857,0.679-3.711,0.903-5.582c0.072-0.611,0.29-0.643,0.764-0.637c1.627,0.02,3.257,0.008,4.939,0.008
			c0.385,2.172,0.766,4.334,1.12,6.34c1.526,0.637,2.948,1.23,4.442,1.854c1.594-1.152,3.292-2.385,5.007-3.596
			c0.116-0.082,0.433-0.055,0.536,0.045c1.169,1.133,2.32,2.285,3.456,3.455c0.097,0.102,0.115,0.414,0.032,0.535
			c-1.133,1.656-2.283,3.301-3.444,4.936c-0.142,0.199-0.11,0.297-0.017,0.514c0.541,1.236,1.027,2.494,1.552,3.736
			c0.06,0.143,0.239,0.303,0.386,0.328c1.449,0.268,2.904,0.51,4.359,0.75c0.48,0.078,0.965,0.135,1.449,0.193
			c0.228,0.027,0.42,0.055,0.414,0.363c-0.011,0.854-0.004,1.705-0.004,2.586c-4.936,0-9.846,0-14.795,0
			c0.032-2.051-0.758-3.789-2.164-5.213c-1.424-1.443-3.242-2.186-5.248-2.086c-4.178,0.211-6.622,3.209-7.031,6.355
			c-0.559,4.279,2.78,8.139,7.236,8.186c0,4.896,0,9.795,0,14.764c-0.898,0-1.806,0.01-2.715-0.014
			c-0.082-0.002-0.21-0.207-0.231-0.33c-0.323-1.936-0.624-3.875-0.954-5.809c-0.024-0.148-0.198-0.33-0.346-0.389
			c-0.871-0.35-1.762-0.648-2.633-1.002c-0.489-0.199-0.949-0.471-1.432-0.713c-1.695,1.191-3.396,2.393-5.111,3.574
			c-0.115,0.08-0.412,0.072-0.506-0.02c-1.188-1.158-2.363-2.332-3.52-3.521c-0.087-0.086-0.1-0.365-0.025-0.471
			c1.115-1.578,2.25-3.143,3.384-4.705c0.183-0.252,0.233-0.459,0.06-0.766c-0.662-1.18-1.213-2.408-1.52-3.736
			c-0.023-0.105-0.194-0.225-0.314-0.25c-1.162-0.229-2.326-0.443-3.491-0.656c-0.896-0.16-1.795-0.311-2.69-0.467
			C-1727.252,1620.179-1727.252,1618.316-1727.252,1616.455z"/>
		<path fill-rule="evenodd" clip-rule="evenodd" fill="#BF1F3A" d="M-1679.572,1644.931c-7.371,0-14.691,0-22.07,0
			c0-0.176,0-0.34,0-0.506c0-6.486-0.002-12.973,0-19.461c0-1.277,0.813-2.084,2.096-2.084c5.991-0.002,11.981,0.01,17.973-0.012
			c1.15-0.004,2.026,0.871,2.021,1.992c-0.038,6.486-0.02,12.973-0.02,19.461
			C-1679.572,1644.507-1679.572,1644.693-1679.572,1644.931z M-1697.793,1628.488c0,4.26,0,8.486,0,12.701c4.848,0,9.664,0,14.473,0
			c0-4.252,0-8.467,0-12.701C-1688.149,1628.488-1692.954,1628.488-1697.793,1628.488z"/>
		<path fill-rule="evenodd" clip-rule="evenodd" fill="#BF1F3A" d="M-1692.445,1632.078c0.699-0.703,1.349-1.346,1.988-1.994
			c0.445-0.453,0.976-0.654,1.58-0.436c0.959,0.346,1.175,1.451,0.42,2.244c-0.963,1.012-1.957,1.992-2.961,2.965
			c-0.551,0.533-1.215,0.596-1.813,0.088c-0.648-0.551-1.26-1.172-1.786-1.842c-0.442-0.564-0.276-1.256,0.252-1.691
			c0.567-0.467,1.177-0.426,1.765,0.07C-1692.811,1631.64-1692.662,1631.843-1692.445,1632.078z"/>
		<path fill-rule="evenodd" clip-rule="evenodd" fill="#BF1F3A" d="M-1692.456,1637.605c0.73-0.74,1.366-1.396,2.017-2.039
			c0.4-0.396,0.869-0.588,1.451-0.455c1.039,0.238,1.279,1.5,0.553,2.256c-1.01,1.049-2.025,2.096-3.098,3.08
			c-0.482,0.439-1.078,0.557-1.863-0.094c-0.576-0.479-1.094-1.045-1.563-1.631c-0.487-0.613-0.366-1.314,0.21-1.832
			c0.471-0.422,1.224-0.4,1.768,0.102C-1692.803,1637.158-1692.662,1637.365-1692.456,1637.605z"/>
	</g>
</g>
<g>
	<circle fill-rule="evenodd" clip-rule="evenodd" fill="#BF1F3A" cx="60" cy="59.833" r="50.499"/>
	<g>
		<path fill-rule="evenodd" clip-rule="evenodd" fill="#FFFFFF" d="M42.471,75.147c-1.047-2.03-2.317-3.575-3.987-4.789
			c-1.12-0.816-1.726-1.947-1.8-3.303c-0.04-0.752,0.111-1.563,0.904-1.944c0.846-0.408,1.726-0.351,2.476,0.229
			c0.746,0.576,1.481,1.188,2.122,1.874c2.33,2.493,4.981,4.526,8.03,6.085c1.29,0.663,2.47,1.571,3.621,2.466
			c2.257,1.751,3.206,4.219,3.707,6.946c0.648,3.535,0.422,7.035-0.078,10.557c-0.291,2.043-0.358,1.712-2.126,1.73
			c-1.915,0.019-3.83,0.007-5.743,0.003c-1.17,0-1.422-0.267-1.452-1.46c-0.027-1.062,0.03-2.136-0.127-3.177
			c-0.412-2.732-1.992-4.651-4.438-5.839c-2.625-1.271-5.139-2.718-7.426-4.523c-0.665-0.521-1.195-1.251-1.683-1.958
			c-1.229-1.788-2.374-3.639-3.604-5.429c-1.342-1.955-2.111-4.097-2.29-6.454c-0.143-1.881-0.347-3.755-0.402-5.639
			c-0.025-0.804,0.188-1.637,0.418-2.421c0.216-0.732,0.701-1.273,1.572-1.31c0.849-0.036,1.306,0.512,1.49,1.175
			c0.338,1.218,0.624,2.462,0.754,3.715c0.152,1.446-0.067,2.948,0.581,4.316c1.236,2.616,2.824,5.018,4.739,7.18
			c0.909,1.023,2.146,1.611,3.506,1.872C41.571,75.114,41.924,75.108,42.471,75.147z"/>
		<path fill-rule="evenodd" clip-rule="evenodd" fill="#FFFFFF" d="M77.722,75.096c1.221,0.107,2.315-0.243,3.224-0.918
			c0.934-0.69,1.81-1.515,2.537-2.424c0.897-1.118,1.62-2.378,2.409-3.584c1.056-1.613,1.673-3.34,1.678-5.317
			c0.003-1.352,0.272-2.708,0.458-4.058c0.045-0.318,0.207-0.624,0.348-0.924c0.297-0.632,0.708-1.113,1.498-1.09
			c0.808,0.024,1.357,0.507,1.487,1.198c0.258,1.353,0.5,2.744,0.46,4.115c-0.052,1.806-0.407,3.599-0.586,5.404
			c-0.162,1.623-0.819,3.05-1.665,4.394c-1.033,1.638-2.313,3.143-3.173,4.861c-1.248,2.496-3.321,4.001-5.585,5.351
			c-1.417,0.846-2.882,1.617-4.346,2.376c-2.966,1.542-4.574,3.913-4.614,7.3c-0.011,0.846-0.06,1.694-0.132,2.537
			c-0.04,0.471-0.356,0.684-0.833,0.684c-2.432-0.003-4.868-0.012-7.303,0.006c-0.612,0.006-0.851-0.327-0.926-0.843
			c-0.167-1.169-0.364-2.333-0.452-3.506c-0.105-1.434-0.169-2.876-0.142-4.313c0.047-2.373,0.455-4.703,1.306-6.917
			c0.81-2.105,2.427-3.584,4.263-4.805c1.257-0.833,2.551-1.628,3.89-2.321c1.747-0.902,3.23-2.123,4.631-3.473
			c1.072-1.029,2.158-2.048,3.24-3.068c0.157-0.147,0.324-0.279,0.497-0.402c0.765-0.549,1.931-0.645,2.611-0.216
			c0.649,0.408,0.949,1.422,0.75,2.417c-0.244,1.218-0.863,2.165-1.875,2.897c-1.477,1.067-2.602,2.459-3.512,4.031
			c-0.068,0.119-0.12,0.255-0.168,0.387C77.686,74.916,77.707,74.967,77.722,75.096z"/>
		<path fill-rule="evenodd" clip-rule="evenodd" fill="#FFFFFF" d="M82.476,51.757c-0.164,0.208-0.275,0.385-0.418,0.529
			c-1.651,1.657-3.315,3.301-4.955,4.971c-0.441,0.449-0.762,0.395-1.179-0.03c-1.606-1.634-3.224-3.259-4.863-4.862
			c-0.453-0.442-0.489-0.761-0.015-1.224c1.66-1.615,3.293-3.257,4.917-4.91c0.399-0.407,0.696-0.441,1.113-0.017
			c1.656,1.684,3.338,3.344,5.006,5.018C82.224,51.377,82.328,51.559,82.476,51.757z"/>
		<path fill-rule="evenodd" clip-rule="evenodd" fill="#FFFFFF" d="M68.26,65.934c-0.205-0.153-0.387-0.255-0.529-0.396
			c-1.673-1.665-3.334-3.344-5.012-5.003c-0.397-0.39-0.364-0.692,0.017-1.068c1.678-1.662,3.347-3.33,5.006-5.009
			c0.393-0.398,0.693-0.361,1.067,0.019c1.662,1.678,3.33,3.345,5.012,5.003c0.395,0.389,0.373,0.689-0.01,1.067
			c-1.681,1.659-3.343,3.335-5.017,5C68.651,65.688,68.465,65.784,68.26,65.934z"/>
		<path fill-rule="evenodd" clip-rule="evenodd" fill="#FFFFFF" d="M49.426,51.761c-0.171,0.215-0.285,0.389-0.427,0.534
			c-1.653,1.657-3.314,3.302-4.958,4.968c-0.403,0.41-0.715,0.416-1.125,0.004c-1.642-1.666-3.294-3.32-4.962-4.961
			c-0.413-0.408-0.413-0.708,0.003-1.117c1.67-1.639,3.323-3.293,4.961-4.96c0.408-0.414,0.703-0.424,1.114-0.006
			c1.639,1.669,3.304,3.313,4.953,4.969C49.143,51.352,49.261,51.547,49.426,51.761z"/>
		<path fill-rule="evenodd" clip-rule="evenodd" fill="#FFFFFF" d="M57.673,60.001c-0.152,0.207-0.252,0.39-0.393,0.531
			c-1.666,1.674-3.341,3.335-5.001,5.015c-0.382,0.387-0.697,0.387-1.075,0.006c-1.662-1.676-3.328-3.35-5.008-5.005
			c-0.385-0.381-0.4-0.678-0.007-1.064c1.681-1.659,3.35-3.329,5.008-5.006c0.378-0.383,0.681-0.405,1.069-0.012
			c1.659,1.678,3.335,3.338,5.001,5.013C57.41,59.618,57.517,59.794,57.673,60.001z"/>
		<path fill-rule="evenodd" clip-rule="evenodd" fill="#FFFFFF" d="M60.003,57.677c-0.196-0.141-0.378-0.246-0.52-0.385
			c-1.671-1.667-3.333-3.343-5.012-5.004c-0.379-0.375-0.402-0.688-0.012-1.075c1.678-1.66,3.349-3.327,5.006-5.007
			c0.377-0.383,0.671-0.411,1.063-0.015c1.659,1.681,3.33,3.348,5.006,5.007c0.379,0.375,0.407,0.688,0.016,1.075
			c-1.694,1.678-3.374,3.37-5.063,5.052C60.361,57.451,60.198,57.539,60.003,57.677z"/>
		<path fill-rule="evenodd" clip-rule="evenodd" fill="#FFFFFF" d="M59.997,62.353c0.193,0.135,0.361,0.219,0.487,0.345
			c1.693,1.683,3.379,3.374,5.073,5.057c0.356,0.354,0.378,0.666,0.015,1.029c-1.692,1.683-3.383,3.368-5.064,5.063
			c-0.363,0.363-0.663,0.354-1.02-0.006c-1.665-1.68-3.333-3.354-5.013-5.015c-0.379-0.375-0.414-0.69-0.021-1.08
			c1.679-1.665,3.344-3.341,5.019-5.009C59.618,62.595,59.8,62.493,59.997,62.353z"/>
		<path fill-rule="evenodd" clip-rule="evenodd" fill="#FFFFFF" d="M74.634,39.132c-0.108,0.305-0.153,0.439-0.198,0.571
			c-0.72,2.094-1.455,4.183-2.15,6.283c-0.205,0.612-0.462,0.826-1.133,0.582c-2.101-0.766-4.218-1.487-6.34-2.194
			c-0.608-0.203-0.759-0.491-0.542-1.102c0.751-2.108,1.472-4.226,2.181-6.346c0.195-0.582,0.459-0.785,1.092-0.555
			c2.149,0.778,4.316,1.498,6.468,2.266C74.263,38.729,74.455,38.984,74.634,39.132z"/>
		<path fill-rule="evenodd" clip-rule="evenodd" fill="#FFFFFF" d="M54.618,28.594c-0.075-0.354,0.219-0.531,0.817-0.597
			c2.244-0.254,4.487-0.531,6.72-0.873c0.654-0.1,0.821,0.206,0.888,0.687c0.166,1.188,0.297,2.38,0.446,3.57
			c0.128,1.003,0.254,2.008,0.399,3.009c0.122,0.838,0.03,1.016-0.799,1.132c-2.236,0.308-4.478,0.589-6.717,0.882
			c-0.423,0.056-0.771-0.043-0.833-0.534C55.239,33.537,54.946,31.204,54.618,28.594z"/>
		<path fill-rule="evenodd" clip-rule="evenodd" fill="#FFFFFF" d="M56.167,41.615c-0.147,0.232-0.246,0.42-0.373,0.585
			c-1.404,1.81-2.823,3.608-4.209,5.431c-0.335,0.44-0.609,0.491-1.042,0.147c-1.836-1.445-3.683-2.877-5.535-4.302
			c-0.401-0.306-0.473-0.563-0.136-0.986c1.451-1.833,2.882-3.68,4.306-5.534c0.327-0.428,0.612-0.474,1.048-0.129
			c1.813,1.435,3.652,2.843,5.472,4.271C55.872,41.236,56.002,41.431,56.167,41.615z"/>
	</g>
</g>
</svg>
