<?xml version="1.0" encoding="utf-8"?>
<!-- Generator: Adobe Illustrator 16.0.0, SVG Export Plug-In . SVG Version: 6.00 Build 0)  -->
<!DOCTYPE svg PUBLIC "-//W3C//DTD SVG 1.1//EN" "http://www.w3.org/Graphics/SVG/1.1/DTD/svg11.dtd">
<svg version="1.1" id="Layer_1" xmlns="http://www.w3.org/2000/svg" xmlns:xlink="http://www.w3.org/1999/xlink" x="0px" y="0px"
	 width="120px" height="120px" viewBox="0 0 120 120" enable-background="new 0 0 120 120" xml:space="preserve">
<g>
	<linearGradient id="SVGID_1_" gradientUnits="userSpaceOnUse" x1="-1703.2588" y1="1675.0679" x2="-1703.2588" y2="1577.5614">
		<stop  offset="0.0871" style="stop-color:#FBFCFC"/>
		<stop  offset="1" style="stop-color:#CCCCCC"/>
	</linearGradient>
	
		<circle fill-rule="evenodd" clip-rule="evenodd" fill="url(#SVGID_1_)" stroke="#CCCCCC" stroke-width="0.6891" stroke-miterlimit="10" cx="-1703.259" cy="1618.886" r="42.333"/>
	<g>
		<path fill-rule="evenodd" clip-rule="evenodd" fill="#BF1F3A" d="M-1727.252,1616.455c1.09-0.188,2.184-0.377,3.275-0.561
			c0.978-0.16,1.955-0.303,2.928-0.482c0.121-0.021,0.27-0.205,0.306-0.34c0.351-1.279,0.819-2.508,1.499-3.65
			c0.154-0.26,0.203-0.441-0.029-0.762c-1.199-1.645-2.337-3.332-3.522-5.045c0.789-0.789,1.588-1.586,2.386-2.385
			c0.439-0.438,0.893-0.863,1.311-1.32c0.199-0.215,0.376-0.186,0.563-0.051c1.57,1.125,3.14,2.252,4.703,3.387
			c0.195,0.145,0.353,0.248,0.605,0.111c1.242-0.684,2.525-1.264,3.916-1.582c0.092-0.021,0.193-0.186,0.212-0.295
			c0.319-1.857,0.679-3.711,0.903-5.582c0.072-0.611,0.29-0.643,0.764-0.637c1.627,0.02,3.257,0.008,4.939,0.008
			c0.385,2.172,0.766,4.334,1.12,6.34c1.526,0.637,2.948,1.23,4.442,1.854c1.594-1.152,3.292-2.385,5.007-3.596
			c0.116-0.082,0.433-0.055,0.536,0.045c1.169,1.133,2.32,2.285,3.456,3.455c0.097,0.102,0.115,0.414,0.032,0.535
			c-1.133,1.656-2.283,3.301-3.444,4.936c-0.142,0.199-0.11,0.297-0.017,0.514c0.541,1.236,1.027,2.494,1.552,3.736
			c0.06,0.143,0.239,0.303,0.386,0.328c1.449,0.268,2.904,0.51,4.359,0.75c0.48,0.078,0.965,0.135,1.449,0.193
			c0.228,0.027,0.42,0.055,0.414,0.363c-0.011,0.854-0.004,1.705-0.004,2.586c-4.936,0-9.846,0-14.795,0
			c0.032-2.051-0.758-3.789-2.164-5.213c-1.424-1.443-3.242-2.186-5.248-2.086c-4.178,0.211-6.622,3.209-7.031,6.355
			c-0.559,4.279,2.78,8.139,7.236,8.186c0,4.896,0,9.795,0,14.764c-0.898,0-1.806,0.01-2.715-0.014
			c-0.082-0.002-0.21-0.207-0.231-0.33c-0.323-1.936-0.624-3.875-0.954-5.809c-0.024-0.148-0.198-0.33-0.346-0.389
			c-0.871-0.35-1.762-0.648-2.633-1.002c-0.489-0.199-0.949-0.471-1.432-0.713c-1.695,1.191-3.396,2.393-5.111,3.574
			c-0.115,0.08-0.412,0.072-0.506-0.02c-1.188-1.158-2.363-2.332-3.52-3.521c-0.087-0.086-0.1-0.365-0.025-0.471
			c1.115-1.578,2.25-3.143,3.384-4.705c0.183-0.252,0.233-0.459,0.06-0.766c-0.662-1.18-1.213-2.408-1.52-3.736
			c-0.023-0.105-0.194-0.225-0.314-0.25c-1.162-0.229-2.326-0.443-3.491-0.656c-0.896-0.16-1.795-0.311-2.69-0.467
			C-1727.252,1620.179-1727.252,1618.316-1727.252,1616.455z"/>
		<path fill-rule="evenodd" clip-rule="evenodd" fill="#BF1F3A" d="M-1679.572,1644.931c-7.371,0-14.691,0-22.07,0
			c0-0.176,0-0.34,0-0.506c0-6.486-0.002-12.973,0-19.461c0-1.277,0.813-2.084,2.096-2.084c5.991-0.002,11.981,0.01,17.973-0.012
			c1.15-0.004,2.026,0.871,2.021,1.992c-0.038,6.486-0.02,12.973-0.02,19.461
			C-1679.572,1644.507-1679.572,1644.693-1679.572,1644.931z M-1697.793,1628.488c0,4.26,0,8.486,0,12.701c4.848,0,9.664,0,14.473,0
			c0-4.252,0-8.467,0-12.701C-1688.149,1628.488-1692.954,1628.488-1697.793,1628.488z"/>
		<path fill-rule="evenodd" clip-rule="evenodd" fill="#BF1F3A" d="M-1692.445,1632.078c0.699-0.703,1.349-1.346,1.988-1.994
			c0.445-0.453,0.976-0.654,1.58-0.436c0.959,0.346,1.175,1.451,0.42,2.244c-0.963,1.012-1.957,1.992-2.961,2.965
			c-0.551,0.533-1.215,0.596-1.813,0.088c-0.648-0.551-1.26-1.172-1.786-1.842c-0.442-0.564-0.276-1.256,0.252-1.691
			c0.567-0.467,1.177-0.426,1.765,0.07C-1692.811,1631.64-1692.662,1631.843-1692.445,1632.078z"/>
		<path fill-rule="evenodd" clip-rule="evenodd" fill="#BF1F3A" d="M-1692.456,1637.605c0.73-0.74,1.366-1.396,2.017-2.039
			c0.4-0.396,0.869-0.588,1.451-0.455c1.039,0.238,1.279,1.5,0.553,2.256c-1.01,1.049-2.025,2.096-3.098,3.08
			c-0.482,0.439-1.078,0.557-1.863-0.094c-0.576-0.479-1.094-1.045-1.563-1.631c-0.487-0.613-0.366-1.314,0.21-1.832
			c0.471-0.422,1.224-0.4,1.768,0.102C-1692.803,1637.158-1692.662,1637.365-1692.456,1637.605z"/>
	</g>
</g>
<g>
	<rect x="15.333" y="37.333" fill-rule="evenodd" clip-rule="evenodd" fill="#FFFFFF" width="94" height="57"/>
	<g>
		<path fill-rule="evenodd" clip-rule="evenodd" fill="#BF1F3A" d="M98.479,32.676c1.759,0,3.464,0.1,5.151-0.021
			c3.758-0.27,6.049,2.453,5.927,5.854c-0.169,4.777-0.041,9.568-0.041,14.525c-0.482,0-0.897,0-1.315,0c-8.526,0-17.054,0-25.579,0
			c-1.706,0-2.135,0.414-2.136,2.107c-0.003,7.652-0.003,15.308,0,22.962c0.001,1.664,0.479,2.143,2.129,2.143
			c8.491,0.004,16.98,0.004,25.471,0.004c0.43,0,0.858,0,1.375,0c0.021,0.43,0.052,0.781,0.053,1.133
			c0.004,5.26,0.006,10.521,0.002,15.783c-0.004,2.945-2.023,5.072-4.979,5.25c-0.252,0.014-0.508,0.004-0.761,0.004
			c-29.28,0-58.56,0-87.838-0.002c-2.936,0-4.945-1.406-5.537-3.914c-0.123-0.52-0.125-1.076-0.125-1.617
			c-0.007-22.568-0.006-45.134-0.006-67.701c0-6.729,4.834-11.587,11.588-11.6c10.269-0.017,20.536-0.005,30.804-0.005
			c13.532,0,27.066,0,40.599,0c3.508,0.002,5.148,1.629,5.15,5.111c0.002,2.975-0.001,5.949,0.003,8.925
			C98.412,31.934,98.451,32.25,98.479,32.676z M26.689,54.768c1.288,0,2.449-0.049,3.603,0.012c1.427,0.076,2.212,0.896,2.215,2.293
			c0.013,6.531,0.012,13.06,0,19.591c-0.003,1.23-0.556,1.76-1.815,1.801c-0.797,0.027-1.598-0.025-2.394,0.023
			c-0.268,0.018-0.723,0.195-0.757,0.367c-0.325,1.646-0.577,3.309-0.871,5.078c3.113,0,6.037,0,9.099,0c0,2.529,0,4.971,0,7.391
			c1.577,0,3.015,0,4.584,0c0-2.465,0-4.871,0-7.277c1.209,0,2.282,0,3.502,0c0,2.461,0,4.869,0,7.275c1.58,0,3.017,0,4.557,0
			c0-2.48,0-4.896,0-7.293c1.823-0.26,3.563-0.406,5.257-0.768c4.177-0.891,7.288-3.02,8.11-7.539
			c0.96-5.295-0.496-8.984-5.764-10.513c-0.055-0.016-0.099-0.07-0.202-0.152c0.204-0.158,0.357-0.305,0.536-0.41
			c4.411-2.566,4.073-10.732-0.773-12.926c-1.406-0.637-2.92-1.049-4.408-1.48c-0.858-0.25-2.138-0.043-2.549-0.568
			c-0.466-0.602-0.195-1.789-0.207-2.725c-0.019-1.469-0.005-2.941-0.005-4.383c-1.613,0-3.045,0-4.594,0c0,2.393,0,4.693,0,7.078
			c-1.223,0-2.325,0-3.533,0c0-2.41,0-4.752,0-7.109c-1.547,0-2.984,0-4.515,0c0,2.441,0,4.824,0,7.371c-3.073,0-6.057,0-9.075,0
			C26.689,51.578,26.689,53.084,26.689,54.768z M91.241,23.366c-0.382-0.022-0.634-0.049-0.886-0.049
			c-23.14-0.002-46.278-0.004-69.418,0.009c-0.607,0-1.24,0.07-1.819,0.247c-2.267,0.693-3.569,2.863-3.216,5.255
			c0.348,2.338,2.308,3.956,4.841,3.956c23.175,0.004,46.351,0.002,69.526,0c0.315,0,0.63-0.037,0.972-0.057
			C91.241,29.588,91.241,26.522,91.241,23.366z"/>
		<path fill-rule="evenodd" clip-rule="evenodd" fill="#BF1F3A" d="M109.731,56.182c0,6.973,0,13.855,0,20.855
			c-0.397,0.02-0.78,0.051-1.163,0.051c-7.651,0.004-15.304,0.004-22.954,0.004c-1.63,0-1.755-0.125-1.756-1.707
			c0-5.947,0.014-11.894-0.014-17.841c-0.004-1.033,0.408-1.436,1.418-1.434c7.979,0.018,15.954,0.01,23.934,0.014
			C109.336,56.123,109.477,56.152,109.731,56.182z M96.931,62.613c-2.349,0.012-4.288,1.934-4.322,4.285
			c-0.032,2.346,2.024,4.412,4.36,4.376c2.357-0.035,4.285-1.964,4.306-4.306C101.295,64.572,99.331,62.602,96.931,62.613z"/>
		<path fill-rule="evenodd" clip-rule="evenodd" fill="#BF1F3A" d="M40.494,78.591c0-3.375,0-6.586,0-9.945
			c3.532-0.197,7.067-0.371,10.356,1.306c1.425,0.729,2.151,2.018,2.119,3.652c-0.032,1.641-0.814,2.895-2.307,3.506
			c-1.292,0.527-2.667,0.959-4.041,1.135C44.623,78.501,42.589,78.486,40.494,78.591z"/>
		<path fill-rule="evenodd" clip-rule="evenodd" fill="#BF1F3A" d="M40.496,64.248c0-3.287,0-6.205,0-9.184
			c2.676-0.07,5.283-0.217,7.778,0.779c1.797,0.717,2.69,2.105,2.597,3.967c-0.087,1.721-1.331,3.24-3.362,3.613
			C45.247,63.842,42.934,63.975,40.496,64.248z"/>
	</g>
</g>
</svg>
