<?xml version="1.0" encoding="utf-8"?>
<!-- Generator: Adobe Illustrator 16.0.0, SVG Export Plug-In . SVG Version: 6.00 Build 0)  -->
<!DOCTYPE svg PUBLIC "-//W3C//DTD SVG 1.1//EN" "http://www.w3.org/Graphics/SVG/1.1/DTD/svg11.dtd">
<svg version="1.1" id="Layer_1" xmlns="http://www.w3.org/2000/svg" xmlns:xlink="http://www.w3.org/1999/xlink" x="0px" y="0px"
	 width="120px" height="120px" viewBox="0 0 120 120" enable-background="new 0 0 120 120" xml:space="preserve">
<g>
	<linearGradient id="SVGID_1_" gradientUnits="userSpaceOnUse" x1="60.0005" y1="126.8706" x2="60.0005" y2="10.5389">
		<stop  offset="0.0871" style="stop-color:#FBFCFC"/>
		<stop  offset="1" style="stop-color:#CCCCCC"/>
	</linearGradient>
	
		<circle fill-rule="evenodd" clip-rule="evenodd" fill="url(#SVGID_1_)" stroke="#CCCCCC" stroke-width="0.6891" stroke-miterlimit="10" cx="60" cy="59.841" r="50.507"/>
	<g>
		<g>
			<path fill-rule="evenodd" clip-rule="evenodd" fill="#BF1F3A" d="M59.874,36.958c9.845,0,19.692,0,29.54,0
				c1.939,0,3.169,1.207,3.169,3.153c0.005,13.434,0.005,26.865,0,40.299c-0.001,1.906-1.235,3.125-3.144,3.129
				c-18.402,0.02-36.803,0.035-55.206,0.05c-1.327,0-2.656-0.037-3.981-0.047c-1.899-0.017-3.071-1.135-3.179-3.046
				c-0.009-0.133-0.004-0.266-0.004-0.397c0-13.243,0.002-26.486-0.002-39.728c0-1.208,0.271-2.305,1.382-2.927
				c0.518-0.291,1.176-0.463,1.771-0.463C40.104,36.951,49.989,36.958,59.874,36.958z M90.684,75.311c0-0.256,0-0.444,0-0.634
				c0-11.479,0-22.957,0-34.436c0-0.094,0.002-0.189,0-0.285c-0.028-0.641-0.345-1.011-0.99-1.111
				c-0.278-0.042-0.565-0.044-0.849-0.044c-18.839-0.003-37.679-0.003-56.518-0.003c-0.646,0-1.29-0.007-1.935,0.003
				c-1.042,0.016-1.431,0.417-1.431,1.463c0,11.479,0,22.957,0,34.434c0,0.202,0.018,0.403,0.025,0.612
				C49.574,75.311,70.096,75.311,90.684,75.311z M59.827,77.779c-0.963,0.007-1.668,0.736-1.652,1.71
				c0.016,0.931,0.742,1.648,1.671,1.65c0.941,0.005,1.695-0.751,1.692-1.697C61.536,78.492,60.796,77.772,59.827,77.779z"/>
			<path fill-rule="evenodd" clip-rule="evenodd" fill="#BF1F3A" d="M53.312,88.225c0-1.281,0-2.486,0-3.735
				c4.36,0,8.672,0,13.052,0c0,1.214,0,2.436,0,3.735c1.104,0,2.139,0,3.175,0c1.627,0,1.644,0.019,1.644,1.648
				c0,0.435,0.002,0.87,0,1.307c-0.002,0.864-0.216,1.084-1.06,1.086c-1.727,0.002-3.451,0-5.175,0c-5.083,0-10.162,0-15.242,0
				c-0.949,0-1.117-0.175-1.118-1.135c0-0.605-0.003-1.215,0-1.82c0.002-0.897,0.191-1.083,1.111-1.086c0.986,0,1.971,0,2.958,0
				C52.857,88.225,53.06,88.225,53.312,88.225z"/>
			<path fill-rule="evenodd" clip-rule="evenodd" fill="#BF1F3A" d="M53.123,74.638c-1.698,0-3.4,0-5.222,0
				c2.146-1.83,3.146-4.058,2.806-6.786c-0.233-1.864-1.122-3.4-2.559-4.614c-2.901-2.444-7.233-2.186-9.893,0.578
				c-2.506,2.603-3.089,7.457,0.803,10.793c-1.764,0-3.473,0-5.103,0c-0.07-0.252-0.117-0.494-0.205-0.72
				c-0.233-0.597-0.517-1.18-0.717-1.79c-0.107-0.323-0.254-0.452-0.589-0.476c-0.509-0.035-1.017-0.111-1.523-0.188
				c-0.405-0.063-0.625-0.277-0.62-0.731c0.019-1.252,0.019-2.505,0-3.756c-0.007-0.452,0.212-0.667,0.62-0.727
				c0.543-0.084,1.093-0.126,1.631-0.233c0.158-0.03,0.35-0.189,0.417-0.341c0.31-0.668,0.597-1.349,0.853-2.039
				c0.058-0.154,0.021-0.406-0.072-0.543c-0.289-0.419-0.637-0.801-0.941-1.212c-0.296-0.398-0.313-0.776,0.084-1.158
				c0.848-0.816,1.678-1.648,2.496-2.496c0.358-0.371,0.716-0.382,1.107-0.103c0.522,0.375,1.004,1.016,1.557,1.079
				c0.552,0.063,1.149-0.534,1.761-0.68c0.753-0.177,0.949-0.606,1.002-1.301c0.125-1.596,0.152-1.594,1.717-1.594
				c0.89,0,1.783-0.002,2.672,0c0.792,0,0.846,0.045,0.974,0.855c0.07,0.447,0.084,0.909,0.191,1.347
				c0.044,0.191,0.219,0.413,0.396,0.497c0.628,0.303,1.276,0.573,1.932,0.813c0.169,0.061,0.436,0.04,0.582-0.058
				c0.427-0.28,0.813-0.623,1.219-0.932c0.404-0.31,0.757-0.319,1.142,0.088c0.806,0.853,1.638,1.687,2.493,2.496
				c0.405,0.382,0.405,0.734,0.095,1.137c-0.311,0.408-0.654,0.792-0.937,1.216c-0.099,0.149-0.128,0.417-0.066,0.587
				c0.243,0.676,0.518,1.343,0.823,1.991c0.074,0.161,0.295,0.314,0.473,0.352c0.517,0.107,1.049,0.152,1.573,0.224
				c0.438,0.061,0.66,0.278,0.648,0.76c-0.022,1.233-0.022,2.465,0,3.698c0.009,0.48-0.212,0.704-0.646,0.768
				c-0.544,0.079-1.093,0.125-1.632,0.223c-0.15,0.028-0.337,0.164-0.397,0.299c-0.321,0.706-0.615,1.424-0.899,2.144
				C53.114,74.245,53.139,74.417,53.123,74.638z"/>
			<path fill-rule="evenodd" clip-rule="evenodd" fill="#BF1F3A" d="M77.915,74.662c-2.408,0-4.817-0.006-7.224,0.002
				c-0.314,0-0.685,0.019-0.727-0.356c-0.025-0.245,0.11-0.63,0.301-0.758c0.776-0.517,1.018-1.137,0.605-1.99
				c-0.023-0.048-0.03-0.111-0.028-0.165c0.021-0.674-0.356-0.962-0.971-1.049c-0.167-0.023-0.327-0.095-0.49-0.144
				c-0.382-0.112-0.557-0.319-0.469-0.756c0.171-0.853,0.325-1.712,0.434-2.577c0.061-0.473,0.345-0.676,0.725-0.58
				c1.016,0.251,1.531-0.177,2.037-1.042c0.369-0.625,0.383-1.018,0.029-1.594c-0.53-0.862-0.498-0.885,0.334-1.477
				c0.602-0.429,1.216-0.841,1.806-1.287c0.315-0.237,0.639-0.274,0.834,0.049c0.635,1.061,1.496,1.061,2.538,0.723
				c0.406-0.135,0.629-0.259,0.741-0.688c0.421-1.622,0.379-1.289,1.759-1.095c0.58,0.081,1.151,0.24,1.733,0.293
				c0.532,0.046,0.752,0.354,0.641,0.79c-0.244,0.969,0.152,1.449,0.975,1.952c0.663,0.404,1.091,0.399,1.696,0.019
				c0.781-0.487,0.839-0.442,1.361,0.293c0.438,0.62,0.865,1.247,1.319,1.853c0.271,0.361,0.268,0.722-0.091,0.937
				c-0.928,0.55-0.981,1.251-0.699,2.223c0.176,0.604,0.359,0.967,0.985,1.056c0.206,0.026,0.401,0.109,0.597,0.177
				c0.317,0.105,0.45,0.317,0.391,0.655c-0.162,0.916-0.288,1.834-0.488,2.74c-0.042,0.193-0.329,0.34-0.516,0.492
				c-0.046,0.037-0.151,0.025-0.221,0.007c-0.946-0.252-1.568,0.064-1.934,0.99c-0.067,0.168-0.459,0.289-0.701,0.291
				C82.768,74.667,80.341,74.662,77.915,74.662z M82.942,69.847c0.005-2.214-1.743-3.987-3.938-3.994
				c-2.221-0.005-4.046,1.806-4.018,3.994c0.028,2.164,1.879,3.989,4.02,3.961C81.173,73.778,82.938,72,82.942,69.847z"/>
			<path fill-rule="evenodd" clip-rule="evenodd" fill="#BF1F3A" d="M54.815,74.577c0.158-0.643,0.319-1.281,0.478-1.922
				c0.098-0.396,0.377-0.41,0.708-0.373c0.314,0.035,0.744,0.18,0.926,0.03c0.384-0.312,0.699-0.755,0.92-1.204
				c0.088-0.175-0.119-0.527-0.247-0.77c-0.247-0.476-0.193-0.799,0.326-1.051c0.492-0.238,0.962-0.527,1.417-0.836
				c0.408-0.277,0.683-0.191,0.948,0.191c0.17,0.242,0.375,0.62,0.592,0.639c0.497,0.044,1.019-0.054,1.509-0.18
				c0.148-0.04,0.25-0.347,0.33-0.55c0.343-0.864,0.338-0.864,1.217-0.639c0.495,0.126,0.987,0.261,1.488,0.366
				c0.389,0.082,0.557,0.284,0.473,0.683c-0.021,0.093-0.03,0.187-0.051,0.279c-0.111,0.485-0.043,0.879,0.48,1.098
				c0.169,0.072,0.324,0.208,0.448,0.347c0.23,0.267,0.468,0.264,0.75,0.099c0.145-0.087,0.31-0.14,0.464-0.217
				c0.363-0.18,0.622-0.133,0.828,0.266c0.276,0.538,0.589,1.064,0.927,1.563c0.264,0.392,0.177,0.648-0.179,0.899
				c-0.438,0.313-1.014,0.566-0.562,1.358c-1.494,0-2.873,0.008-4.25-0.016c-0.125,0-0.271-0.175-0.367-0.299
				c-1.022-1.307-2.641-1.288-3.662,0.035c-0.101,0.128-0.288,0.271-0.436,0.271c-1.763,0.017-3.525,0.007-5.288,0
				C54.95,74.645,54.898,74.61,54.815,74.577z"/>
		</g>
		<rect x="30.301" y="42.387" fill-rule="evenodd" clip-rule="evenodd" fill="#BF1F3A" width="58.769" height="3.729"/>
		<rect x="30.301" y="47.906" fill-rule="evenodd" clip-rule="evenodd" fill="#BF1F3A" width="58.769" height="3.729"/>
	</g>
</g>
</svg>
