<?xml version="1.0" encoding="utf-8"?>
<!-- Generator: Adobe Illustrator 16.0.0, SVG Export Plug-In . SVG Version: 6.00 Build 0)  -->
<!DOCTYPE svg PUBLIC "-//W3C//DTD SVG 1.1//EN" "http://www.w3.org/Graphics/SVG/1.1/DTD/svg11.dtd">
<svg version="1.1" id="Layer_1" xmlns="http://www.w3.org/2000/svg" xmlns:xlink="http://www.w3.org/1999/xlink" x="0px" y="0px"
	 width="120px" height="120px" viewBox="0 0 120 120" enable-background="new 0 0 120 120" xml:space="preserve">
<circle fill-rule="evenodd" clip-rule="evenodd" fill="#BF1F3A" cx="60" cy="59.834" r="50.501"/>
<g>
	<g>
		<path fill-rule="evenodd" clip-rule="evenodd" fill="#FFFFFF" d="M60.047,32.183c9.845,0,19.69,0,29.536,0
			c1.938,0,3.168,1.207,3.168,3.154c0.005,13.43,0.005,26.86,0,40.292c-0.001,1.907-1.233,3.126-3.143,3.13
			C71.21,78.776,52.81,78.793,34.41,78.807c-1.328,0-2.654-0.036-3.98-0.047c-1.899-0.017-3.071-1.133-3.179-3.046
			c-0.008-0.133-0.003-0.263-0.003-0.397c0-13.24,0.001-26.482-0.003-39.722c0-1.206,0.27-2.303,1.381-2.926
			c0.517-0.291,1.175-0.463,1.771-0.465C40.279,32.175,50.163,32.183,60.047,32.183z M90.854,70.531c0-0.256,0-0.444,0-0.634
			c0-11.475,0-22.953,0-34.43c0-0.095,0.001-0.189,0-0.285c-0.027-0.642-0.343-1.012-0.991-1.111
			c-0.277-0.044-0.564-0.044-0.847-0.044c-18.836-0.004-37.674-0.003-56.511-0.003c-0.645,0-1.29-0.007-1.935,0.003
			c-1.042,0.016-1.431,0.417-1.431,1.462c0,11.478,0,22.954,0,34.43c0,0.202,0.017,0.401,0.026,0.611
			C49.749,70.531,70.269,70.531,90.854,70.531z M60,73c-0.962,0.006-1.668,0.736-1.651,1.709c0.017,0.931,0.741,1.647,1.67,1.651
			c0.94,0.003,1.695-0.751,1.692-1.697C61.709,73.711,60.97,72.993,60,73z"/>
		<path fill-rule="evenodd" clip-rule="evenodd" fill="#FFFFFF" d="M53.487,83.444c0-1.28,0-2.485,0-3.735c4.359,0,8.67,0,13.049,0
			c0,1.213,0,2.434,0,3.735c1.105,0,2.139,0,3.175,0c1.627,0,1.645,0.019,1.645,1.648c0,0.435,0.002,0.87-0.001,1.306
			c-0.003,0.864-0.216,1.084-1.061,1.086c-1.726,0.001-3.451,0-5.175,0c-5.081,0-10.16,0-15.239,0c-0.948,0-1.117-0.174-1.119-1.133
			c0-0.608-0.002-1.215,0-1.82c0.003-0.898,0.192-1.084,1.111-1.087c0.985-0.002,1.972,0,2.958,0
			C53.032,83.444,53.235,83.444,53.487,83.444z"/>
		<path fill-rule="evenodd" clip-rule="evenodd" fill="#FFFFFF" d="M53.298,69.857c-1.698,0-3.398,0-5.222,0
			c2.146-1.828,3.145-4.055,2.806-6.784c-0.234-1.864-1.122-3.399-2.559-4.613c-2.9-2.444-7.232-2.185-9.891,0.578
			c-2.506,2.604-3.089,7.456,0.802,10.792c-1.764,0-3.473,0-5.103,0c-0.068-0.252-0.117-0.493-0.204-0.72
			c-0.234-0.596-0.518-1.181-0.718-1.789c-0.107-0.325-0.254-0.453-0.588-0.475c-0.508-0.037-1.018-0.113-1.522-0.191
			c-0.406-0.063-0.627-0.277-0.621-0.732c0.018-1.25,0.018-2.502,0-3.754c-0.006-0.454,0.212-0.668,0.621-0.729
			c0.543-0.082,1.092-0.126,1.628-0.232c0.161-0.031,0.352-0.188,0.418-0.339c0.311-0.67,0.597-1.351,0.854-2.04
			c0.057-0.154,0.021-0.406-0.072-0.542c-0.29-0.419-0.638-0.801-0.942-1.213c-0.297-0.397-0.312-0.774,0.084-1.156
			c0.849-0.816,1.677-1.648,2.495-2.496c0.358-0.371,0.715-0.382,1.107-0.102c0.521,0.375,1.004,1.014,1.556,1.079
			c0.553,0.063,1.149-0.534,1.763-0.681c0.751-0.177,0.946-0.606,1-1.3c0.126-1.596,0.153-1.594,1.719-1.594
			c0.889,0,1.781-0.002,2.672,0.001c0.792,0,0.846,0.044,0.973,0.854c0.071,0.447,0.084,0.909,0.191,1.348
			c0.045,0.191,0.219,0.411,0.396,0.495c0.628,0.304,1.276,0.573,1.931,0.813c0.171,0.062,0.437,0.04,0.585-0.057
			c0.424-0.281,0.811-0.623,1.218-0.933c0.403-0.311,0.755-0.318,1.14,0.088c0.808,0.854,1.639,1.687,2.494,2.495
			c0.406,0.382,0.406,0.733,0.096,1.138c-0.31,0.406-0.655,0.791-0.937,1.215c-0.099,0.151-0.127,0.418-0.066,0.589
			c0.243,0.673,0.519,1.341,0.825,1.989c0.074,0.16,0.294,0.314,0.473,0.352c0.517,0.107,1.048,0.149,1.573,0.223
			c0.438,0.062,0.658,0.276,0.647,0.76c-0.024,1.233-0.024,2.465,0,3.698c0.009,0.48-0.213,0.704-0.646,0.768
			c-0.544,0.077-1.093,0.125-1.633,0.223c-0.148,0.027-0.334,0.162-0.396,0.299c-0.321,0.705-0.615,1.421-0.9,2.142
			C53.289,69.465,53.314,69.637,53.298,69.857z"/>
		<path fill-rule="evenodd" clip-rule="evenodd" fill="#FFFFFF" d="M78.084,69.881c-2.405,0-4.815-0.004-7.222,0.002
			c-0.315,0-0.684,0.02-0.726-0.355c-0.027-0.247,0.107-0.63,0.3-0.757c0.775-0.518,1.02-1.137,0.606-1.99
			c-0.024-0.049-0.03-0.111-0.028-0.167c0.021-0.67-0.355-0.961-0.972-1.047c-0.167-0.024-0.326-0.096-0.489-0.144
			c-0.382-0.113-0.556-0.32-0.469-0.756c0.171-0.852,0.324-1.711,0.435-2.575c0.06-0.473,0.345-0.676,0.724-0.582
			c1.015,0.253,1.531-0.175,2.036-1.04c0.368-0.625,0.383-1.019,0.028-1.594c-0.529-0.861-0.498-0.885,0.335-1.477
			c0.601-0.429,1.216-0.84,1.805-1.287c0.315-0.237,0.641-0.274,0.835,0.051c0.634,1.059,1.495,1.06,2.538,0.721
			c0.405-0.135,0.628-0.259,0.741-0.688c0.421-1.62,0.379-1.288,1.758-1.095c0.581,0.082,1.151,0.24,1.733,0.294
			c0.532,0.048,0.752,0.354,0.642,0.789c-0.246,0.971,0.152,1.452,0.973,1.953c0.663,0.405,1.091,0.398,1.696,0.021
			c0.782-0.489,0.84-0.444,1.362,0.292c0.438,0.619,0.864,1.246,1.318,1.852c0.27,0.362,0.268,0.724-0.091,0.936
			c-0.927,0.552-0.981,1.252-0.699,2.225c0.176,0.602,0.36,0.967,0.987,1.054c0.204,0.027,0.4,0.111,0.597,0.176
			c0.314,0.107,0.448,0.32,0.39,0.658c-0.162,0.914-0.288,1.833-0.489,2.738c-0.042,0.193-0.327,0.341-0.516,0.493
			c-0.044,0.038-0.15,0.024-0.221,0.006c-0.946-0.251-1.566,0.065-1.932,0.99c-0.069,0.169-0.459,0.29-0.704,0.292
			C82.938,69.887,80.513,69.881,78.084,69.881z M83.114,65.068c0.004-2.214-1.744-3.986-3.938-3.993
			c-2.221-0.007-4.046,1.805-4.016,3.993c0.027,2.166,1.878,3.99,4.018,3.962C81.344,68.998,83.108,67.222,83.114,65.068z"/>
		<path fill-rule="evenodd" clip-rule="evenodd" fill="#FFFFFF" d="M54.989,69.798c0.158-0.643,0.32-1.283,0.479-1.921
			c0.097-0.398,0.376-0.411,0.708-0.374c0.315,0.035,0.744,0.178,0.924,0.03c0.385-0.313,0.702-0.754,0.922-1.204
			c0.088-0.175-0.121-0.527-0.247-0.771c-0.248-0.475-0.196-0.797,0.325-1.049c0.492-0.238,0.964-0.527,1.417-0.837
			c0.408-0.277,0.682-0.192,0.949,0.191c0.169,0.242,0.375,0.619,0.591,0.639c0.496,0.044,1.018-0.056,1.508-0.181
			c0.148-0.039,0.25-0.346,0.329-0.549c0.343-0.864,0.339-0.865,1.218-0.639c0.494,0.127,0.988,0.261,1.488,0.367
			c0.39,0.081,0.558,0.283,0.473,0.681c-0.021,0.093-0.029,0.187-0.051,0.281c-0.111,0.483-0.043,0.878,0.48,1.098
			c0.168,0.072,0.324,0.207,0.447,0.346c0.231,0.266,0.468,0.263,0.75,0.1c0.147-0.087,0.311-0.14,0.465-0.218
			c0.363-0.18,0.621-0.133,0.828,0.267c0.276,0.537,0.588,1.064,0.927,1.563c0.262,0.391,0.176,0.646-0.18,0.9
			c-0.438,0.311-1.014,0.565-0.561,1.356c-1.494,0-2.874,0.008-4.25-0.015c-0.125-0.002-0.271-0.177-0.368-0.3
			c-1.02-1.308-2.64-1.288-3.661,0.034c-0.101,0.132-0.288,0.272-0.437,0.272c-1.762,0.016-3.524,0.006-5.286,0
			C55.124,69.866,55.073,69.829,54.989,69.798z"/>
	</g>
	<rect x="30.478" y="37.613" fill-rule="evenodd" clip-rule="evenodd" fill="#FFFFFF" width="58.762" height="3.728"/>
	<rect x="30.478" y="43.13" fill-rule="evenodd" clip-rule="evenodd" fill="#FFFFFF" width="58.762" height="3.728"/>
</g>
</svg>
