<?xml version="1.0" encoding="utf-8"?>
<!-- Generator: Adobe Illustrator 16.0.0, SVG Export Plug-In . SVG Version: 6.00 Build 0)  -->
<!DOCTYPE svg PUBLIC "-//W3C//DTD SVG 1.1//EN" "http://www.w3.org/Graphics/SVG/1.1/DTD/svg11.dtd">
<svg version="1.1" id="Layer_1" xmlns="http://www.w3.org/2000/svg" xmlns:xlink="http://www.w3.org/1999/xlink" x="0px" y="0px"
	 width="120px" height="120px" viewBox="0 0 120 120" enable-background="new 0 0 120 120" xml:space="preserve">
<g>
	<linearGradient id="SVGID_1_" gradientUnits="userSpaceOnUse" x1="-1703.2588" y1="1675.0679" x2="-1703.2588" y2="1577.5614">
		<stop  offset="0.0871" style="stop-color:#FBFCFC"/>
		<stop  offset="1" style="stop-color:#CCCCCC"/>
	</linearGradient>
	
		<circle fill-rule="evenodd" clip-rule="evenodd" fill="url(#SVGID_1_)" stroke="#CCCCCC" stroke-width="0.6891" stroke-miterlimit="10" cx="-1703.259" cy="1618.886" r="42.333"/>
	<g>
		<path fill-rule="evenodd" clip-rule="evenodd" fill="#BF1F3A" d="M-1727.252,1616.455c1.09-0.188,2.184-0.377,3.275-0.561
			c0.978-0.16,1.955-0.303,2.928-0.482c0.121-0.021,0.27-0.205,0.306-0.34c0.351-1.279,0.819-2.508,1.499-3.65
			c0.154-0.26,0.203-0.441-0.029-0.762c-1.199-1.645-2.337-3.332-3.522-5.045c0.789-0.789,1.588-1.586,2.386-2.385
			c0.439-0.438,0.893-0.863,1.311-1.32c0.199-0.215,0.376-0.186,0.563-0.051c1.57,1.125,3.14,2.252,4.703,3.387
			c0.195,0.145,0.353,0.248,0.605,0.111c1.242-0.684,2.525-1.264,3.916-1.582c0.092-0.021,0.193-0.186,0.212-0.295
			c0.319-1.857,0.679-3.711,0.903-5.582c0.072-0.611,0.29-0.643,0.764-0.637c1.627,0.02,3.257,0.008,4.939,0.008
			c0.385,2.172,0.766,4.334,1.12,6.34c1.526,0.637,2.948,1.23,4.442,1.854c1.594-1.152,3.292-2.385,5.007-3.596
			c0.116-0.082,0.433-0.055,0.536,0.045c1.169,1.133,2.32,2.285,3.456,3.455c0.097,0.102,0.115,0.414,0.032,0.535
			c-1.133,1.656-2.283,3.301-3.444,4.936c-0.142,0.199-0.11,0.297-0.017,0.514c0.541,1.236,1.027,2.494,1.552,3.736
			c0.06,0.143,0.239,0.303,0.386,0.328c1.449,0.268,2.904,0.51,4.359,0.75c0.48,0.078,0.965,0.135,1.449,0.193
			c0.228,0.027,0.42,0.055,0.414,0.363c-0.011,0.854-0.004,1.705-0.004,2.586c-4.936,0-9.846,0-14.795,0
			c0.032-2.051-0.758-3.789-2.164-5.213c-1.424-1.443-3.242-2.186-5.248-2.086c-4.178,0.211-6.622,3.209-7.031,6.355
			c-0.559,4.279,2.78,8.139,7.236,8.186c0,4.896,0,9.795,0,14.764c-0.898,0-1.806,0.01-2.715-0.014
			c-0.082-0.002-0.21-0.207-0.231-0.33c-0.323-1.936-0.624-3.875-0.954-5.809c-0.024-0.148-0.198-0.33-0.346-0.389
			c-0.871-0.35-1.762-0.648-2.633-1.002c-0.489-0.199-0.949-0.471-1.432-0.713c-1.695,1.191-3.396,2.393-5.111,3.574
			c-0.115,0.08-0.412,0.072-0.506-0.02c-1.188-1.158-2.363-2.332-3.52-3.521c-0.087-0.086-0.1-0.365-0.025-0.471
			c1.115-1.578,2.25-3.143,3.384-4.705c0.183-0.252,0.233-0.459,0.06-0.766c-0.662-1.18-1.213-2.408-1.52-3.736
			c-0.023-0.105-0.194-0.225-0.314-0.25c-1.162-0.229-2.326-0.443-3.491-0.656c-0.896-0.16-1.795-0.311-2.69-0.467
			C-1727.252,1620.179-1727.252,1618.316-1727.252,1616.455z"/>
		<path fill-rule="evenodd" clip-rule="evenodd" fill="#BF1F3A" d="M-1679.572,1644.931c-7.371,0-14.691,0-22.07,0
			c0-0.176,0-0.34,0-0.506c0-6.486-0.002-12.973,0-19.461c0-1.277,0.813-2.084,2.096-2.084c5.991-0.002,11.981,0.01,17.973-0.012
			c1.15-0.004,2.026,0.871,2.021,1.992c-0.038,6.486-0.02,12.973-0.02,19.461
			C-1679.572,1644.507-1679.572,1644.693-1679.572,1644.931z M-1697.793,1628.488c0,4.26,0,8.486,0,12.701c4.848,0,9.664,0,14.473,0
			c0-4.252,0-8.467,0-12.701C-1688.149,1628.488-1692.954,1628.488-1697.793,1628.488z"/>
		<path fill-rule="evenodd" clip-rule="evenodd" fill="#BF1F3A" d="M-1692.445,1632.078c0.699-0.703,1.349-1.346,1.988-1.994
			c0.445-0.453,0.976-0.654,1.58-0.436c0.959,0.346,1.175,1.451,0.42,2.244c-0.963,1.012-1.957,1.992-2.961,2.965
			c-0.551,0.533-1.215,0.596-1.813,0.088c-0.648-0.551-1.26-1.172-1.786-1.842c-0.442-0.564-0.276-1.256,0.252-1.691
			c0.567-0.467,1.177-0.426,1.765,0.07C-1692.811,1631.64-1692.662,1631.843-1692.445,1632.078z"/>
		<path fill-rule="evenodd" clip-rule="evenodd" fill="#BF1F3A" d="M-1692.456,1637.605c0.73-0.74,1.366-1.396,2.017-2.039
			c0.4-0.396,0.869-0.588,1.451-0.455c1.039,0.238,1.279,1.5,0.553,2.256c-1.01,1.049-2.025,2.096-3.098,3.08
			c-0.482,0.439-1.078,0.557-1.863-0.094c-0.576-0.479-1.094-1.045-1.563-1.631c-0.487-0.613-0.366-1.314,0.21-1.832
			c0.471-0.422,1.224-0.4,1.768,0.102C-1692.803,1637.158-1692.662,1637.365-1692.456,1637.605z"/>
	</g>
</g>
<g>
	<linearGradient id="SVGID_2_" gradientUnits="userSpaceOnUse" x1="60.0005" y1="120.1987" x2="60.0005" y2="3.8693">
		<stop  offset="0.0871" style="stop-color:#FBFCFC"/>
		<stop  offset="1" style="stop-color:#CCCCCC"/>
	</linearGradient>
	
		<circle fill-rule="evenodd" clip-rule="evenodd" fill="url(#SVGID_2_)" stroke="#CCCCCC" stroke-width="0.6891" stroke-miterlimit="10" cx="60" cy="59.839" r="50.505"/>
	<g>
		<path fill-rule="evenodd" clip-rule="evenodd" fill="#BF1F3A" d="M34.2,76.876c-0.847-3.078-1.084-5.971-0.829-8.909
			c0.822-9.388,5.486-16.651,12.831-22.177c3.461-2.602,7.395-4.58,11.15-6.781c1.134-0.665,1.602-0.36,1.631,0.994
			c0.025,1.203-0.108,2.408-0.18,3.768c2.019-1.596,3.722-3.288,3.61-6.009c-0.04-0.91,0.454-1.058,1.04-1.274
			c6.076-2.248,12.346-3.751,18.724-4.833c1.487-0.252,2.982-0.461,4.471-0.715c0.992-0.169,1.483,0.18,1.305,1.21
			c-0.756,4.375-1.527,8.746-2.292,13.119c-0.174,0.996-0.895,0.86-1.557,0.705c-2.873-0.676-5.575-0.086-8.208,1.059
			c-0.18,0.08-0.343,0.199-0.459,0.271c2.352,0.771,4.707,1.472,7.007,2.319c1.715,0.633,1.711,0.762,1.031,2.497
			c-0.49,1.248-1.041,2.473-1.51,3.729c-0.288,0.769-0.726,0.956-1.544,0.848c-3.807-0.502-7.407,0.181-11.021,2.106
			c2.068,0.375,3.901,0.687,5.726,1.05c0.944,0.188,1.878,0.441,2.798,0.719c1.151,0.345,1.277,0.689,0.61,1.703
			c-2.096,3.187-4.696,5.918-7.707,8.242c-7.963,6.15-16.825,9.824-27.053,9.715c-0.429-0.004-0.983,0.374-1.279,0.734
			c-2.386,2.924-4.722,5.894-7.083,8.839c-0.288,0.356-0.601,0.762-0.997,0.948c-0.514,0.245-1.306,0.572-1.644,0.354
			c-0.436-0.286-0.863-1.162-0.737-1.639c0.558-2.094,0.958-4.354,2.055-6.164c8.859-14.608,19.981-27.253,33.508-37.721
			c2.918-2.256,6.036-4.25,9.054-6.378c0.555-0.389,1.451-0.722,0.925-1.623c-0.513-0.878-1.293-0.303-1.897-0.037
			c-5.21,2.294-10.041,5.268-14.525,8.738c-10.753,8.325-19.994,18.027-26.563,30.068C34.53,76.457,34.444,76.547,34.2,76.876z"/>
	</g>
</g>
</svg>
